<?xml version="1.0" encoding="utf-8"?>
<!-- Generator: Adobe Illustrator 24.0.1, SVG Export Plug-In . SVG Version: 6.00 Build 0)  -->
<svg version="1.1" id="Capa_1" xmlns="http://www.w3.org/2000/svg" xmlns:xlink="http://www.w3.org/1999/xlink" x="0px" y="0px"
	 viewBox="0 0 841.9 595.3" style="enable-background:new 0 0 841.9 595.3;" xml:space="preserve">
<style type="text/css">
	.st0{fill:#00A5CE;}
	.st1{fill:#FECD00;}
	.st2{fill:#FFFFFF;}
	.st3{fill:#F5C9A1;}
	.st4{fill:#E07674;}
	.st5{fill:#CF1716;}
	.st6{fill:#A67635;}
	.st7{fill:#D3DAE0;}
	.st8{fill:#E5E5E5;}
	.st9{fill:#297AA0;}
	.st10{fill:#97652C;}
	.st11{fill:#E7D6B1;}
	.st12{stroke:#000000;stroke-width:0.6297;stroke-miterlimit:10;}
	.st13{fill:#ECAF90;}
</style>
<rect x="0" class="st0" width="841.9" height="595.3"/>
<g>
	<circle class="st1" cx="420.9" cy="311.7" r="145"/>
	<g>
		<g>
			<path d="M567.2,265.5c-16.5-4.2-33.1-4.2-49.6,0c-4.6,1.2-7.8,5.2-7.8,10c-0.1,0-0.3,0-0.4,0l-0.5,0c-0.6-0.1-1.3-0.1-1.9-0.1
				c-2.1-0.1-3.8,0.3-5.3,1.1c-0.8,0.5-1.4,1.1-1.9,1.9c-0.3-0.4-0.6-0.8-0.9-1.1c-1.1-1.1-2.8-1.7-4.5-1.8
				c-0.3-0.2-0.6-0.3-0.9-0.3c-1.1-0.1-2,0.3-2.9,0.6c-0.2,0.1-0.5,0.2-0.7,0.2c-1,0.3-2.1,0.6-3.1,0.9c-2.3,0.8-4,1.8-5.3,3.2
				c-1.5,1.7-2.5,4.1-3,7.3c0,0.2-0.7,3.9-0.7,3.9c-4.5,4.1-9.3,7.6-14.3,10.7c-1.4,0.7-3,1.4-5,2.1c-2.2,0.8-3.9,1.1-5.6,1.1
				c-1.3,0-2.7-0.1-4.2-0.3c-0.9-4-4.3-6.9-9-7.6c-0.2-0.5-0.5-1-0.7-1.4l-0.2-0.3c-0.5-0.8-0.9-1.5-1.4-2.3l-0.4-0.7
				c-0.4-0.6-0.7-1.2-1.1-1.9c-1-1.6-1.9-3.4-3.3-4.8c-1.7-1.9-4-3.6-7-5.2c-1.4-0.7-2.8-1.3-4.1-1.6c-0.5-0.1-1.4-0.3-2.2-0.3
				c0,0,0,0,0,0c-0.6-0.6-1.3-1.2-1.9-1.7c22.7-3.6,37.5-18.7,41.8-31.5c2.3-6.9,1.3-12.9-2.6-16.2c1.9-7.1,8.4-36.8-6-64.2
				l-0.1-0.2c-0.1-0.3-0.2-0.6-0.3-0.9c0.6-0.5,1.2-1,1.5-1.3c1.5-1.4,2.7-2.8,3.5-4.1c0.8-1.3,1.2-2.8,1.5-4.7
				c0.1-0.9,0.2-1.7,0.2-2.5c0-0.6,0.1-1.6-0.2-2.6c0.8-1,1.5-1.9,2.1-2.9c2.3-3.8,3.2-8.1,2.5-12.5c-0.1-2.3-0.6-4.6-1.4-6.9
				c-1.2-3.3-2.9-6.1-5-8.4c-2-2.1-4.3-3.7-6.8-4.5c-3.1-1.1-6.4-0.8-8.6-0.4c-0.7,0.1-2.4,0.5-3.8,1.3c-0.5-1.6-1.5-3-2.1-3.8
				c-1.8-2.4-4.3-4.6-7.4-6.4c-6.6-3.8-14.4-3.4-18.8,1c-0.8,0.8-1.5,1.8-2,2.9c-2.4-4.5-7.4-8.6-12.7-10.2
				c-7.7-2.3-16.2,0.3-21.2,6.7c-1.1,1.5-2,2.9-2.4,4.4c-1.7-1.4-3.9-2.3-6.1-2.5c-4.7-0.3-9.6,2.8-11.1,7.2
				c-0.2,0.5-0.3,1.1-0.4,1.7c-2.4-1.7-5.6-2.4-8.6-1.8c-5.9,1.1-10.5,6.3-12.4,11.1c-0.6,1.6-0.9,3.2-0.9,4.7c0,0.7,0.2,2,0.8,3
				c-3.2,0.6-6.4,3.1-7.8,6.2c-1,2.2-0.9,4.4,0.1,6.1c0.4,0.8,1.1,1.5,1.9,2.1c0.3,0.3,0.8,0.6,1.3,0.9c0.3,0.6,0.4,1.4,0.3,2.4
				c-0.1,0.3-0.3,0.7-0.4,1l-0.2,0.6c-0.7,1.8-1.2,3.5-1.5,5.2c-0.7,4-0.8,7.8-0.8,11.1c0,3.5,0.3,7.1,0.8,11l0.2,1.6
				c0.3,2.5,0.6,5.1,1.3,7.6c-6,1.2-10.9,4.6-13.9,9.7c-4.1,6.9-4,15.6,0.2,22.6c8,13.4,18.7,16.3,26.5,14.5c2,6.2,9.8,21,27.2,31.6
				c-5-0.1-10.2,0.5-15,1.2c-6.6,0.9-12.5,2.1-17.8,3.5c-5.3,1.4-10.8,3.2-14.1,7.3c-0.2,0.2-0.3,0.5-0.4,0.8
				c-2.7,0.7-5.1,1.9-7,3.5c-1.2,1.1-2.7,2.5-3.3,4.5c-0.6,1.8-0.3,3.6,0.1,5.5c0,0.2,0.2,0.5,0.3,0.6c-0.8,1.5-1.2,3-1.2,4.6
				c0,1.4,0.1,3.4,1,5.2c-1.3-0.3-2.5-0.7-3.7-1.1c-1.5-0.5-3-0.9-4.6-1.4c-3.9-1.2-7.8-2.4-11.8-3.4c-1.9-0.5-4.3-1-6.8-0.5
				c-2.2,0.4-4.2,1.7-5.8,3.8c-2.8,3.6-4.1,8-5.4,12.3l-0.1,0.3c-2.9,10-3.7,20.8-2.2,32c0.6,4.6,1.4,9.8,3.2,14.5
				c2,5.2,5.5,8.3,9.9,8.8c4,0.4,8.1-0.6,12-1.7c1.4-0.4,2.8-0.7,4.1-1c5.8-1.3,12.7-2.3,19.4-0.4c0,0,0.1,0,0.1,0
				c0.1,0.4,0.3,0.8,0.4,1.2c1.3,3.3,3.4,6.2,6.1,8.4c1.7,1.4,3.4,2.1,5.2,2.2c1.6,0.1,3.2-0.2,4.7-0.5l0.2,0c2.2,2,5.2,2.9,8,2.4
				c1-0.2,2-0.5,2.9-1.1c0.2-0.1,0.4-0.3,0.6-0.4c0.8,0.7,1.8,1.3,2.8,1.7c2.7,1,5.7,0.9,8.3-0.4c2.3-1.2,4.1-3.1,5-5.4
				c1,0.3,2,0.6,3,0.8c1.6,0.4,3.2,0.8,4.8,1.1c1,0.2,2,0.5,3,0.7c-7.4,22.2-27.8,52.1-46.7,78.6c-0.5-0.9-1.1-1.8-1.7-2.6
				c-2.3-3.5-4.6-6.3-6.8-8.8c-3-3.2-5.7-5.6-8.6-7.4c-1.8-1.1-3.7-1.9-5.2-2.6c-1.6-0.6-3.4-1.3-5.3-1.8c-3.9-1.1-7.8-1.5-11.4-1.3
				c-4.3,0.4-8.2,1.8-11.2,4.1c-1.6,1.3-3,2.8-4.2,4.5c-1.1,1.7-1.9,3.6-2.4,5.6c-0.5,1.9-0.7,3.9-0.6,6c0.1,1.8,0.3,3.8,0.8,5.8
				c0.8,3.5,2.1,7,4.1,10.6c3.6,6.7,8.6,12.6,14.5,17.1c6.5,5,13.7,7.9,21,8.4c4.2,0.3,8.7,0.5,13.9,0.4l0.6,0.1
				c0.4,0.1,0.9,0.1,1.3,0.2c1.2,0.2,2.5,0.3,3.9,0.3c0,0,0,0,0,0.1c0.3,0.9,1.1,1.4,2,1.4c0,0,0.1,0,0.1,0c3.4-0.2,6.3-0.5,9-0.8
				l2.7-0.4c0.6-0.1,1.2-0.2,1.9-0.4c1.1-0.3,2.1-0.8,2.8-1.5c0.7-0.6,1.3-1.4,1.8-2.5c1.3-3,1.8-6.4,1.4-9.9
				c-0.2-1.7-0.7-3.3-1.4-4.9c-0.3-0.7-0.7-1.5-1.3-2.3c0,0-0.1-0.1-0.1-0.1c0.3-0.5,0.5-1,0.7-1.5c0.3-0.9,0.4-1.7,0.5-2.5
				c0.9-0.1,1.7-0.3,2.6-0.5c0.5-0.1,0.9-0.4,1.2-0.8c15.9-23.3,28.6-52.1,38-85.6l0.7,0.2c0.9,0.3,1.7,0.6,2.6,0.8
				c4.1,1.3,8.8,2.1,12.6-0.7c0.4-0.3,0.7-0.6,1.1-0.9c-1.4,41.6-17.5,67.9-17.6,68.2c-0.3,0.5-0.4,1.2-0.2,1.7
				c-0.3,0.2-0.5,0.4-0.7,0.7c-0.5,0.6-0.9,1.3-1.1,2.1c0,0.1,0,0.1,0,0.2c-2.3,0.5-4.3,1.4-5.9,2.6c-2.1,1.5-3.9,3.7-5.2,6.3
				c-1.1,2.1-1.8,4.5-2.4,7.4c-0.4,2.3-0.7,4.7-0.8,7.5c0,0.6,0.2,1.3,0.7,1.7c1.7,1.4,3.5,2.3,4.9,2.9c1.8,0.8,3.7,1.3,5.1,1.6
				c1.5,0.4,3.2,0.7,5.2,1c1.9,0.3,3.6,0.4,5.2,0.5c0.9,0,1.7-0.4,2.1-1.2c3.9,2.4,8.4,4.2,13.7,5.6c5.5,1.4,11.3,2.3,17.2,2.6
				c3.1,0.2,6,0.1,8.7,0c3.3-0.2,6.2-0.7,8.8-1.4c1.2-0.4,2.9-0.9,4.4-1.8c1.5-0.9,2.8-2.1,3.8-3.5c2.2-3.2,2.6-6.9,2.5-9.4
				c-0.1-2.9-0.8-6-2-9c-1.2-2.9-2.8-5.5-4.7-7.8c-2.1-2.5-4.8-4.4-7.7-5.5c-2.6-1-5.6-1.5-9-1.6c-5.6-0.1-11.6,0.9-17.3,3.1
				c0.1-0.1,0.1-0.2,0.1-0.4c10.8-44.4,14-88.3,14.4-94.6c6.4-7.4,9.7-18.9,9.3-32.5c1.2,0.4,2.4,0.5,3.4,0.7
				c4.1,0.6,8.7,0.7,13.1-0.4c16.2-4.2,26.1-11.9,26.1-11.9s1,4.1,7.6,8.5c2.1,1.2,5,2.1,7.6,1.2c1.1,1.2,2.4,2.2,4.1,2.9
				c-0.1,0.3-0.1,0.6-0.1,0.8c0,1.1,0.2,2.3,0.7,3.2c0.4,1,1,2,2.1,2.6c1.5,0.8,3.4,0.7,4.6,0.6c0.7-0.1,1.4-0.2,2.1-0.4l0.6-0.1
				v0.3c0,5,2.8,9.6,7.3,11.9c16.7,8.7,33.9,8.7,50.6,0c4.5-2.3,7.3-6.9,7.3-11.9v-60.3C575,270.8,571.8,266.7,567.2,265.5z
				 M343.6,301.1c1.9-2.1,2.8-4.3,2.7-6.7c0.8-0.3,1.7-0.7,2.6-1.2c1.6-0.9,3.2-1.5,4.8-1.8c3.6-0.8,7-0.3,10.6,0.1l0.6,0.1
				c1.4,0.2,2.8,0.4,4.2,0.5c-1.5,3.2-4,9.5-5.8,18.2c-1.8-0.1-3.5-0.2-5.3-0.4l-2.8-0.2c-2.8-0.2-5.8-0.4-8.7-0.5l-1.5-0.1
				c-1.4-0.1-2.8-0.1-4.3-0.1c1.6-1.5,2.6-3.6,2.8-6C343.7,302.4,343.7,301.8,343.6,301.1z"/>
			<path class="st2" d="M328.4,274.5c4-1.4,8-2.6,12.1-3.5c9-1.9,18.2-2.4,27.4-2.6c8.9-0.2,17.8-0.1,26.5,1.6s17.2,4.9,24.1,10.5
				c3.7-0.3,7.4,1.6,10.1,4.1c2.7,2.6,4.7,5.8,6.6,9c1,1.6,2,3.3,2.1,5.2c0.3,3.5-2.3,6.5-4.8,9c1.6,1.5,1.9,3.9,2,6
				c0.5,7.5,1.1,15,1.6,22.5c0.1,1,0.1,2-0.3,2.8c-0.8,1.6-3,1.8-4.8,1.8c-22.8,0.2-45.6-4.7-66.3-14.3c-0.3-0.2-0.7-0.3-0.9-0.6
				c-0.3-0.3-0.5-0.7-0.6-1.1c-1.7-5.3,0.1-11,1.9-16.2c2.1-6.1,4.1-12.2,6.2-18.4c-9.7-2.9-20.6-1.3-29.1,4.3
				c-2.7-4.4-7.2-7.1-11.9-9.1c-2.4-1-4.9-1.7-7.4-2.5c-2.4-0.8-3.2-2.2-1.6-4.4C323.1,276.7,325.9,275.4,328.4,274.5z"/>
			<path class="st3" d="M454.5,229.7c3.7,3.3,4.7,8.8,3.6,13.6c-1.1,4.8-4,9-7.2,12.8c-4.9,5.7-10.8,10.7-17.6,14
				c-2.7,1.3-5.5,2.3-8.3,3.3c-3.8,1.3-7.7,2.7-11.7,3c-2.1,0.2-4.2,0-6.4-0.1c-6.8-0.5-13.8-1.2-20.3-3
				c-10.9-2.9-21.1-8.1-29.8-15.3c-3.2-2.6-6.1-5.5-8.4-8.9c-3.5-5.2-5.3-11.4-8.8-16.6c-3.6,2.6-8.6,1.5-12.6-0.5
				c-6-2.9-11.3-7.6-14.2-13.6c-2.9-6-3.1-13.5,0.1-19.3c2.1-3.7,5.4-6.6,9.3-8c4.3-1.7,9.2-1.6,13.7-0.5c4.5,1.1,8.7,3.2,12.8,5.4
				c0-10.7,2.1-21.5,6-31.5c3.4-8.7,8.6-17.3,17.1-21.4c5-2.4,10.6-2.9,16.1-3.1c14.5-0.3,29,2.1,42.6,7.1c2,0.7,4,1.6,5.7,2.9
				c1.1,0.9,2.1,2,3,3c3.7,4.4,7.4,8.9,10.1,14c4.2,7.6,6.3,16.3,7.3,24.9C458.3,204.5,458.3,217.8,454.5,229.7z"/>
			<path class="st4" d="M406.2,247.4c-4.2-1-8.5-1.9-12.8-2s-8.8,0.8-12.4,3.2c-1.3,0.9-2.7,2.5-2.1,4c0.2,0.5,0.6,0.9,1,1.3
				c3.3,3.2,7.5,5.3,11.7,7.2c2,0.9,4.1,1.8,6.3,2.4c8.3,2.5,17.4,1.5,25.2-2.3c1.7-0.8,3.5-1.9,4-3.7c0.5-1.9-0.6-4-2.1-5.3
				c-2-1.8-4.7-2.8-7.4-3.3c-2.1-0.3-4.2-0.4-6.3-0.3C409.3,248.5,407.9,247.8,406.2,247.4z"/>
			<polygon class="st5" points="406.8,286.3 407.7,281.9 402.6,276.5 397.7,282.4 402.1,287 400,317.7 412.7,326.1 418,317.1 			"/>
			<path class="st6" d="M323.7,143.5c-0.8-2.4,0.1-5.1,1.8-7c1.7-1.9,4.2-2.9,6.6-3.5c-1.6-2.8-0.7-6.3,0.7-9.2c1.9-3.8,5-7.2,9-8.4
				c4-1.3,9,0.2,11,3.9c-0.6-4.1,1.8-8.5,5.6-10.1c3.8-1.6,8.6-0.3,11.1,3c2.8-6.9,9-12.8,16.4-13.3c8.3-0.5,15.6,5.8,19.4,13.2
				c1.3-6.5,9.2-10,15.6-8.3c6.4,1.7,11.1,7.2,13.8,13.3c7.5-5.7,15.7-1.9,20.1,4.2c1.3,1.9,2.2,4,2.9,6.2c1.3,4.3,1.6,8.9,0.4,13.2
				c-2,7.4-8.2,12.9-14.8,16.7c-12.2-7.2-24.9-13.6-38.5-17.5c-13.6-3.9-28.1-5.1-41.9-2c-5.7,1.3-11.2,3.3-16.7,5.2
				c-2.8,0.9-5.6,1.9-8.5,2.6c-2.4,0.7-5.2,1.6-7.8,1.5C327.3,147.1,324.6,146.1,323.7,143.5z"/>
			<path class="st7" d="M333.4,283.1c-4.2-2-8.9-3.2-13.4-2.4s-8.9,3.7-10.5,8c-0.3,0.7-0.5,1.5-0.4,2.3c0.1,0.8,0.6,1.5,1.3,1.8
				c-1.7,2.9-1.9,6.6-0.5,9.7c0.4,0.9,0.9,1.7,1.8,2.2c1.1,0.6,2.6,0.4,3.7-0.2s2.1-1.4,3.2-2.1c2.1-1.3,4.7-2,7.2-1.7
				c1.3,0.1,2.5,0.4,3.6,1.1c2.7,1.6,3.9,4.8,5,7.7c2.3,0.2,4.6-0.7,6.1-2.4c1.5-1.7,2-4.2,1.5-6.4c1.5-1.4,2.4-3.4,2.5-5.4
				c0.1-2.1-0.6-4.3-1.8-6c-0.6-0.9-1.7-1.6-2.6-2.2c-1-0.7-2-1.4-3-2.1C335.8,284.3,334.6,283.7,333.4,283.1z"/>
			<path class="st8" d="M291.8,300.3c-4.5-1.4-9.6-2.8-13.5-0.2c-2.3,1.6-3.6,4.4-4.5,7c-5.7,15.4-6.5,32.6-2.3,48.5
				c0.9,3.6,2.3,7.4,5.3,9.5c2.7,1.9,6.3,2.1,9.5,1.5s6.3-1.8,9.5-2.7c9.9-2.6,20.5-1.1,30.6,0.8c22.5,4,44.7,9.3,66.7,15.7
				c2.3,0.7,4.6,1.3,7,1c3.6-0.5,6.5-3.5,8.3-6.7c7-12.7,0.8-29.8,8-42.4c0.4-0.7,0.8-1.5,0.6-2.2c-0.3-0.8-1.1-1.2-1.8-1.6
				c-3.7-2.3-3.5-7.8-6.1-11.3c-3-4.2-9-4.6-14.1-4.6c-7.2,0-14.3-0.1-21.5-0.1c-3.6,0-7.2,0-10.8-0.1c-2.5,0-4.9-0.7-7.5-0.8
				c-13.7-0.7-27.3-2.5-40.7-5.3C306.7,304.6,299.2,302.6,291.8,300.3z"/>
			<path class="st3" d="M343.6,342.6c-1.5-0.1-3.1-0.2-4.3-1.1c-1-0.8-1.5-1.9-2.1-3.1c-0.5-1.2-1.1-2.3-1.6-3.5
				c-0.7-1.5-1.4-3-1.8-4.6c0-0.2-0.1-0.4-0.3-0.5c-0.1-0.1-0.3,0-0.5,0c-0.7,0.2-1.3,0.5-1.9,0.7c-0.5,0.1-1,0.1-1.5,0.2
				c-1.4,0.2-2.8,0.5-4.3,0.7c-1.2,0.2-2.4,0.3-3.5,0.5c-0.6,0.1-1.8,0.2-2.1,0.8c-0.2,0.4,0,1,0.2,1.4c0.4,0.7,0.7,1.4,1.1,2.1
				c0.4,0.7,0.8,1.5,0.7,2.3c-0.1,0.8-0.6,1.4-1.1,2c-0.9,1.3-1.5,2.7-2.1,4.1c0,0.7-0.8,1.8-1,2.5c-0.3,0.8-0.5,1.7-0.6,2.5
				c-0.4,1.8-0.6,3.7-0.6,5.6c0,3.8,0.7,7.5,2.1,11c1.1,2.7,2.6,5.3,4.9,7s5.4,2.7,8.2,1.8c0.5-0.2,1.1-0.4,1.6-0.3
				c0.4,0.1,0.7,0.4,1.1,0.6c1.5,1.2,3.2,2.1,5.1,2.2c1.9,0.1,3.9-0.8,4.7-2.5c2,2.5,5.5,3.6,8.6,2.8s5.6-3.4,6.2-6.5
				c-2.2-1-4.4-1.9-6.2-3.5c-1.8-1.5-3.2-3.7-3.3-6.1c2.1,2.5,5.8,2.7,9,2.7c1.2,0,2.4-0.1,3.3-0.8c0.7-0.6,1.1-1.5,1.2-2.4
				c0.4-2.4-0.5-4.9-2.3-6.5c-1.6-1.3-3.6-1.9-5.2-3.2c-1.7-1.4-2.7-3.6-4-5.5c-1.2-1.8-2.9-3.1-5.1-3.5
				C345.5,342.7,344.5,342.7,343.6,342.6z"/>
			<path class="st3" d="M330.2,293.6c-2.3-2-5.4-3.3-8.3-2.6c-3.1,0.7-5.4,3.2-6.6,6.1c-1.2,2.9-1.4,6.1-1.6,9.2
				c-0.1,2.1-0.2,4.2,0.1,6.2c0.2,1.6,0.7,3.2,1.2,4.7c1.9,6.3,3.8,12.6,7,18.4c0.4,0.8,0.9,1.6,1.6,2.2c1.3,1.2,3.2,1.4,4.9,1.6
				c1.7,0.2,3.7,0.3,5-0.8c1.6-1.3,1.7-3.8,1.3-5.8c-0.4-2.6-1.3-5.1-1.5-7.8c-0.7-8.5,4-17.2,0.8-25.7
				C333.3,297.2,332,295.2,330.2,293.6z"/>
			<path class="st7" d="M436.3,307.9c0.8-0.7,1.9-1.1,3-1.3c2.6-0.6,5.2-0.8,7.8-0.5c-0.5-3.4-3.6-6.1-6.9-6.8
				c-3.4-0.7-6.9,0.2-10,1.7c-0.2,0.1,2.4,6,2.7,6.6c0.3,0.6,0.7,2.4,1.6,2.3C435.1,309.9,435.7,308.4,436.3,307.9z"/>
			<path class="st3" d="M468,301.3c-1.8,0.5-3.4,1.5-5.1,2.3c-5.1,2.4-11,3.4-16.6,2.9c-2.4-0.2-4.8-0.7-7.1,0
				c-1.9,0.6-3.4,1.9-4.6,3.4c-0.2,0.2-0.3,0.5-0.4,0.8c-0.1,0.4,0,0.7,0.1,1.1c1.1,4.1,1.3,8.5,1.8,12.7c0,0.3,0.1,0.6,0.2,0.9
				c0.2,0.3,0.4,0.5,0.7,0.6c1.2,0.8,2.7,1,4.1,1.2c2.3,0.4,4.7,0.7,7,0.5c1.9-0.2,3.8-0.8,5.6-1.3c2-0.6,4-1.3,6.1-1.9
				c1.6-0.5,3.2-1,4.6-1.8c2.1-1.2,7-2.5,8.6-4.3c0.2-0.2-2.8-0.7-2.8-0.9c0.1-0.2,0-0.5-0.1-0.7C468.7,311.7,468.6,306.6,468,301.3
				z"/>
			<path class="st3" d="M506.8,286.7c-1.8,0.4-3.4,1.2-5,2.2c-0.9-2.5-1.8-5.1-2.7-7.6c-0.3-0.8-0.5-1.5-1-2.2
				c-1.1-1.5-3-2.2-4.9-2.1s-3.6,0.7-5.3,1.4c-2.4,0.9-4.8,2-6.3,4c-1.8,2.4-2.2,7.5-2.3,10.5c0,0-4.7,4.1-11.6,8.7
				c-0.6,3.6-0.4,7.3,0.6,10.8c0.5,1.7,1.2,3.4,2,5c0.3,0.7,0.7,2.1,1.5,2c0.7,0,1.7-1.1,2.2-1.5c2.2-1.5,4.5-2.8,7-3.9
				c0.7,1.9,1.5,3.8,2.9,5.3c0.5,0.6,1.2,1.1,1.8,1.6c1.8,1.4,3.4,3.2,5.7,3.4c1.6,0.2,3.4-0.3,4.5-1.5c1.6,2.5,4.3,4.1,7.2,4.8
				c2.9,0.7,5.9,0.5,8.8-0.1c0-12.6-0.2-25.2,0-37.8c0-0.9,0.2-1.8-0.5-2.5C510.2,286.3,508,286.5,506.8,286.7z"/>
			<path class="st9" d="M332.9,446.3l-8.1,11.1c0,0,2.7,7,9,8.8c6.3,1.8,16.2,0,16.2,0s14.7-23.5,23.8-45.1s14.6-42,14.6-42
				l-14.6-3.9c0,0-8.1,17.8-21.1,41.8C339.7,440.9,332.9,446.3,332.9,446.3z"/>
			<path class="st9" d="M415.2,334.3l1-2c0,0,12.1,1.9,15.8,3.3c3.7,1.4,4.1,2.6,4.1,2.6s-2,10.5-4.5,14.9c-2.5,4.4-4.7,6.8-4.7,6.8
				s-2.1,26.4-4.7,43c-2.7,16.6-9.7,51.9-9.7,51.9s-4.9,2.5-12.3,0.7c-7.4-1.8-9.6-5.6-9.6-5.6s7-8.7,13.6-37.7
				c6.6-29,4-35.9,4-35.9s3.8-8.3,3.9-16.4c0-8.1,1.2-15.3,1.1-18.7S415.2,334.3,415.2,334.3z"/>
			<path class="st10" d="M345.5,467.2c-5.8,0.2-11.6-1.1-16.7-3.6c-1-0.5-2-1-2.8-1.8c-0.9-0.8-1.5-1.9-2.1-3
				c-4-7.2-8.1-14.7-14.8-19.5c-4.6-3.3-10.1-5.1-15.6-6.1c-4.6-0.9-9.4-1.3-13.8,0.4c-4,1.5-7.3,4.8-9.1,8.7
				c-1.8,3.9-2.2,8.4-1.3,12.6c0.9,4.4,3.2,8.4,5.7,12.2c3.6,5.6,7.7,11.1,12.8,15.4c5.1,4.3,11.4,7.5,18,8.2
				c2.8,0.3,5.7,0.1,8.6,0.3c3,0.2,6,0.8,8.9,1.2c5.4,0.7,10.8,0.6,16.1-0.2c2-0.3,4.2-0.8,5.7-2.2c1.5-1.5,2-3.7,2-5.7
				c0.1-3.1-0.5-6.3-1.8-9.1c-0.5-1-1.2-2-1.2-3.2C344.3,470.3,345.3,468.7,345.5,467.2z"/>
			<path class="st10" d="M411.5,458.9c-0.4-1-0.8-2.1-1.1-3.1c-3.2,0.2-6.5,0.4-9.7-0.1c-3.2-0.5-6.4-1.8-8.6-4.1
				c-1,0.4-2,0.7-2.8,1.5s-1.3,1.9-0.9,2.9c-4.9,0.1-9.3,3.6-11.6,8c-2.3,4.4-2.6,9.5-2.1,14.4c4.6,2.9,9.8,4.7,15.2,5.5
				c1,0.2,2.1,0.3,3.1,0c1-0.3,2-1,2.2-2c14.7,8,32.4,10.9,48.5,6.4c2.1-0.6,4.3-1.4,5.8-3c0.8-1,1.4-2.2,1.8-3.4
				c0.9-2.6,1.5-5.3,1.2-8c-0.2-2-1-3.9-1.8-5.7c-1.8-3.9-4.1-7.7-7.5-10.2c-3.3-2.4-7.5-3.5-11.7-3.6c-3.8-0.1-7.3,0.8-11,1.6
				C419.4,456,411.5,458.8,411.5,458.9z"/>
			<path class="st11" d="M573.3,313.3c0,0,1,24.1-2.1,28.6s-16,10.3-28.8,10.3c-12.8,0-25.3-6.1-27-7.7s-3.7-7.7-3.7-7.7v-3.5
				c0,0-6,1.2-7.3,0.9c-1.3-0.3-2.9-3-2.9-3v-3.8c0,0,3.3,1.5,6.4,1c3.1-0.5,3.8-1.5,3.8-1.5l0-40.2c0,0-3.4-0.3-6.3,0.4
				c-2.9,0.7-3.8,1.1-3.8,1.1l-1.6-5.4c0,0,0.1-4.1,2.3-4.9c2.2-0.8,8.9-0.9,8.9-0.9s0.1-6.1,3.9-8.5c3.8-2.4,18.9-3.9,29.2-3.9
				c10.2,0,25.6,2,27.7,6.2C574,275,573.3,313.3,573.3,313.3z"/>
			<path class="st10" d="M525,268.9c0,0,5.8-1.5,17.7-0.9s20,2,20.3,2.1c0.3,0.1,4.6,2.4,3.7,5c-1,2.6-5.3,6-15.7,6.7
				c-10.5,0.7-19.1,0-22.6-1.5c-3.5-1.5-9.9-3.2-11.1-5.2c-1.1-2-1-3.1,1.2-4.4C520.7,269.6,525,268.9,525,268.9z"/>
			<g>
				<g>
					<path d="M328.3,189.6c-4.4-12.1-4.3-22.9-1.7-36.3c0.4-2.2,0.9-4.5-0.1-6.3c-0.4-0.7-0.9-1.2-1.3-1.9c-1.3-2.3,0.3-6,3.1-7.8
						c2.8-1.8,6.4-1.8,8.7-0.1c-0.3-2.5-3.7-3.2-5.1-5.2c-1.1-1.6-0.8-4,0.3-6c2.4-4.1,7.7-6.3,12.1-5.7c4.4,0.6,7.9,3.4,10.7,6.6
						c-0.3-1.8-0.7-3.7-1-5.5c-0.2-1.3-0.5-2.7,0-4c1-3.3,5.7-4.8,8.9-3.5c3.1,1.3,4.9,4.5,5.9,7.7c1.7-2.1,1.3-5,1.9-7.6
						c0.9-3.8,4.4-7,8.4-8.1c4-1.1,8.4-0.3,12.2,1.5c5.9,2.8,10.5,8,11.9,13.8c1.5-2.2,1.5-5,2.7-7.4c2.4-5,10-6.8,15.9-4.2
						c6,2.7,9.5,8.9,7.8,13.9c1.7-1.8,3.4-3.5,5.1-5.2c0.4-0.4,0.8-0.8,1.4-1.1c1.3-0.6,3-0.3,4.5,0.3c4.5,1.8,7.2,5.6,8.7,9.3
						c4.1,10,1.2,21.2-7.4,29.6c4.4-1.8,8.5-4,12.1-6.5c2.1,5.4-2.6,11.1-7.6,15.5c-1.6-2.9-3.8-5.7-6.4-8.1
						c-17.8,7.6-41.1,4.6-54.3-7.6c-3.4-3.2-29.7,1.4-28.9,24.3c-0.1,2.5-1.7,4.8-2.6,7.2c-1.5,3.8-1.3,7.8-0.3,11.5
						c1.1,3.7,3.1,8.1,5.1,11.6c-1.8,0.5-4.2,1.4-6,1.9C346.8,194.3,338.2,190.1,328.3,189.6z"/>
					<path d="M369.8,226.9c-0.9,1.7-2.6,3-4.6,3.4c2.4,8.7,7.7,16.9,14.7,22.9c3.1-3.1,7.6-5,12.2-5.1c4.6-0.1,9.2,1.7,12.6,4.8
						c3.6-2.2,8.2-2.7,12.1-1.3c3.9,1.4,7.1,4.7,8.4,8.8c7.9-5,14.1-14,16.5-23.6c-10,3.4-20.3,3.8-30.6,3.1
						c-4.5-0.3-8.7-1.3-13.2-2.1c-4.6-0.8-9.2-2.1-13.7-3.8C383.1,233.7,369.5,227.5,369.8,226.9z"/>
					<path d="M406.7,276.9c-2.4,0-5-0.1-7.6-0.4c-42.8-4.4-58.1-35.3-60.1-42.7c-7.4,2.1-18.3-0.2-26.4-13.8
						c-4-6.8-4.1-15.1-0.2-21.7c3.9-6.5,10.7-10,18.7-9.7c16.4,0.9,21.8,13.8,22.7,16.3l-0.9,0.4l-0.1,1l-0.9-0.7
						c-0.8-2.4-5.8-14.1-20.8-15c-7.3-0.3-13.4,2.9-16.9,8.7c-3.5,6-3.5,13.5,0.2,19.6c7.8,13.2,18.4,15,25.1,12.6c0,0,0,0,0,0
						c0.5-0.2,1.1,0.1,1.3,0.6c0.1,0.2,0.1,0.4,0.1,0.5c0.5,1.9,12.1,37.1,58.4,41.9c33,3.4,52.4-16.6,56.8-30
						c2.1-6.3,1.1-11.4-2.5-13.5c-0.4-0.2-0.6-0.7-0.5-1.2c0.1-0.4,13.7-44.2-14.4-76.5l1.5-1.3c26.8,30.9,16.7,71.7,15.1,77.7
						c4,2.9,5,8.6,2.8,15.5C453.8,258.1,436.3,276.9,406.7,276.9z M340.3,233.4C340.3,233.4,340.3,233.4,340.3,233.4
						C340.3,233.4,340.3,233.4,340.3,233.4L340.3,233.4z"/>
					<g>
						<path d="M321.3,212.1c-0.4-2.1-0.3-4.2,0.7-6.2c1-1.9,2.8-3.2,5.1-3.7c2.3-0.5,5.1,0.4,7.1,1.5c2.1,1.2,3.9,2.7,5.1,4.7
							c0.6,1.1,1.1,2.4,1.4,3.7c0.3,1.2,0.2,2.3,0.2,3.4c0,0.2,0.4,0.2,0.5,0.1c0.6-0.8,0.5-2.1,0.4-3c-0.1-1.3-0.5-2.6-1-3.9
							c-0.9-2.6-2.2-4.8-4.7-6.2c-2.6-1.5-5.6-2.1-8.5-1.5c-2.4,0.5-4.7,1.8-5.9,3.7c-1.4,2.2-1.3,5-0.7,7.4
							C321.1,212.2,321.3,212.2,321.3,212.1C321.3,212.1,321.3,212.1,321.3,212.1z"/>
					</g>
					<g>
						<path d="M341.5,213.4c-0.3-2.1-1.6-4.5-4.1-4.5c-2.2,0-4.2,1.7-4.9,3.6c-0.6,1.6-0.7,3.3-0.5,5c0.2,1.5,0.8,3.2,2.1,4.3
							c0.7,0.6,1.6,1,2.5,1c1.1,0.1,2.4-0.2,3.1-1c0.3-0.3-0.2-0.7-0.5-0.6c-0.7,0.1-1.5,0.4-2.2,0.3c-0.5,0-1-0.2-1.4-0.5
							c-1-0.8-1.5-2.1-1.8-3.3c-0.3-1.4-0.4-2.8-0.1-4.2c0.3-1.5,1.1-3.1,2.5-3.8c2.4-1.2,4.4,1.7,5,3.6
							C341.4,213.5,341.5,213.5,341.5,213.4L341.5,213.4z"/>
					</g>
					<g>
						<path d="M348,224.4c-0.3,0.4-0.5,0.9-0.8,1.3c-0.2,0.4-0.6,0.7-0.9,1.1c-0.8,0.7-1.6,1.5-2.5,2.1c-0.1,0.1-0.1,0.1,0,0
							c-0.1,0-0.1,0.1-0.2,0.1c-0.1,0.1-0.3,0.2-0.4,0.2c-0.2,0.1-0.4,0.3-0.7,0.4c-0.5,0.3-0.9,0.6-1.4,0.9c-0.5,0.3-1.1,0.6-1.5,1
							c0.2-0.1-0.5,0.5-0.2,0.2c-0.1,0.1-0.2,0.1-0.3,0.2c-0.2,0.2-0.4,0.4-0.5,0.6c-0.3,0.7,0.6,1.1,1.3,1c0.5-0.1,0.8-0.2,1.3-0.4
							c0.1,0,0.3-0.1,0.3-0.2c-0.5,0.2-0.5,0.2,0,0c0.2,0,0.3-0.1,0.5-0.2c0.5-0.2,1-0.5,1.4-0.8c0.5-0.3,1.1-0.7,1.5-1.1
							c0.4-0.4,0.8-0.7,1.2-1.1c0.8-0.8,1.5-1.7,1.8-2.6c0.3-0.8,0.6-1.9,0.2-2.7C348.2,224.3,348,224.3,348,224.4
							C348,224.4,348,224.4,348,224.4z"/>
					</g>
					<g>
						<path d="M356.6,228.6c1.7,1.3,3.6,2.5,5.7,2.6c2.4,0.1,4.7-0.7,6.4-2.1c1.5-1.2,2.9-3,3.3-5c0.4-1.9-0.3-4.1-1.5-5.7
							c-0.1-0.1-0.3,0-0.2,0.1c0.3,0.9,0.5,1.7,0.5,2.6c0,0.8-0.4,1.7-0.7,2.5c-0.6,1.6-1.4,3-2.6,4.1c-1.4,1.2-3.1,1.9-5,1.9
							c-2,0-3.9-0.3-5.7-1.2C356.7,228.4,356.4,228.5,356.6,228.6C356.6,228.6,356.6,228.6,356.6,228.6z"/>
					</g>
					<path d="M407.6,266.3c-1,0-2,0-3-0.1c-30.6-3.1-40.4-35.5-40.5-35.8c-0.1-0.4,0.1-0.9,0.5-1.1c0.4-0.2,0.9-0.2,1.2,0.1
						l-0.7,0.8l1-0.2c0.1,0.3,9.7,31.2,38.6,34.2c21.5,1.6,31.7-15.1,36.1-26c-34.2,8.3-59-2.6-70.8-9.9c-0.4-0.2-0.6-0.4-0.7-0.4
						l0.4-0.9l-0.1-0.1l-1,0l0.5-0.9c0.6-0.3,0.9-0.1,2,0.5c11.8,7.3,36.6,18.1,71,9.2c0.1,0,0.2-0.1,0.3-0.1c0.4,0,0.8,0.2,1,0.5
						c0.2,0.3,0.2,0.6,0.1,0.9c0,0.1-0.1,0.1-0.1,0.2c0,0.1-0.1,0.3-0.2,0.5C439.1,248.6,429.1,266.3,407.6,266.3z M365.1,230.1
						l-0.7,0.8L365.1,230.1z"/>
					<g>
						<path d="M409.4,258.2c-2.9-5.2-8.1-9.1-13.8-10.3c-2.9-0.6-5.8-0.6-8.5,0.3c-2.7,0.8-5.7,2.3-7.5,4.4c-0.8,1,1,1.6,1.7,0.9
							c1.5-1.8,4.2-3.1,6.5-3.8c2.6-0.8,5.4-0.8,8-0.3c5.4,1.1,10.3,4.4,13.6,8.9C409.3,258.3,409.5,258.2,409.4,258.2L409.4,258.2z
							"/>
					</g>
					<g>
						<path d="M404.8,253c0.9-0.1,1.8-0.5,2.7-0.9c1.1-0.5,2.3-0.8,3.5-0.8c2,0,4.2,0.8,6,1.5c1.8,0.7,3.6,1.7,4.9,3.3
							c0.6,0.8,1.1,1.7,1.7,2.5c0.4,0.7,0.8,1.5,1.6,1.7c0.4,0.1,1.1-0.2,1.2-0.7c0.1-0.9-0.8-1.7-1.2-2.4c-0.6-0.9-1.1-1.8-1.8-2.6
							c-1.5-1.6-3.4-2.6-5.5-3.3c-2.1-0.7-4.4-1.3-6.6-1.1c-2.3,0.2-4.4,1.4-6.4,2.5C404.6,252.7,404.6,253,404.8,253L404.8,253z"/>
					</g>
					<g>
						<path d="M409.9,168.6c-2.7-2.3-5.5-4.5-8.5-6.1c-1.5-0.9-3-1.6-4.5-2.1c-1.5-0.6-3-0.9-4.4-0.9c-1.4,0-2.6,0.5-3.6,1.2
							c-1,0.7-1.9,1.6-3,2.6c-1.1,1-2,2.2-3.2,3.5c-0.5,0.7-1.1,1.3-1.7,2c-0.6,0.7-1.1,1.4-1.9,2.1c-0.2-0.1-0.4-0.1-0.6-0.2
							c-0.6-3.9,0.2-7.8,2.5-11.3c1.2-1.7,2.9-3.3,5.1-4.2c2.2-0.8,4.5-0.9,6.6-0.6c4.3,0.7,7.5,3,10.3,5.4c2.8,2.5,5.2,5.2,7.2,8.2
							C410.2,168.4,410.1,168.5,409.9,168.6z"/>
					</g>
					<g>
						<path d="M436.3,174.2c0.1-2.2,0.4-4.3,0.8-6.5c0.5-2.1,1-4.3,2.8-6.3c0.5-0.5,1-1,1.9-1.3c0.4-0.2,0.9-0.2,1.3-0.3
							c0.4,0,0.9,0,1.3,0.1c1.7,0.4,2.7,1.4,3.5,2.3c0.7,1,1.3,2,1.7,3c0.4,1,0.6,2.1,0.7,3.3c-0.1,0.1-0.2,0.1-0.3,0.2
							c-1.8-1.4-3.2-3-4.7-4.3c-0.7-0.6-1.4-1.1-1.8-1.3c-0.1-0.1-0.2-0.1-0.3-0.1c-0.1,0-0.2-0.1-0.3,0c-0.2,0-0.6,0.2-0.9,0.4
							c-0.6,0.5-1.2,1.3-1.7,2.2c-0.5,0.9-1,1.8-1.4,2.8c-0.9,1.9-1.5,4-2.2,6C436.5,174.2,436.4,174.2,436.3,174.2z"/>
					</g>
					<g>
						<path d="M382.3,145.1c3,6,9.4,10.4,16.2,13.1c6.9,2.8,14.6,3.9,22.3,3.7c14.3-0.4,30.6-6,37.1-16.5c3.9-6.3,3.3-13.9-0.7-20.3
							c-0.1-0.2-0.6-0.1-0.5,0.1c1,3.3,2.1,6.5,1.9,9.8c-0.2,2.7-0.8,5.5-2.1,8.1c-2.5,4.9-7.2,8.9-13,11.8
							c-12.3,6.2-28.5,7.2-41.6,3.1c-8.1-2.5-14.3-7.2-19.3-13C382.5,145,382.3,145,382.3,145.1L382.3,145.1z"/>
					</g>
					<g>
						<path d="M327.6,147.8c0.1,1.4-0.6,2.9-1.2,4.2c-0.6,1.7-1.1,3.4-1.5,5c-0.7,3.7-0.8,7.3-0.7,10.9c0.1,3.7,0.4,7.3,0.8,10.9
							c0.5,3.6,0.8,7.4,2,10.8c0.3,0.9,2.8,0.4,2.5-0.5c-1.2-3.5-1.7-7.2-2.2-10.8c-0.5-3.6-0.9-7.3-1-11.1
							c-0.1-3.8,0.1-7.7,0.5-11.6c0.2-1.5,0.4-3,0.9-4.5c0.3-1.1,0.8-2.5,0.3-3.4C327.8,147.6,327.6,147.7,327.6,147.8L327.6,147.8z
							"/>
					</g>
					<g>
						<path d="M327.5,147.1c0-0.6-0.9-1.1-1.3-1.4c-0.6-0.5-1.1-1-1.5-1.6c-0.9-1.3-0.9-3-0.3-4.7c0.5-1.5,1.7-2.8,3-3.8
							c1.5-1,3-1.4,4.6-1.5c0.5,0,1.1-0.8,0.4-0.9c-3.5-0.3-7.6,2.5-9.1,5.8c-0.8,1.9-0.9,3.8,0,5.3c0.4,0.7,1,1.3,1.6,1.8
							c0.6,0.5,1.4,1.2,2.3,1.1C327.4,147.2,327.5,147.1,327.5,147.1L327.5,147.1z"/>
					</g>
					<g>
						<path d="M332.2,132.6c0.1-0.6-0.2-1.2-0.4-1.7c-0.1-0.7-0.2-1.3-0.2-2c0.1-1.6,0.7-3.2,1.5-4.7c1.5-2.8,3.8-5.5,6.7-7.1
							c2.3-1.2,4.8-1.6,7-0.9c2.5,0.8,4.1,2.6,5.8,4.5c0.3,0.3,1.5,0,1.3-0.6c-1.4-4.2-6.4-6.4-11-5.6c-5.3,0.9-9.8,5.7-11.7,10.5
							c-0.6,1.4-0.9,2.9-0.8,4.3c0.1,1.2,0.4,2.9,1.6,3.4C332.1,132.7,332.2,132.7,332.2,132.6C332.2,132.6,332.2,132.6,332.2,132.6
							z"/>
					</g>
					<g>
						<path d="M353.4,121c0.4-2.4,0-4.8,1.1-7.2c1-2.1,3-3.9,5.3-4.6c2-0.6,4-0.2,5.7,0.7c1.9,1.1,3,2.8,4.1,4.6
							c0.3,0.5,1.4,0.2,1.3-0.4c-0.3-3.8-4.5-6.4-8.1-6.7c-4.2-0.3-8.7,2.5-10.1,6.6c-0.8,2.3-0.5,5,0.5,7
							C353.3,121.1,353.4,121,353.4,121L353.4,121z"/>
					</g>
					<g>
						<path d="M370.4,114.4c-0.1,0.2,0,0.2-0.1,0.4c0.1,0,0.2,0,0.4-0.1c-0.4-0.3-0.2-1.9-0.2-2.3c0.1-0.8,0.2-1.6,0.5-2.3
							c0.5-1.5,1.4-2.9,2.4-4.2c2.1-2.5,4.9-4.4,7.9-5.5c6.1-2.2,13.3-0.1,17.9,4.4c2.9,2.8,4.1,6.2,5.6,9.6c0.2,0.4,1.2,0.5,1.2,0
							c0.3-6.8-6.7-13.5-13.7-15.6c-7.6-2.3-15.5,0.4-20.2,6.3c-1.2,1.5-2.2,3.3-2.5,5.2c-0.2,0.9-0.2,1.8,0,2.7
							c0.1,0.5,0.2,1.7,0.8,1.9c0.1,0,0.3,0,0.4-0.1c0-0.1,0-0.3,0-0.4C370.8,114.3,370.5,114.3,370.4,114.4L370.4,114.4z"/>
					</g>
					<g>
						<path d="M405.3,114.5c0.2,0.3,0.4,0.1,0.6-0.1c0.2-0.3,0.2-0.8,0.2-1.2c0.1-0.6,0.2-1.2,0.3-1.8c0.9-3.4,2.8-6.1,6.5-7.3
							c6.2-2.1,13.3,1.3,17.3,6.2c1,1.3,1.9,2.6,2.3,4c0.5,1.4,0.2,2.7,0.6,4.1c0.1,0.6,1.3,0.5,1.6,0.1c1.3-2.1-0.4-5.3-1.9-7.3
							c-1.8-2.4-4.3-4.5-7.2-6.1c-6-3.5-13.4-3.4-17.7,0.9c-1.2,1.2-1.9,2.6-2.4,4.3c-0.2,0.8-0.4,1.6-0.3,2.5
							c0,0.4-0.1,1.4,0.2,1.6C405.4,114.3,405.2,114.3,405.3,114.5C405.3,114.5,405.3,114.5,405.3,114.5z"/>
					</g>
					<g>
						<path d="M434.6,118.6c0.3-2.4,3.4-3.1,6-3.4c2.1-0.2,4.5-0.3,6.7,0.6c5.2,2.2,8,7.3,9.4,11.2c1.3,3.7,1.5,7.4,2.1,11.1
							c0.1,0.5,1.3,0.4,1.4,0c0.8-3.7,0.2-7.6-1.1-11.3c-1-2.8-2.5-5.6-4.8-8.1c-1.7-1.8-3.8-3.4-6.4-4.3c-2.6-0.9-5.6-0.8-8.1-0.4
							c-2.5,0.5-6.2,1.9-5.6,4.5C434.1,118.8,434.5,118.8,434.6,118.6L434.6,118.6z"/>
					</g>
					<g>
						<path d="M446.9,163.9c0,0.2-0.2,0.2-0.3,0.3c-0.1,0.1-0.1,0.1,0,0.2c0.7,0.9,3.9-1.9,4.4-2.4c1.3-1.2,2.5-2.5,3.3-3.9
							c0.8-1.4,1.2-2.8,1.4-4.3c0.1-0.8,0.2-1.7,0.2-2.5c0.1-0.9,0.1-2-0.4-2.8c-0.5-0.8-2.8-0.5-2.9,0.4c-0.1,0.8,0.3,1.7,0.5,2.5
							c0.2,0.7,0.3,1.4,0.4,2.1c0.1,1.3-0.3,2.7-0.9,3.9c-0.6,1.3-1.4,2.4-2.4,3.5c-0.6,0.6-1.2,1.1-1.8,1.7c-0.3,0.3-0.7,0.7-1,1
							c-0.1,0.1-0.5,0.4-0.4,0.4c0.1,0.3,0.3,0,0.3-0.2C447.2,163.8,446.9,163.8,446.9,163.9L446.9,163.9z"/>
					</g>
					<path d="M346,356.6c0.5,1.2,1.2,2.2,1.8,3.3c0.7,1.1,1.3,2.1,2.3,3c1.5,1.5,3.6,2.4,5.7,2.7c1.9,0.3,3.9,0.2,5.6-0.8
						c1.8-1,2.8-2.9,2.9-5c0-1.3-0.5-2.5-1.3-3.4c-0.9-1-2.1-2.1-3.3-2.5c-0.4-0.1-1.2,0.1-0.9,0.7c0.5,0.8,1.5,1.4,2.1,2
						c0.6,0.7,1.2,1.4,1.3,2.3c0.3,1.7-0.3,3.6-1.7,4.6c-2.7,1.7-6.7,0.6-9.1-1.2c-1-0.8-2-1.7-2.8-2.7c-0.8-1-1.5-2.2-2.4-3.2
						C346.1,356.5,346,356.5,346,356.6L346,356.6z"/>
					<path d="M348.9,360.3c0.1,1.5,0.1,3.1,0.6,4.5c0.5,1.6,1.9,2.9,3.2,4c3.2,2.5,7.1,3.6,10.9,4.5c5.1,1.3,10.2,2.2,15.2,3.9
						c4.6,1.5,9.3,3,13.9,4.5c3.9,1.2,8.2,2.1,11.7-0.6c2.8-2.1,5-5.7,6.3-9c1.5-3.8,1.7-8,1.9-12.1c0.2-4.2,0.1-8.4,0.4-12.6
						c0.2-2.7,0.5-5.4,1.1-8.1c0.3-1.2,0.7-2.4,1.1-3.6c0.5-1.2,1.1-2.2,1.8-3.3c0.8-1.4,1.3-3,0-4.3c-1.3-1.3-3.4-1.8-5.2-2.1
						c-1-0.2-1.6,1.1-0.5,1.3c1.5,0.2,3.6,0.6,4.6,1.8c1.3,1.5-0.7,3.6-1.5,4.9c-1.8,3.4-2.4,7.6-2.8,11.4
						c-0.7,7.6,0.2,15.4-2.1,22.8c-1,3.4-2.5,6.6-4.9,9.4c-1.1,1.2-2.4,2.5-4,3c-1.9,0.6-4.1-0.1-6-0.5c-8.7-2.2-17.2-5.6-26.1-7
						c-4.4-0.7-9.1-1.6-13-3.8c-1.8-1-3.8-2.4-4.9-4.3c-0.9-1.5-1.1-3.3-1.7-4.9C349.1,360.2,348.9,360.2,348.9,360.3L348.9,360.3z"
						/>
					<path d="M317.7,346.3c-2.3,6.3-2.6,13.6-0.2,19.9c1.2,3.1,3.2,5.9,5.8,8c1.4,1.1,2.9,1.9,4.6,2c1.7,0.1,3.5-0.3,5.2-0.6
						c0.9-0.2,0.7-1.3-0.2-1.3c-1.6,0-3.1,0.6-4.7,0.5c-1.8,0-3.3-1.1-4.6-2.3c-2.4-2.2-4.1-5-5.1-8c-2-5.8-1.6-12.2-0.6-18.2
						C318,346.2,317.7,346.2,317.7,346.3L317.7,346.3z"/>
					<path d="M329.5,366.8c-0.2,1.4,0.2,2.9,0.7,4.1c0.5,1.4,1.2,2.8,2.1,4c1.9,2.5,5.3,3.8,8.4,3.3c0.9-0.2,1.8-0.5,2.6-1
						c0.7-0.4,1.7-1,1.7-1.9c0-0.5-0.7-0.5-1-0.4c-0.8,0.3-1.4,1.1-2.2,1.5c-0.8,0.4-1.6,0.6-2.4,0.6c-1.7,0-3.4-0.6-4.7-1.6
						c-1.2-1-2.2-2.4-2.9-3.8c-0.8-1.4-1.9-3.1-1.9-4.8C329.8,366.6,329.5,366.6,329.5,366.8L329.5,366.8z"/>
					<path d="M339.9,366c1.3,4.7,2.6,10.4,7.7,12.4c5.3,2,11.4-1.1,12.6-6.7c0.2-0.9-1.5-1.2-1.7-0.4c-1.1,4.8-6.3,8.1-10.9,5.5
						c-2-1.1-3.2-3-4.3-4.9c-1.1-1.9-2-4-3-6C340.1,365.8,339.8,365.8,339.9,366L339.9,366z"/>
					<path d="M342.9,342.5c0.4,0.5,1.3,0.6,1.9,0.6c0.9,0.1,1.8,0.1,2.7,0.3c2.1,0.4,3.6,3.1,4.5,4.9c0.9,1.8,2,3.4,3.7,4.6
						c1.7,1.2,3.6,2,5.2,3.3c0.3,0.2,0.8,0.1,0.7-0.3c-0.4-2-3.2-2.7-4.7-3.7c-1.9-1.3-2.8-3.1-4-5.1c-1-1.8-2.5-4-4.6-4.6
						c-1.6-0.5-3.8-0.5-5.5-0.2C342.9,342.3,342.8,342.4,342.9,342.5L342.9,342.5z"/>
					<path d="M385.3,278.2c0-0.8,0-1.7-0.2-2.4c-0.2-0.7-0.7-1.6-1.1-2.1c-1.1-1.5-2.8-2.5-4.4-3.3c-3.5-1.8-7.4-2.6-11.2-2.9
						c-5.8-0.4-11.9,0.2-17.7,1c-5.9,0.8-11.9,1.9-17.7,3.5c-4.8,1.3-10.4,3-13.7,7c-1,1.3,1.6,2.1,2.5,1.1
						c2.6-3.2,7.3-4.7,11.1-5.8c5-1.5,10.2-2.6,15.3-3.4c6-1,12-1.6,18-1.6c3.4,0,6.8,0.6,9.9,1.7c1.9,0.6,3.6,1.5,5.2,2.7
						c1.5,1.1,3.1,2.7,3.6,4.5C385.1,278.4,385.3,278.4,385.3,278.2L385.3,278.2z"/>
					<path d="M322.7,336.3c-0.9-1.9-2-3.6-2.7-5.5c-0.4-1-0.7-2-1.1-3c-0.3-0.8-0.9-2.1-0.9-3c-1.4-4.2-2.3-8.4-2.7-12.7
						c-0.6-5.9-1.2-13.5,2.8-18.2c1.2-1,2.6-1.9,4.2-2.3c2-0.5,4,0.2,5.7,1.3c3.1,2,5.5,5.5,6.2,9.1c0.9,4.7-0.5,9.5-1,14.1
						c-0.5,4.5-0.7,9.1,0.1,13.6c0.7,3.9,2.4,7.5,4.1,11.1c0.3,0.7,0.7,1.5,1.4,1.8c0.4,0.2,0.8,0.2,1.3,0.3
						c1.7,0.1,3.4,0.2,5.1,0.3c0.8,0.1,1.6,0.1,2.3,0c0.2,0,0.3-0.1,0.4-0.2c0.1-0.2-0.2-0.4-0.4-0.5c-2-0.6-4.2-0.2-6.3-0.8
						c-0.4-0.1-0.9-0.3-1.2-0.6c-0.2-0.2-0.4-0.5-0.5-0.8c-1.2-2.2-2.5-4.5-3.4-7c-0.8-2.3-1.2-4.8-1.3-7.2
						c-0.2-2.6-0.1-5.3,0.1-7.9c0.4-5.3,2.1-10.9,1.2-16.2c-0.8-4.4-3.8-8.9-7.9-10.9c-1.9-0.9-4.2-1.3-6.3-0.8
						c-2.2,0.6-3.8,1.9-5.4,3.5c-0.2,0.2-0.1,0.4,0.1,0.5c-3.6,4.3-3.7,10.6-3.2,16.2c0.4,4.7,1.3,9.3,2.7,13.8
						c0.6,1.9,1.1,4,1.8,5.9c0.9,2.1,1.8,4.2,2.7,6.3c0.2,0.6,0.5,1.1,0.4,1.7c0,0.7-0.4,1.3-0.8,1.8c-0.9,1.5-1.8,3-2.4,4.7
						c-1,2.5-1.3,5.3-1.6,8c-0.2,2.1-0.3,4.4,1,6.1c-0.4-4.5,1.1-10.3,1.4-11.6c0.6-2.2,1.6-4.2,2.9-6.1c0.8-1.1,1.8-2.1,1.7-3.4
						c0-0.5-0.3-1-0.5-1.4C322.8,336.4,322.7,336.3,322.7,336.3z"/>
					<path d="M316.2,287.3c-2.4,0.7-4.6,2.9-6.1,4.8c-1.3,1.7-2,3.6-2.1,5.7c0,1.8,0.3,3.7,1.1,5.3c0.8,1.4,2.5,2.9,4.2,2.4
						c0.8-0.2,0.9-1.2,0-1.4c-0.7-0.2-1.2-0.1-1.8-0.5c-0.5-0.4-0.8-1-1.1-1.6c-0.6-1.4-0.9-3-0.8-4.6c0.1-1.8,0.8-3.4,1.7-5
						c0.6-1,1.4-1.9,2.2-2.8c0.8-0.9,1.8-1.5,2.7-2.3C316.4,287.4,316.3,287.3,316.2,287.3L316.2,287.3z"/>
					<path d="M309.9,292.4c0.1-1.3,0.1-2.8,0.4-4.1c0.3-1.3,1.1-2.3,2.1-3.2c2.7-2.5,6.4-4,10.1-4.1c3.8-0.1,7.7,1.4,11.1,2.9
						c3,1.3,5.4,3.1,7.5,5.6c1.2,1.5,2.3,3.2,2.4,5.2c0.2,2-0.7,3.9-1.6,5.6c-0.3,0.5,0.7,0.5,0.9,0.3c2.8-3,3.5-6.4,1.3-10
						c-2-3.2-5-5.8-8.4-7.5c-3.8-1.8-8.2-3.4-12.4-3.6c-4-0.2-8.5,1.3-11.5,3.9c-1.3,1.1-2.5,2.4-3.1,4c-0.5,1.7-0.2,3.3,0.1,5
						C309,292.9,309.9,292.8,309.9,292.4L309.9,292.4z"/>
					<path d="M335.9,291.4c1.7,3.4,4.9,6.4,5.1,10.4c0.1,1.7-0.4,3.4-1.4,4.7c-1.1,1.5-2.4,2.2-4.2,2.2c-0.9,0-1.3,1.2-0.2,1.3
						c4.2,0.6,7.3-3.3,7.7-7.2c0.2-2.2-0.6-4.4-1.7-6.2c-1.3-2-3.3-3.6-4.8-5.4C336.2,291.2,335.8,291.3,335.9,291.4L335.9,291.4z"
						/>
					<path d="M344.2,294.2c1.5-0.3,2.9-1,4.3-1.8c1.6-0.9,3.2-1.5,5-1.9c3.7-0.8,7.2-0.3,10.9,0.1c3.3,0.4,6.8,1,10.1,0.5
						c2.5-0.4,4.7-1.9,6.2-3.9c0.3-0.4-0.4-0.5-0.6-0.3c-1.2,0.9-2.5,1.6-3.9,2c-1.3,0.3-2.6,0.3-3.9,0.3c-3.6,0-7.1-0.6-10.6-0.7
						c-3.4-0.1-6.7,0-10,1.1c-2.9,0.9-5.3,2.6-7.8,4.2C343.6,294,344,294.2,344.2,294.2L344.2,294.2z"/>
					<path d="M335.6,310.7c3.3,0.5,6.7,0.5,10,0.8c3.5,0.3,7,0.5,10.4,0.8c7,0.5,13.9,1.1,20.9,1.2c8.7,0.2,18.3-1.4,26.7,1.8
						c3.4,1.3,6.4,3.7,7.1,7.5c0.6,3.4-0.6,6.8-1.4,10c-0.9,3.3-1.6,6.5-2.7,9.8c-1,3.2-2.3,6.3-3.1,9.6c-0.7,3.1-1.1,6.2-1.5,9.4
						c-0.2,2-0.6,4.1-0.8,6.1c-0.1,1.3-0.1,3.3,1.3,3.8c2.7,1,3.8-4.6,4.2-6.1c0.8-2.9,1.1-5.8,1.6-8.8c0.1-0.5-0.9-0.5-1,0
						c-0.4,2.5-1.1,5-1.6,7.4c-0.4,1.6-0.8,3.1-1.4,4.6c-0.2,0.5-0.4,1-0.8,1.5c-0.3,0.4-0.3,0.6-0.5,0.2c-0.8-1.6-0.2-3.9,0.1-5.6
						c0.4-2.6,0.5-5.2,0.9-7.8c1-6.6,3.5-12.9,5.6-19.1c1.8-5.3,4.8-11.2,2.9-16.9c-1.1-3.3-4-5.5-7.2-6.8
						c-7.7-3.2-16.2-2.2-24.3-2.1c-7.7,0-15.3-0.5-22.9-1.1c-3.8-0.3-7.6-0.6-11.4-0.7c-3.7-0.1-7.4-0.4-11,0.1
						C335.3,310.2,335.3,310.6,335.6,310.7L335.6,310.7z"/>
					<path d="M411,320.6c-2.8-4-7.3,0.3-9.3,2.9c-3.7,4.8-5.7,10.8-7.2,16.6c-1.5,6.1-2.4,12.3-2.7,18.6c-0.2,5.3-0.1,10.8,1.2,16
						c0.9,3.4,3.7,9.1,8.2,7c0.6-0.3,0.2-0.9-0.3-0.9c-1.7,0-3-0.3-4.1-1.8c-1-1.4-1.6-3-2-4.7c-1.1-4.3-1.2-8.9-1.2-13.3
						c0-10.6,1.5-21.9,6-31.6c1.4-3,6.9-13.3,11.3-8.7C410.8,320.7,411,320.7,411,320.6L411,320.6z"/>
					<path d="M380.8,323.3c1.8,0.3,3.6,0.4,5.4,0.8c1.8,0.4,3.6,0.9,5.4,1.3c0.3,0.1,0.7-0.3,0.3-0.5c-1.8-0.7-3.6-1.2-5.5-1.5
						c-1.8-0.3-3.8-0.7-5.5-0.3C380.6,323.1,380.6,323.3,380.8,323.3L380.8,323.3z"/>
					<path d="M391.4,326.7c-1.9,3.9-3.1,8.2-4.1,12.4c-1,4.2-1.8,8.5-2.2,12.8c-0.4,4.4-0.5,8.8-0.3,13.3c0.1,2.1,0.3,4.3,0.5,6.4
						c0.3,2.2,0.5,4.6,1.4,6.7c0.2,0.5,1.2,0.4,1.1-0.2c-2.1-8.5-2.3-17.4-1.5-26.1c0.4-4.4,1-8.8,2-13.1c0.9-4.1,2.3-8.1,3.5-12.1
						C391.9,326.5,391.5,326.5,391.4,326.7L391.4,326.7z"/>
					<path d="M380.1,325c0.1,0.9-0.3,2-0.7,2.8c-0.5,1.2-1,2.4-1.5,3.5c-1.2,2.8-1.9,5.8-2.5,8.8c-0.7,4.1-1.2,8.2-1.6,12.3
						c-0.4,4.1,0.3,8.1,0.9,12.2c0.3,2,0.6,4,1,5.9c0.4,1.9,0.7,4,1.6,5.7c0.3,0.6,1.5,0.5,1.3-0.3c-0.5-2.1-1.2-4.2-1.6-6.4
						c-0.5-2.5-0.9-5.1-1.2-7.6c-0.4-2.6-0.8-5.2-0.7-7.8c0.1-2.6,0.5-5.2,0.7-7.8c0.4-4.6,0.8-9.5,2.5-13.9
						c0.6-1.5,1.2-2.9,1.7-4.4c0.3-0.9,0.8-2.2,0.4-3.1C380.4,324.8,380.1,324.8,380.1,325L380.1,325z"/>
					<path d="M369.7,345.3c-1.2,5.3-1.3,10.8-0.9,16.3c0.1,2.3,0.2,4.6,0.4,6.9c0.2,2,0.4,4.5,1.7,6.1c0.3,0.4,1.2,0.2,1.1-0.3
						c-0.2-1-0.6-2-0.8-3c-0.2-1.1-0.4-2.2-0.5-3.4c-0.2-2.3-0.3-4.5-0.5-6.8c-0.5-5.2-0.7-10.5-0.1-15.8
						C370.1,345.2,369.7,345.2,369.7,345.3L369.7,345.3z"/>
					<path d="M364.7,345.2c0.1,5-1.4,9.8-1.9,14.8c-0.2,2.3-0.5,4.6-0.6,6.9c0,1.1,0,2.3,0,3.4c0.1,0.9,0.1,1.9,0.6,2.7
						c0.3,0.4,1.2,0.4,1.3-0.1c0.2-1-0.1-2-0.2-3c-0.1-1.2-0.1-2.3-0.1-3.5c0.1-2.2,0.2-4.4,0.3-6.6c0.1-4.9,1.3-9.7,0.9-14.6
						C365.1,345,364.7,345,364.7,345.2L364.7,345.2z"/>
					<path d="M345.9,316.8c4.2,0.9,8.1,2.3,12.4,2.8c2.1,0.3,4.2,0.4,6.3,0.7c1.7,0.3,3.9,1.1,5.6,0.6c0.4-0.1,0.4-0.5,0-0.6
						c-1-0.2-2-0.2-3-0.4c-1-0.2-2-0.4-3-0.5c-2.1-0.2-4.1-0.4-6.2-0.6c-4.1-0.5-8-1.8-12.1-2.2
						C345.8,316.6,345.6,316.8,345.9,316.8L345.9,316.8z"/>
					<path d="M370,321.7c-0.8,0.9-1.1,2.2-1.5,3.3c-0.5,1.4-0.9,2.8-1.2,4.3c-0.3,1.4-0.5,2.8-0.6,4.2c-0.1,1.2-0.4,2.8,0,3.9
						c0.2,0.5,1,0.4,1.2,0c0.4-1.1,0.3-2.5,0.4-3.7c0.1-1.4,0.3-2.9,0.5-4.3c0.2-1.4,0.5-2.8,0.8-4.2c0.1-0.6,0.3-1.2,0.5-1.8
						c0.1-0.5,0.4-1.1,0.5-1.7C370.5,321.6,370.1,321.6,370,321.7L370,321.7z"/>
					<path d="M345.4,318.3c0.2,2.5-0.7,4.8-0.9,7.2c-0.1,1.4-0.1,2.8,0,4.3c0,0.7,0,1.4,0.1,2.1c0,0.7-0.1,1.6,0.2,2.2
						c0.2,0.3,0.6,0.3,0.7,0c0.4-0.6,0.2-1.5,0.2-2.2c0-0.7-0.1-1.4-0.1-2.1c-0.1-1.5-0.1-3,0-4.6c0.2-2.2,1.3-4.9,0-6.9
						C345.6,318.2,345.4,318.2,345.4,318.3L345.4,318.3z"/>
					<path d="M345.2,333c0.1,1.3,1.2,2.1,2.3,2.7c1.4,0.7,3,1.2,4.6,1.6c2.2,0.5,4.4,0.7,6.6,1.1c2.1,0.4,4.9,1.7,6.9,0.3
						c0.4-0.3,0-0.8-0.4-0.8c-1.1,0.1-2.1,0.2-3.3,0c-1-0.2-2.1-0.5-3.1-0.7c-2-0.3-4-0.4-6-0.9c-1.3-0.3-2.6-0.6-3.8-1
						c-1.2-0.4-2.9-1.1-3.6-2.3C345.4,332.9,345.2,332.9,345.2,333L345.2,333z"/>
					<path d="M314,305.9c-1.6-0.4-3.2-1.1-4.9-1.5c-1.7-0.4-3.4-0.9-5.1-1.4c-5.4-1.6-10.9-3.4-16.4-4.8c-2.1-0.5-4.3-0.9-6.4-0.5
						c-2.2,0.4-3.9,1.7-5.2,3.4c-2.8,3.5-4.1,8-5.3,12.3c-3,10.3-3.6,21-2.2,31.7c0.6,4.7,1.4,9.8,3.2,14.3c1.6,4,4.5,7.7,9.1,8.2
						c5.3,0.6,10.7-1.6,15.8-2.7c6.5-1.4,13.3-2.2,19.8-0.4c1.1,0.3,1.8-1.1,0.5-1.5c-5.1-1.4-10.5-1.3-15.8-0.5
						c-4.9,0.7-9.7,2.2-14.6,3.2c-2.1,0.4-4.5,0.8-6.6,0.2c-2.1-0.5-3.8-2.3-4.9-4.1c-2.4-3.8-3.2-8.7-4-13.1
						c-1.9-10.2-2-21,0.4-31.1c1-4.2,2.2-8.6,4.1-12.5c1-2,2.3-4.1,4.2-5.3c2-1.2,4.5-0.9,6.6-0.3c5.7,1.4,11.2,3.4,16.8,5.1
						c3.4,1,7.3,2.4,10.8,1.8C314.3,306.2,314.3,305.9,314,305.9L314,305.9z"/>
					<path d="M277.7,338.9c-0.6,4.8-0.4,9.7,0.9,14.4c0.7,2.2,1.3,4.6,2.4,6.6c1,1.7,2.3,3.4,3.6,4.9c0.2,0.3,1.1,0.2,0.9-0.3
						c-0.6-1.8-2.1-3.1-3.1-4.7c-1.2-2-1.8-4.4-2.5-6.6c-1.4-4.7-1.4-9.5-2-14.3C277.9,338.7,277.7,338.7,277.7,338.9L277.7,338.9z"
						/>
					<path d="M277.7,339c1.8,1.4,4.4,1,6.5,1.2c1.7,0.2,3.3,0.4,5,0.5c1.6,0.2,3.3,0.4,5,0.4c0.4,0,0.5-0.4,0.1-0.5
						c-3-0.6-6.1-0.7-9.1-0.9c-1.2-0.1-2.3-0.2-3.5-0.2c-1.2,0-2.6,0-3.6-0.7C277.8,338.7,277.4,338.8,277.7,339L277.7,339z"/>
					<path d="M295.1,342c0-0.1,0-0.2-0.1-0.3c-0.1-0.1-0.3-0.1-0.4-0.1c-0.5,0.3-0.2,1.7-0.2,2.2c0,1.2,0.1,2.3,0.1,3.5
						c0.2,2.2,0.6,4.3,1,6.4c0.3,1.6,0.6,3.2,1,4.7c0.3,1.2,0.8,3.2,2,3.8c0.3,0.2,0.9,0,0.8-0.4c-0.2-0.6-0.7-1.1-1-1.6
						c-0.3-0.6-0.5-1.3-0.7-2c-0.4-1.4-0.6-2.9-0.9-4.4c-0.4-1.9-0.8-3.8-1.1-5.8c-0.2-1-0.3-1.9-0.4-2.9c-0.1-0.5-0.1-1.1-0.2-1.6
						c0-0.2-0.2-1.4-0.1-1.6c-0.1,0-0.2,0-0.4-0.1c0.1,0.1,0.1,0.2,0.2,0.3C294.8,342.2,295.1,342.2,295.1,342L295.1,342z"/>
					<path d="M304.3,361.1c0.1,0.3,0.2,0.6,0.3,0.9c0.1,0.2,0.6,0.2,0.5-0.1c-0.4-1.3-1.1-2.5-1.5-3.8c-0.4-1.5-0.8-3.1-1-4.7
						c-0.3-1.5-0.5-3-0.6-4.5c-0.1-1.3-0.1-2.8-0.5-4.1c-0.1-0.4-0.8-0.3-0.9,0.1c-0.2,1.3,0.2,2.9,0.4,4.3c0.2,1.5,0.4,3.1,0.7,4.6
						c0.3,1.5,0.7,3,1.1,4.5c0.4,1.3,0.9,2.8,1.8,3.8c0.1-0.1,0.3-0.2,0.4-0.2c-0.3-0.2-0.3-0.5-0.4-0.8
						C304.6,360.9,304.3,360.9,304.3,361.1L304.3,361.1z"/>
					<path d="M301.9,345.5c0-0.1-0.1-0.1-0.1-0.1C301.7,345.4,301.7,345.5,301.9,345.5c0,0,0,0,0.1,0.1c0.2,0.2,0.5,0.3,0.8,0.4
						c0.6,0.2,1.2,0.4,1.9,0.5c1.4,0.2,2.8,0.1,4.1,0.3c1.4,0.2,2.8,0.5,4.2,0.5c1.2,0.1,3.1,0.3,4.1-0.5c0.4-0.3,0-0.7-0.4-0.7
						c-0.6,0-1.2,0.2-1.9,0.2c-0.7,0-1.3,0-2,0c-1.2-0.1-2.5-0.3-3.7-0.4c-2.4-0.3-5,0.3-7.2-1c-0.1-0.1-0.2,0-0.3,0
						c-0.4,0.2-0.1,0.3,0,0.6C301.7,345.8,301.9,345.7,301.9,345.5L301.9,345.5z"/>
					<path d="M279.1,330.5c0-3.9,1.4-7.7,2.5-11.4c0.5-1.8,1-3.7,1.5-5.5c0.3-1,0.6-1.9,0.9-2.8c0.4-0.9,0.9-1.7,1.2-2.6
						c0.1-0.4-0.5-0.4-0.7-0.2c-1.3,1.3-1.8,3.5-2.3,5.3c-0.5,1.9-0.9,3.9-1.5,5.8c-1,3.7-2.3,7.5-1.9,11.4
						C278.9,330.6,279.1,330.6,279.1,330.5L279.1,330.5z"/>
					<path d="M285.8,330.3c0.3-0.5,0.4-1.2,0.4-1.7c0.2-1.3,0.3-2.6,0.6-3.9c0.4-2.3,1-4.6,1.4-6.9c0.4-1.7,0.7-3.5,1.2-5.2
						c0.3-0.9,0.6-1.7,1-2.5c0.4-0.8,1-1.3,1.5-2c0.3-0.4-0.4-0.7-0.7-0.6c-1.3,0.7-2,2.5-2.5,3.9c-0.6,1.8-1,3.7-1.3,5.5
						c-0.4,2.1-0.9,4.3-1.2,6.4c-0.2,1.4-0.4,2.9-0.5,4.3c0,0.7,0.1,1.8-0.3,2.5C285.4,330.4,285.7,330.5,285.8,330.3L285.8,330.3z"
						/>
					<path d="M293.7,331.2c0.1-3.8,0.9-7.5,1.9-11.2c0.5-1.8,1-3.6,1.6-5.4c0.5-1.6,1.4-3.3,1.3-5c0-0.5-0.7-0.5-1-0.2
						c-1.1,1.4-1.4,3.3-1.9,4.9c-0.5,1.9-1,3.8-1.4,5.8c-0.8,3.6-1.2,7.3-1,11.1C293.3,331.4,293.7,331.4,293.7,331.2L293.7,331.2z"
						/>
					<path d="M301.7,334.2c0.3-2,0.4-4.1,0.7-6.1c0.3-2.2,0.8-4.5,1.3-6.7c0.5-2,1-4,1.5-6c0.5-1.8,1.5-4,1.4-5.9
						c0-0.6-1-0.5-1.2-0.1c-0.5,1-0.7,2.1-1,3.2c-0.3,1.1-0.5,2.2-0.8,3.2c-0.5,2-0.9,4-1.3,6.1c-0.8,4-1.5,8.3-1.1,12.4
						C301.4,334.4,301.7,334.4,301.7,334.2L301.7,334.2z"/>
					<g>
						<path d="M479.6,296.9c0.1-3,0.4-6,1.1-9c0.5-2.4,1.1-4.9,2.9-6.7c1.3-1.4,3.1-2.1,4.9-2.6c0.9-0.2,1.9-0.4,2.8-0.7
							c1-0.2,2-0.4,2.8-1.2c0.4-0.4-0.3-0.8-0.7-0.9c-1.1-0.1-2.3,0.4-3.3,0.7c-1,0.3-2,0.6-3,0.9c-1.8,0.6-3.6,1.5-4.9,3
							c-1.7,1.8-2.4,4.4-2.8,6.9c-0.5,3.1-0.2,6.3-0.1,9.5C479.2,297.1,479.6,297.1,479.6,296.9L479.6,296.9z"/>
						<path d="M489.2,287.2c-2.3,2.9-1.9,7.6,0.1,10.6c2.3,3.3,6.7,4.1,10.4,2.8c7.3-2.7,2.9-12.5,1.1-17.4
							c-0.6-1.8-1.1-3.9-2.5-5.3c-1.4-1.4-3.8-1.8-5.7-1.5c-0.7,0.1-0.7,0.9,0,1c1.5,0.3,3.2,0.2,4.3,1.3c1.1,1.1,1.4,2.7,1.9,4.2
							c0.9,2.7,2,5.4,2.6,8.2c0.5,2.4,0.9,5.6-1.2,7.3c-2.4,2.1-6.7,1.6-8.8-0.6c-1.2-1.3-1.9-3.1-2.2-4.8c-0.3-2,0-3.7,0.4-5.7
							C489.7,287.1,489.3,287,489.2,287.2L489.2,287.2z"/>
						<path d="M542.4,353.4c-8.3,0-16.6-2.1-24.9-6.4c-4.2-2.2-6.8-6.4-6.8-11.1v-60.3c0-4.3,2.9-8.1,7.1-9.2
							c16.3-4.1,32.8-4.1,49.1,0c4.2,1.1,7.1,4.8,7.1,9.2v60.3c0,4.7-2.6,8.9-6.8,11.1l0,0C559,351.3,550.7,353.4,542.4,353.4z
							 M542.4,265.3c-8,0-16.1,1-24.1,3c-3.3,0.8-5.6,3.8-5.6,7.2v60.3c0,3.9,2.2,7.5,5.7,9.3c15.9,8.3,32,8.3,47.9,0
							c3.5-1.8,5.7-5.4,5.7-9.3v-60.3c0-3.4-2.3-6.3-5.6-7.2C558.5,266.4,550.4,265.3,542.4,265.3z"/>
						<path d="M525,268.9c-0.5-0.2-1.4,0-1.9,0.1c-1.1,0.2-2.1,0.4-3.1,0.8c-2.1,0.6-4.1,1.5-3.8,4.1c0.5,4,6.2,5.4,9.3,6.3
							c2.8,0.8,5.5,1.6,8.4,2c3.5,0.4,7.1,0.4,10.7,0.4c6.3,0,13.2,0.8,18.9-2.6c2.1-1.2,5.2-3.7,4.3-6.5c-0.8-2.3-4.1-3.8-6.3-4
							c-0.5,0-0.6,0.6-0.1,0.7c1.9,0.5,4.6,1.7,4.6,4.1c0,2.1-2.6,3.8-4.2,4.7c-4.9,2.7-10.8,2.1-16.2,2.1c-5.7,0-11.5,0.3-17-1.5
							c-3.1-1-6.8-1.6-9.4-3.6c-1.8-1.4-2.1-4,0.1-5.2c0.9-0.5,2-0.7,2.9-1c0.7-0.2,2-0.8,2.7-0.6C525.1,269.2,525.2,269,525,268.9
							L525,268.9z"/>
						<path d="M519.4,276.2c-1.4-3.3,5.1-5.1,7.2-5.6c2.3-0.5,4.6-0.5,7-0.6c2.4-0.1,4.8-0.1,7.2,0.1c2.4,0.2,4.8,0.7,7.2,0.9
							c2.5,0.2,5.1,0.2,7.6,0.6c3,0.5,6.9,1,8.2,4.1c0.2,0.4,1.2,0.4,1.1-0.1c-0.3-2.6-3.5-3.7-5.7-4.3c-3.7-0.9-7.4-1-11.2-1.2
							c-4.7-0.3-9.2-1-14-0.8c-3.6,0.2-7.4,0.2-10.8,1.7c-1.8,0.9-5.4,2.7-4.2,5.2C519.2,276.5,519.5,276.4,519.4,276.2L519.4,276.2
							z"/>
						<path d="M541.2,273c-3.5-0.3-7.4-1-10.6,0.8c-2.4,1.3-0.2,2.7,1.5,3.4c3,1.2,6.2,1.6,9.4,1.9c3.2,0.3,6.5,0.4,9.7,0.3
							c3.4-0.1,6.9-0.7,9.8-2.8c0.1-0.1,0.1-0.2,0.1-0.2c-1.2-2.7-5.5-2.7-8-2.8c-4.4-0.2-8.9,0.2-13.3,1.1
							c-0.4,0.1-0.2,0.5,0.2,0.5c4.6-0.6,9.2-1.2,13.8-0.9c1.8,0.1,4.2,0.2,5.7,1.3c0.4,0.3,0.8,0.7,0.5,1.2c-0.3,0.3-1,0.6-1.4,0.8
							c-0.9,0.4-1.9,0.7-2.8,1c-3.6,0.8-7.3,0.6-11,0.5c-4-0.2-8.1-0.4-11.9-1.7c-0.8-0.3-3.2-1-2.9-2.1c0.2-1,2.6-1.6,3.4-1.7
							c2.6-0.6,5.3-0.2,7.9,0.1C541.5,273.3,541.5,273,541.2,273L541.2,273z"/>
						<path class="st2" d="M535.1,259.3c-3.5-2.8-2.9-8.5-0.6-11.8c1.3-1.8,2.8-3.5,3.7-5.6c0.8-1.9,1.1-4,0.9-6
							c-0.4-4.2-2.4-7.9-4.3-11.5c-2.1-4.1-3.8-8.1-3.4-12.9c0.2-2.7,1.1-5.2,2.3-7.6c0.6-1.2,1.3-2.4,1.9-3.5
							c0.6-1.2,1.5-2.3,1.9-3.6c0.1-0.4-0.5-0.5-0.7-0.3c-1.7,1.7-3,4-4.1,6.1c-1.1,2.1-2.1,4.2-2.6,6.5c-1.1,4.6-0.4,9.3,1.4,13.6
							c1.7,4,4.2,7.9,5.1,12.2c0.5,2.2,0.4,4.7-0.3,6.9c-0.7,2.2-2.3,4-3.3,6c-1.8,3.5-1.3,9.3,2.1,11.8
							C535,259.6,535.3,259.5,535.1,259.3L535.1,259.3z"/>
						<path class="st2" d="M544.6,252.3c-0.2-2,2.2-4.1,3.1-5.7c1.3-2.4,2-5.2,2.3-8c0.8-6.2-0.7-12.3-2.7-18.1
							c-1-2.9-2.3-5.9-2.6-9c-0.3-2.5,0.3-4.8,1.4-7.1c2.1-4.3,5.4-8,5.9-12.9c0.6-6-3-11.1-7.7-14.4c-0.4-0.3-1.6,0.1-1.1,0.6
							c3.5,3.7,6.8,8,6.5,13.3c-0.4,4.9-3.8,8.5-5.6,12.9c-2.2,5.1-0.8,10.1,1.2,15c2.3,5.8,4.3,11.9,3.9,18.2
							c-0.2,3.2-0.7,6.7-2.4,9.5c-0.9,1.6-3,3.6-2.6,5.6C544.2,252.5,544.6,252.5,544.6,252.3L544.6,252.3z"/>
						<path class="st2" d="M561.5,205c-2.3,3.1-3.2,7-3,10.8c0.1,4.1,1.6,7.6,3.1,11.3c0.8,2,1.2,3.9,0.6,6
							c-0.6,2.2-1.8,4.3-3.1,6.3c-2.2,3.5-4.8,6.6-5.5,10.8c-0.4,2.1-0.6,4.3-0.2,6.4c0.4,2,1.6,3.9,2.7,5.6
							c0.2,0.3,0.9,0.2,0.8-0.3c-0.6-1.7-1.4-3.3-1.8-5.1c-0.4-1.9-0.2-3.8,0-5.7c0.3-2.2,0.9-4.2,2.1-6.1c1.1-1.8,2.3-3.5,3.4-5.2
							c1.9-3.1,3.9-6.7,3-10.5c-0.5-1.9-1.5-3.5-2.3-5.2c-0.8-1.8-1.5-3.6-1.9-5.5c-0.9-4.6-0.4-9.6,2.2-13.6
							C561.9,204.9,561.6,204.8,561.5,205L561.5,205z"/>
						<path d="M502.2,289.3c0.3-0.1,0.4-0.2,0.6-0.3c0,0,0.2-0.1,0.1,0c0.1-0.1,0.2-0.1,0.3-0.2c0,0,0.1-0.1,0.1-0.1
							c-0.1,0-0.1,0,0,0c0.1,0,0.2-0.1,0.3-0.1c0.2-0.1,0.3-0.2,0.5-0.2c0.9-0.4,1.4-0.6,2.4-0.7c0.2,0,0.4-0.1,0.6-0.1
							c0,0,0.4,0,0.3,0c-0.1,0,0.2,0,0.3,0c0.4,0,0.9,0,1.3,0c0.3,0-0.2,0,0.1,0c0.1,0,0.2,0,0.3,0c0.2,0,0.4,0.1,0.6,0.1
							c-0.2-0.1-0.1,0,0,0c0.1,0,0.1,0.1,0.2,0.1c0.3,0.1,0.6,0.3,0.9,0.3c0.5,0,1.1-0.2,1.1-0.8c0-0.7-0.8-1-1.3-1.1
							c-0.6-0.2-1.2-0.3-1.8-0.3c-1.1-0.1-2.2,0-3.3,0.2c-1.1,0.2-2.2,0.6-3.1,1.1c-0.4,0.2-0.8,0.5-1,0.9c-0.2,0.3-0.4,0.9-0.2,1.2
							C501.6,289.3,501.9,289.4,502.2,289.3L502.2,289.3z"/>
						<path d="M499.2,299.9c-0.7,0.8-1,1.8-0.6,2.8c0.4,1.1,1.3,2,2.2,2.7c2.1,1.7,4.8,2.8,7.6,3c1.2,0.1,3.1,0,3.9-1
							c0.3-0.4,0.2-0.8-0.2-1.1c-0.4-0.3-1-0.3-1.4-0.1c-0.2,0.1-0.3,0.1-0.5,0.2c-0.1,0-0.2,0.1-0.2,0.1c0.3-0.1,0,0-0.1,0
							c-0.1,0-0.2,0-0.3,0.1c-0.3,0.1,0.1,0-0.1,0c-0.2,0-0.5,0-0.7,0c-0.1,0-0.2,0-0.4,0c-0.2,0,0.2,0,0,0c-0.1,0-0.1,0-0.2,0
							c-0.3,0-0.6-0.1-0.9-0.1c-0.5-0.1-1.1-0.3-1.5-0.4c-1.9-0.7-4.1-1.6-5.3-3.4c-0.5-0.7-0.7-1.7-0.5-2.5
							C500.1,299.7,499.4,299.6,499.2,299.9L499.2,299.9z"/>
						<path d="M496.8,300.1c-1.9,0.1-2.6,2.8-2.8,4.3c-0.3,2.2,0,4.5,0.6,6.7c1.3,4.6,4.5,8.2,9,9.8c2.7,1,5.5,1.1,8.3,0.2
							c0.4-0.1,0.6-0.7,0.4-1.1c-0.3-0.4-1-0.4-1.4-0.3c-5.1,1.8-11.3-1.8-13.5-6.5c-1-2.1-1.6-4.6-1.6-6.9c0-1.1,0-2.3,0.4-3.4
							c0.1-0.5,0.3-0.9,0.6-1.4c0.2-0.4,0.7-0.8,0.7-1.2C497.2,300.2,497,300.1,496.8,300.1L496.8,300.1z"/>
						<path d="M496.3,314.5c0.1,0.2-0.3,0.4-0.4,0.5c-0.2,0.3-0.3,0.7-0.4,1.1c-0.3,0.8-0.5,1.6-0.7,2.4c-0.3,1.7-0.3,3.7,0.5,5.3
							c1.9,3.6,6.2,5.2,10,5.6c1.1,0.1,2.3,0.1,3.4-0.1c1.1-0.2,2-0.7,3.1-1c0.8-0.3,0.9-1.2,0.3-1.7c-0.6-0.5-1.8-0.5-2.3,0.2
							c-0.2,0.2-0.3,0.2,0,0.1c-0.2,0.1-0.3,0.2-0.5,0.2c-0.4,0.2-0.8,0.3-1.2,0.3c-0.8,0.2-1.7,0.2-2.5,0.1
							c-1.8-0.1-3.5-0.6-5.1-1.3c-1.5-0.7-3-1.7-3.7-3.2c-0.7-1.5-0.7-3.2-0.4-4.8c0.2-0.8,0.3-1.7,0.4-2.5c0-0.3-0.1-0.5-0.1-0.8
							c0-0.1,0-0.3-0.1-0.4C496.5,314.2,496.2,314.3,496.3,314.5L496.3,314.5z"/>
						<path d="M501.6,328.2c-0.2,0.1-0.6,0.2-0.7,0.4c-0.2,0.3-0.2,0.7-0.2,1.1c0,1,0.2,2,0.6,2.9c0.4,0.8,0.9,1.7,1.7,2.2
							c1.2,0.6,2.7,0.6,4.1,0.5c0.7-0.1,1.5-0.2,2.2-0.4c0.7-0.1,1.5-0.2,2.2-0.5c0.9-0.4,0.6-1.5-0.3-1.7c-1.2-0.2-2.5,0.3-3.6,0.6
							c-0.6,0.1-1.2,0.2-1.7,0.3c-0.3,0-0.9,0.1-1.3,0.1c-0.2,0-0.3-0.1-0.5-0.2c0.1,0,0.1,0.1,0,0c0,0-0.2-0.2-0.1-0.1
							c0.1,0.1-0.1-0.1-0.1-0.1c-0.1-0.1-0.1-0.1-0.1-0.2c-0.1-0.2-0.2-0.3-0.3-0.5c-0.4-0.7-0.8-1.5-1-2.3
							c-0.1-0.4-0.3-0.8-0.4-1.2c0-0.1,0-0.3-0.1-0.4C501.7,328.4,501.6,328.5,501.6,328.2C501.8,328.3,501.7,328.2,501.6,328.2
							L501.6,328.2z"/>
						<path d="M500,284.4c0.2-0.6,0.5-1.1,0.7-1.7c0.2-0.6,0.4-1.2,0.6-1.7c0.4-1.1,1-2.1,2.1-2.5c1.2-0.4,2.6-0.3,3.8-0.2
							c1.5,0.1,3,0.5,4.4,0.3c0.5-0.1,1-0.5,1-1c0-0.5-0.5-0.9-1-1c-0.8-0.1-1.6-0.1-2.4-0.2c-0.8-0.1-1.6-0.1-2.4-0.2
							c-1.7-0.1-3.3,0.1-4.7,1c-1.2,0.7-1.9,1.8-2.2,3.1c-0.1,0.6-0.2,1.3-0.2,1.9c0,0.7,0,1.4-0.1,2.1
							C499.6,284.5,500,284.5,500,284.4L500,284.4z"/>
						<path d="M485.1,307.5c1.2,0.2,2.5,0.2,3.7,0c1.1-0.1,2.3-0.4,3.3-0.9c2.3-1.2,3.7-3.3,4.6-5.7c0.4-1.2-1.9-1.5-2.3-0.5
							c-0.7,2-1.7,3.8-3.6,5c-0.8,0.5-1.6,0.9-2.5,1.1c-1.1,0.3-2.2,0.4-3.3,0.6C484.9,307.2,484.9,307.5,485.1,307.5L485.1,307.5z"
							/>
						<path d="M479.3,308.4c0.6,1.4,0.6,2.9,0.8,4.3c0.2,1.3,0.6,2.4,1.2,3.6c1,2,2.3,3.9,4,5.4c2.9,2.4,7.9,5.4,11.5,2.8
							c0.5-0.4,0.4-1,0-1.4c-0.5-0.4-1.3-0.4-1.8,0c-1.2,0.8-2.8,0.3-4-0.2c-1.7-0.7-3.3-1.7-4.7-2.9c-1.6-1.3-2.9-3-4-4.8
							c-0.7-1.1-1.2-2.2-1.5-3.4c-0.3-1.2-0.5-2.4-1.1-3.5C479.5,308.2,479.2,308.3,479.3,308.4L479.3,308.4z"/>
					</g>
					<path d="M404.3,457.3c-4.4,0-9.9-1.4-14.7-6.5c-0.3-0.3-0.4-0.9-0.1-1.2c0.2-0.3,18-29.4,17.9-74.9l2.1,0
						c0.1,42.2-15.1,70.6-17.8,75.3c8.3,8.1,17.8,4.9,20,4c11.4-47.1,14.2-93.8,14.3-94.3c0-0.2,0.1-0.5,0.3-0.6
						c7.9-8.7,10.9-24.2,8-41.6c-3-18.6-12.1-35-22.6-40.9l1-1.8c11.2,6.3,20.5,22.9,23.6,42.4c2.9,18.1-0.1,33.7-8.3,43
						c-0.3,4.5-3.4,49.6-14.4,94.8c-0.1,0.3-0.3,0.5-0.5,0.7C412.8,455.7,409.2,457.3,404.3,457.3z"/>
					<path d="M366,312.3l-2-0.4c2.6-13.8,7.3-21.9,7.5-22.2l1.8,1C373.2,290.8,368.5,298.9,366,312.3z"/>
					<path d="M435.2,338.6c-7.4-5.3-18.8-5.4-18.9-5.4l0-1.5c0,0,0,0,0,0c0.6,0,12,0.1,19.8,5.7L435.2,338.6z"/>
					<path d="M468.2,300.7c-1.7-0.1-3,1.1-4.4,1.9c-1.6,0.8-3.4,1.5-5.1,2.2c-2,0.7-3.9,1.2-6,1.2c-1.8,0-3.7-0.2-5.5-0.4
						c-3.3-0.3-6.7-0.5-9.8,0.8c-1.2,0.5-2.5,1.3-3.4,2.3c-0.7,0.8-1.7,2.4-0.8,3.4c0.4,0.4,1.1,0.4,1.5,0c0.4-0.5,0.4-1.1,0.7-1.7
						c0.3-0.6,0.8-1.1,1.3-1.5c1.1-0.9,2.5-1.4,3.9-1.7c3.2-0.6,6.6,0,9.8,0.2c3.3,0.2,6.2-0.3,9.2-1.5c1.6-0.6,3.1-1.3,4.6-2.2
						c1.4-0.8,4.2-2.7,4.2-2.7c0.1-0.1,0.1-0.4-0.1-0.4L468.2,300.7z"/>
					<path d="M430.7,301.3c0.7,0,1.6-0.5,2.2-0.8c0.7-0.3,1.4-0.5,2.1-0.7c1.5-0.3,3.1-0.4,4.7,0c3.1,0.7,5.6,2.9,6,6.2
						c0.1,1.1,2.3,1.1,2.2,0c-0.6-6.6-8.3-9.2-14-7.5c-0.8,0.2-1.6,0.6-2.3,1c-0.5,0.3-1.4,1-1.3,1.6
						C430.3,301.2,430.5,301.3,430.7,301.3L430.7,301.3z"/>
					<path d="M418,280.1c0.2,0.4,0.7,0.4,1.1,0.6c0.6,0.2,1.1,0.4,1.7,0.7c1.2,0.4,2.3,1,3.4,1.6c2.3,1.3,4.6,2.9,6.2,5
						c1.5,1.8,2.5,4,3.7,6c0.6,0.9,1.2,1.8,1.7,2.8c0.4,0.7,0.6,1.7,1.3,2.2c0.5,0.4,1.4,0.2,1.7-0.3c0.4-0.8-0.4-1.9-0.8-2.6
						c-0.6-1-1.2-2-1.8-3c-1.4-2.2-2.5-4.6-4.3-6.6c-1.8-2.1-4.3-3.7-6.7-5c-1.2-0.6-2.5-1.2-3.9-1.5c-0.8-0.2-2.5-0.6-3.2,0
						C417.9,280,417.9,280,418,280.1L418,280.1z"/>
					<path d="M392.6,289.9c0,0-0.1,0-0.1,0c-0.3-0.1-0.5-0.3-0.6-0.6l-4.1-15.4l1.5-0.4l3.7,13.9l8.9-11.6c0.1-0.2,0.3-0.3,0.6-0.3
						c0.2,0,0.4,0.1,0.6,0.2l9.8,10.3l0.8-8.9l1.5,0.1l-0.9,10.6c0,0.3-0.2,0.6-0.5,0.7c-0.3,0.1-0.6,0-0.8-0.2l-10.4-10.9
						l-9.3,12.1C393.1,289.8,392.9,289.9,392.6,289.9z"/>
					<path d="M400.9,313.4l-1.5-0.1l2-26l-4.1-4.4l1.1-1l4.3,4.7c0.1,0.2,0.2,0.4,0.2,0.6L400.9,313.4z"/>
					<path d="M413,326.6l-1.3-0.9l5.5-8.1L405.9,287c-0.1-0.1-0.1-0.3,0-0.4l1.1-4.9l1.5,0.3l-1.1,4.6l11.4,30.8
						c0.1,0.2,0.1,0.5-0.1,0.7L413,326.6z"/>
					<path d="M402.4,287.8l-0.7-1.4c0.3-0.2,3.3-1.5,5.3-0.4l-0.8,1.3C405.1,286.7,403.1,287.4,402.4,287.8z"/>
					<path d="M341.4,467.9c-8.1,0-14-3.2-17.7-9.6c-0.2-0.3-0.2-0.8,0.1-1.1c20.2-28.2,42.3-60.3,49.1-83.1l2,0.6
						c-6.9,23-28.8,54.9-49,83.2c4.4,7.1,12,9.5,23.2,7.1c15.9-23.5,28.6-52.5,37.9-86.2l2,0.5c-9.4,34.1-22.3,63.4-38.4,87.1
						c-0.1,0.2-0.4,0.4-0.6,0.4C346.8,467.6,344,467.9,341.4,467.9z"/>
					<path d="M411.7,362.9c0.9,0,1.9-0.1,2.8-0.1c1-0.1,1.9-0.2,2.9-0.4c1.9-0.3,3.8-0.8,5.7-1.4c-1.7,0.9-3.6,1.7-5.4,2.4
						c-0.9,0.3-1.9,0.6-2.9,0.9c-1,0.3-1.9,0.5-3,0.7L411.7,362.9z"/>
					<path d="M330.8,472.5c-2-3.1-3.5-6.4-5.1-9.5c-1.6-3.2-3.4-6.3-5.4-9.2c-2-2.9-4.2-5.8-6.6-8.4c-2.4-2.6-5.1-5-8-6.8
						c-1.5-0.9-3-1.6-4.7-2.3c-1.6-0.6-3.3-1.2-5-1.7c-3.4-0.9-6.9-1.4-10.3-1.1c-3.4,0.3-6.7,1.4-9.4,3.5c-2.6,2-4.5,5-5.3,8.3
						c-0.4,1.6-0.6,3.3-0.5,5c0.1,1.7,0.3,3.4,0.7,5.1c0.8,3.4,2.1,6.7,3.8,9.8c3.3,6.2,8,11.7,13.5,16c5.6,4.3,12.2,7.2,19.2,7.7
						c7.1,0.6,14.3,0.7,21.5,0.4l0,0c0.7,0,1.2,0.5,1.3,1.2c0,0.1,0,0.2,0,0.3c-0.1,0.3-0.1,0.7-0.1,1c0,0.2,0,0.3,0,0.4
						c0,0.1,0,0.2,0,0.2l-1.2-0.8c2.9-0.2,5.9-0.4,8.8-0.7l2.2-0.3c0.7-0.1,1.5-0.2,2.1-0.4c0.6-0.2,1.1-0.4,1.5-0.7
						c0.4-0.4,0.7-0.9,1-1.4c1.1-2.4,1.5-5.3,1.2-8.1c-0.2-1.4-0.5-2.7-1.1-4c-0.3-0.6-0.6-1.3-0.9-1.7c-0.3-0.5-0.7-0.8-1.1-0.8
						c-0.6-0.1-1-0.7-0.9-1.2c0.1-0.5,0.5-0.8,0.9-0.9l0,0c0.3,0,0.4-0.1,0.7-0.4c0.2-0.3,0.4-0.7,0.6-1.2c0.3-0.8,0.4-1.8,0.3-2.8
						l2-0.1c0,1.1,0,2.4-0.4,3.7c-0.2,0.6-0.5,1.1-0.9,1.7c-0.4,0.6-1.3,1.1-2.1,1.2l0.1-2.1c1.1,0.2,2,1,2.5,1.7
						c0.5,0.7,0.9,1.5,1.2,2.2c0.6,1.5,1.1,3,1.3,4.6c0.4,3.2,0,6.4-1.3,9.4c-0.4,0.8-0.8,1.5-1.6,2.2c-0.7,0.7-1.6,1.1-2.4,1.3
						c-0.8,0.2-1.6,0.3-2.3,0.4l-2.2,0.3c-3,0.4-6,0.6-8.9,0.8l0,0c-0.5,0-1-0.3-1.2-0.8c-0.1-0.4-0.2-0.6-0.2-0.9
						c0-0.3,0-0.5,0-0.7c0-0.4,0.1-0.9,0.1-1.3l1.3,1.4c-7.3,0.4-14.6,0.2-21.8-0.3c-7.5-0.6-14.6-3.7-20.5-8.2
						c-5.9-4.5-10.7-10.3-14.2-16.8c-1.7-3.3-3.2-6.7-4-10.4c-0.4-1.8-0.7-3.7-0.8-5.6c-0.1-1.9,0.1-3.9,0.6-5.7
						c0.5-1.9,1.3-3.7,2.3-5.3c1.1-1.6,2.4-3.1,3.9-4.3c3.1-2.4,6.9-3.6,10.7-3.9c3.8-0.3,7.6,0.2,11.1,1.2c1.8,0.5,3.5,1.1,5.3,1.8
						c1.7,0.7,3.4,1.5,5,2.5c3.2,2,6,4.5,8.5,7.2c2.5,2.7,4.7,5.7,6.7,8.7C326,458.6,329.7,465.2,330.8,472.5z"/>
					<path d="M343.3,473.3c-2.5,0.6-5.2,0.8-7.7,0.2c-2.5-0.6-4.9-1.9-6.3-4.1l0.5-0.4c1.5,1.8,3.8,2.8,6.1,3.1
						c2.3,0.3,4.6,0,6.8-0.8L343.3,473.3z"/>
					<path d="M327,489.8c-10.2,0-16.4-9.9-22.4-19.5c-8.5-13.5-16.5-26.3-34.9-16.5l-0.5-0.9c19.2-10.3,27.9,3.5,36.3,16.8
						c6.5,10.3,12.6,20,23.3,18.9c0.2,0,11.8,0.3,17.6-3l0.5,0.9c-6.1,3.4-17.6,3.1-18.1,3.1C328.2,489.8,327.6,489.8,327,489.8z"/>
					<path d="M401.7,467.8c2.3-5.3,7.2-9.4,12.7-11.4c5.4-2,11.2-3.1,17-3c2.9,0.1,5.9,0.5,8.7,1.6c2.8,1,5.4,3,7.3,5.2
						c1.9,2.2,3.5,4.8,4.6,7.5c1.1,2.7,1.8,5.7,1.9,8.7c0.1,3-0.5,6.2-2.4,8.8c-0.9,1.3-2.1,2.4-3.5,3.2c-1.4,0.8-2.8,1.3-4.2,1.7
						c-2.9,0.8-5.7,1.2-8.6,1.4c-2.9,0.2-5.8,0.2-8.6,0c-5.7-0.3-11.4-1.1-17-2.6c-5.6-1.5-11-3.6-15.9-7.1l1.9-0.6l-0.8,2.4l0,0
						c-0.2,0.5-0.7,0.9-1.2,0.8c-1.8-0.1-3.4-0.3-5.2-0.5c-1.7-0.2-3.4-0.5-5.1-1c-1.7-0.4-3.4-0.9-5-1.6c-1.6-0.7-3.2-1.5-4.7-2.8
						c-0.3-0.2-0.4-0.6-0.4-1c0.1-2.4,0.3-4.9,0.8-7.3c0.5-2.4,1.2-4.9,2.3-7.1c1.1-2.3,2.8-4.4,4.9-5.9c2.1-1.6,4.6-2.4,7.1-2.8
						l-0.9,1.2c0-0.6,0-1.1,0.1-1.7c0.1-0.6,0.4-1.2,0.9-1.7c0.4-0.5,0.9-0.8,1.4-1.1c0.5-0.3,1-0.4,1.5-0.6l0.6,2
						c-0.8,0.2-1.6,0.6-1.9,1.1c-0.4,0.4-0.5,1.1-0.4,1.9c0.1,0.6-0.3,1.1-0.9,1.2l0,0c-2.2,0.4-4.4,1.2-6.1,2.5
						c-1.8,1.3-3.2,3.1-4.1,5.1c-1,2-1.6,4.3-2,6.6c-0.4,2.3-0.6,4.6-0.7,7l-0.4-1c1.1,1,2.5,1.7,4,2.3c1.5,0.6,3.1,1.1,4.6,1.4
						c1.6,0.4,3.2,0.7,4.9,0.9c1.6,0.2,3.3,0.4,4.9,0.5l-1.3,0.9l0.8-2.4c0.2-0.7,0.9-1,1.6-0.8c0.1,0,0.2,0.1,0.3,0.2l0,0
						c4.4,3.2,9.7,5.2,15,6.6c5.4,1.4,10.9,2.2,16.5,2.5c2.8,0.1,5.6,0.1,8.3-0.1c2.8-0.2,5.5-0.5,8.1-1.2c1.3-0.4,2.6-0.8,3.6-1.4
						c1.1-0.6,2-1.4,2.7-2.5c1.4-2,2-4.7,2-7.3c-0.2-5.3-2.4-10.7-5.8-14.8c-1.7-2.1-3.9-3.7-6.3-4.6c-2.5-1-5.2-1.4-7.9-1.5
						c-5.5-0.1-11.1,0.9-16.2,2.8C410,460.3,405.6,463.6,401.7,467.8z"/>
					<path d="M389.5,455.5c0,0.5,0.2,1.2,0.6,1.8c0.2,0.3,0.4,0.6,0.7,0.9c0.2,0.3,0.5,0.6,0.8,0.8c1.2,1.1,2.6,1.9,4.1,2.6
						c1.5,0.6,3.1,1.1,4.7,1.3c1.6,0.2,3.3,0.1,4.9-0.2l0.3,1.2c-1.7,0.4-3.5,0.5-5.3,0.4c-1.8-0.1-3.5-0.5-5.2-1.2
						c-1.7-0.6-3.3-1.5-4.7-2.7c-0.4-0.3-0.7-0.6-1-1c-0.3-0.3-0.6-0.7-0.9-1.1c-0.5-0.8-1-1.7-1-3L389.5,455.5z"/>
					<path d="M411.7,459.7l-1.9-0.8c0.7-1.7-0.2-2.6-0.3-2.7l1.4-1.5C411,454.8,412.9,456.7,411.7,459.7z"/>
					<path d="M429.2,486.5c-17.1,0-33.4-6.1-34.8-6.7c-0.2,0-0.5,0-0.7,0c-11.4,0-18.9-5.5-19.3-5.7l0.6-0.8
						c0.1,0.1,7.9,5.8,19.4,5.5c0.1,0,0.1,0,0.2,0c0.4,0.1,35.6,13.9,57.3,1.4l0.5,0.9C445.6,485.1,437.3,486.5,429.2,486.5z"/>
				</g>
				<path d="M451.2,482.2c-1.4,2.1-3.1,4.2-5.3,5.6c-1.1,0.8-2.4,1.3-3.7,1.7c-1.5,0.4-3,0.5-4.5,0.6c-3.4,0.2-6.8,0.1-10.2-0.2
					c-3.2-0.2-6.4-0.6-9.6-1c-6.4-0.9-13-2-18.8-5c-0.6-0.3-1.3-0.7-1.9-1.1c-0.5-0.4-1-0.8-1.6-1.2c-0.3-0.2-0.6-0.4-0.9-0.4
					c-0.3,0-0.5,0.2-0.7,0.4c-0.4,0.4-0.7,0.9-1.3,1.1c-0.5,0.2-1.2,0.1-1.7,0c-0.7-0.1-1.4-0.3-2.1-0.5c-1-0.2-2-0.4-3-0.6
					c-2.3-0.3-4.6-0.7-6.7-1.5c-1.3-0.5-2.7-1.1-3.6-2.1c-1.5,0-3,0-4.6,0c-8,0-15.8,0.1-23.3,0.3c0.3,2.1,0.5,4.2,0,6.3
					c-0.5,2.2-1.8,4-3.7,5.2c-0.8,0.5-1.7,0.8-2.6,1.1c-0.9,0.3-1.8,0.6-2.6,0.9c-2,0.7-4.1,1.3-6.2,1.5c-0.7,0.1-1.6,0.1-2.3-0.1
					c-0.2-0.1-0.5-0.2-0.7-0.4c-0.4-0.5-0.2-1.2-0.2-1.7c0-0.3-0.1-0.7-0.5-0.8c-0.2-0.1-0.5-0.1-0.7-0.1c-0.5,0-1.1,0-1.6,0.1
					c-0.7,0-1.5,0-2.2,0c-0.9,0-1.9,0-2.8,0.1c-3.6,0.1-7.1,0.1-10.7,0c-3.5-0.1-6.9-0.5-10.2-1.4c-2.6-0.7-5.1-1.4-7.6-2.4
					c-2.1-0.9-4-2.1-5.5-3.8c-10.1,1.6-16,3.4-16,5.5c0,5.5,44.4,10,99.2,10c54.8,0,99.2-4.5,99.2-10
					C470.1,485.9,463.1,483.9,451.2,482.2z"/>
			</g>
		</g>
		<path d="M446.1,328.2c-6.3,0-9.6-1.7-9.9-1.9l0.9-1.7c0.2,0.1,15.4,7.9,43.8-11.8l0.8,1.8C465.4,325.8,453.7,328.2,446.1,328.2z"
			/>
		<g>
			<path class="st2" d="M405.6,182.4c-7.2-0.9-13.5,8.2-14.4,19.7s4.4,22.5,11.3,23.3c6.9,0.8,14.3-7,14.7-19.7
				S413,183.3,405.6,182.4z"/>
			<path class="st12" d="M404.8,226c-0.4,0-0.8,0.1-1.2,0.1c-7.7-0.2-13.4-10.1-13.1-22.6c0.4-12.5,6.7-22.1,14.4-22
				c3.8,0.1,7.2,2.5,9.6,6.9c2.4,4.2,3.6,9.8,3.4,15.7c-0.2,5.9-1.7,11.4-4.3,15.5C411.2,223.4,408.1,225.6,404.8,226z M403.8,182.9
				c-6.3,0.7-11.4,9.7-11.8,20.6c-0.3,11.5,4.9,21,11.6,21.2c3.2,0.1,6.2-2,8.6-5.8c2.5-3.9,4-9.2,4.1-14.9l0,0c0.2-5.7-1-11-3.3-15
				c-2.2-3.9-5.1-6.1-8.3-6.1C404.5,182.9,404.2,182.9,403.8,182.9z"/>
			
				<ellipse transform="matrix(3.294281e-02 -0.9995 0.9995 3.294281e-02 185.2262 610.851)" cx="408.3" cy="209.7" rx="12.5" ry="7.5"/>
			<polygon class="st2" points="400.2,204.8 407,209.8 399.9,213.6 			"/>
		</g>
		<g>
			<path class="st2" d="M442.7,182.4c-4.9-0.9-9.2,8.2-9.8,19.7s3,22.5,7.7,23.3c4.7,0.8,9.7-7,10-19.7
				C450.8,193,447.8,183.3,442.7,182.4z"/>
			<path class="st12" d="M442.2,226c-0.3,0-0.6,0.1-0.8,0.1c-5.2-0.2-9.1-10.1-8.9-22.6c0.2-12.5,4.5-22.1,9.8-22
				c2.6,0.1,4.9,2.5,6.6,6.9c1.6,4.2,2.4,9.8,2.3,15.7c-0.1,5.9-1.2,11.4-2.9,15.5C446.5,223.4,444.4,225.6,442.2,226z M441.5,182.9
				c-4.3,0.7-7.8,9.7-8,20.6c-0.2,11.5,3.3,21,7.9,21.2c2.1,0.1,4.2-2,5.9-5.8c1.7-3.9,2.7-9.2,2.8-14.9l0,0c0.1-5.7-0.7-11-2.2-15
				c-1.5-3.9-3.5-6.1-5.6-6.1C442,182.9,441.8,182.9,441.5,182.9z"/>
			
				<ellipse transform="matrix(1.721173e-02 -0.9999 0.9999 1.721173e-02 227.2211 650.5851)" cx="444.6" cy="209.7" rx="12.5" ry="5.1"/>
			<polygon class="st2" points="439.1,204.8 443.7,209.8 438.9,213.6 			"/>
		</g>
		<ellipse class="st13" cx="429.2" cy="224.6" rx="9.1" ry="5.5"/>
		<path d="M429.2,231.3c-0.2,0-0.4,0-0.7,0c-3.4-0.1-6.5-1.4-8.2-3.3c-1-1.1-1.4-2.4-1.3-3.7c0.3-3.6,5.1-6.2,10.8-6
			c3.5,0.2,6.6,1.4,8.3,3.3c0.9,1.1,1.3,2.3,1.2,3.6l0,0C438.8,228.7,434.4,231.3,429.2,231.3z M429.1,220.3c-4.2,0-7.8,1.8-8,4.1
			c-0.1,0.9,0.4,1.7,0.8,2.2c1.3,1.5,3.9,2.5,6.7,2.6c4.8,0.2,8.3-2.1,8.6-4.3c0.1-0.7-0.2-1.4-0.7-2.1c-1.2-1.5-3.8-2.5-6.8-2.6
			C429.5,220.3,429.3,220.3,429.1,220.3z"/>
	</g>
</g>
</svg>
