<?xml version="1.0" encoding="utf-8"?>
<!-- Generator: Adobe Illustrator 24.0.1, SVG Export Plug-In . SVG Version: 6.00 Build 0)  -->
<svg version="1.1" id="Capa_1" xmlns="http://www.w3.org/2000/svg" xmlns:xlink="http://www.w3.org/1999/xlink" x="0px" y="0px"
	 viewBox="0 0 841.9 595.3" style="enable-background:new 0 0 841.9 595.3;" xml:space="preserve">
<style type="text/css">
	.st0{fill:#00A5CE;}
	.st1{stroke:#000000;stroke-width:2.0785;stroke-linejoin:round;}
	.st2{fill:#FFFFFF;stroke:#000000;stroke-width:2.0785;stroke-linejoin:round;}
	.st3{fill:#FECD00;}
	.st4{fill:#FFFFFF;}
	.st5{fill:#F5C9A1;}
	.st6{fill:#E07674;}
	.st7{fill:#CF1716;}
	.st8{fill:#A67635;}
	.st9{fill:#D3DAE0;}
	.st10{fill:#E5E5E5;}
	.st11{fill:#297AA0;}
	.st12{fill:#97652C;}
	.st13{fill:#E7D6B1;}
	.st14{stroke:#000000;stroke-width:0.4523;stroke-miterlimit:10;}
	.st15{fill:#ECAF90;}
</style>
<rect x="0" class="st0" width="841.9" height="595.3"/>
<g>
	<g>
		<path class="st1" d="M273.9,429.7c0,4.2-0.8,7.8-2.3,10.6c-1.5,2.8-3.7,5.1-6.4,6.8c-2.7,1.7-5.9,2.9-9.6,3.7
			c-3.7,0.8-7.8,1.2-12.1,1.3c-3.5,0.1-6.6,0-9.3-0.2c-2.8-0.2-5.8-0.5-9-0.9c0-23,0-45.9,0-68.9c2.4-0.4,5.1-0.7,8-1
			c2.9-0.3,6.3-0.5,10.1-0.5c3.7-0.1,7.1,0.1,10.3,0.7c3.2,0.5,6,1.5,8.3,2.8c2.4,1.4,4.3,3.2,5.6,5.6c1.4,2.4,2.1,5.4,2.1,9
			c0,3-0.7,5.8-2,8.3c-1.4,2.5-3.1,4.5-5.1,5.9c1.5,0.5,2.9,1.2,4.3,2.1c1.4,0.9,2.6,2,3.7,3.3c1.1,1.3,1.9,3,2.6,4.9
			C273.6,425,273.9,427.2,273.9,429.7z M241.9,408.2c0.9,0,1.8,0,2.7-0.1c2.8-0.1,4.9-0.7,6.5-1.8c1.5-1.2,2.3-3.1,2.3-5.9
			c0-1.3-0.3-2.5-0.8-3.3c-0.5-0.9-1.2-1.6-2.1-2.1c-0.8-0.5-1.8-0.8-2.8-1c-1-0.2-2-0.2-3-0.2c-0.4,0-0.9,0-1.4,0
			c-0.5,0-1,0.1-1.4,0.1C241.9,398.7,241.9,403.4,241.9,408.2z M241.9,421.9c0,5.4,0,10.8,0,16.2c0.4,0.1,1,0.1,1.7,0.1
			c0.7,0,1.6,0,2.7,0c1.2,0,2.5-0.2,3.7-0.5c1.3-0.3,2.4-0.8,3.4-1.4c1-0.6,1.8-1.5,2.5-2.6c0.6-1.1,0.9-2.4,0.9-4
			c0-3.1-1-5.2-3-6.3c-2-1.1-4.6-1.7-7.9-1.6C244.5,421.8,243.2,421.9,241.9,421.9z"/>
		<path class="st1" d="M321.2,444.9c-1.1,0.5-2.4,0.9-3.9,1.4c-1.5,0.5-3.1,1-4.8,1.4c-1.7,0.5-3.5,0.9-5.3,1.2
			c-1.8,0.3-3.6,0.5-5.3,0.6c-3.3,0.2-6.4,0.1-9.4-0.2c-3-0.3-5.7-1.2-8-2.7c-2.3-1.5-4.1-3.6-5.4-6.6c-1.4-2.9-2-6.9-2-11.9
			c0-9.4,0-18.8,0-28.1c1.4-0.4,2.8-0.7,4.2-0.9c1.4-0.2,2.7-0.3,4-0.4c1.2-0.1,2.5-0.1,4,0c1.4,0.1,2.8,0.2,4.1,0.4
			c0,8.9,0,17.9,0,26.8c0,3.9,0.6,6.5,1.9,7.8c1.3,1.3,3.2,1.9,5.9,1.8c1.1-0.1,1.9-0.2,2.5-0.3c0.6-0.1,1-0.2,1.3-0.3
			c0-12.2,0-24.3,0-36.5c1.4-0.4,2.8-0.7,4.2-0.9c1.4-0.2,2.7-0.4,4-0.5c1.2-0.1,2.5-0.1,4-0.1c1.4,0,2.8,0.2,4.1,0.4
			C321.2,413.2,321.2,429,321.2,444.9z"/>
		<path class="st1" d="M344.2,394.4c5.2-0.4,9.7-0.2,13.3,0.7c3.7,0.9,6.7,2.3,9.1,4.4c2.4,2,4.1,4.5,5.2,7.6
			c1.1,3,1.6,6.5,1.6,10.4c0,4-0.6,7.8-1.7,11.1c-1.1,3.4-2.9,6.3-5.3,8.9c-2.4,2.5-5.5,4.6-9.3,6.2c-3.8,1.6-8.4,2.6-13.8,3.1
			c-3.1,0.3-6,0.4-8.4,0.3c-2.5,0-5.1-0.1-7.8-0.3c0-16.5,0-33,0-49.5c2.7-0.5,5.6-1.1,8.6-1.6C338.7,395,341.6,394.6,344.2,394.4z
			 M343.4,432.8c0.3,0,0.6,0,1,0c0.4,0,1,0,1.9-0.1c3.6-0.3,6.3-1.5,8-3.7c1.8-2.2,2.7-5.6,2.7-10.2c0-4.1-0.9-7-2.6-8.8
			c-1.7-1.7-4.2-2.5-7.4-2.2c-0.8,0.1-1.5,0.2-2.1,0.3c-0.6,0.1-1.1,0.2-1.4,0.3C343.4,416.6,343.4,424.7,343.4,432.8z"/>
		<path class="st1" d="M394.1,389.9c5.2-0.5,9.7-0.3,13.3,0.6c3.7,0.9,6.7,2.3,9.1,4.3c2.4,2,4.1,4.5,5.2,7.5
			c1.1,3,1.6,6.5,1.6,10.3c0,4-0.6,7.8-1.7,11.2c-1.1,3.4-2.9,6.4-5.3,8.9c-2.4,2.5-5.5,4.6-9.3,6.3c-3.8,1.6-8.4,2.7-13.8,3.2
			c-3.1,0.3-6,0.5-8.4,0.5c-2.5,0-5.1-0.1-7.8-0.2c0-16.5,0-33,0-49.5c2.7-0.6,5.6-1.1,8.6-1.7C388.7,390.6,391.5,390.2,394.1,389.9
			z M393.4,428.3c0.3,0,0.6,0,1,0c0.4,0,1,0,1.9-0.1c3.6-0.3,6.3-1.6,8-3.8c1.8-2.2,2.7-5.6,2.7-10.2c0-4.1-0.9-7-2.6-8.8
			c-1.7-1.7-4.2-2.4-7.4-2.1c-0.8,0.1-1.5,0.2-2.1,0.3c-0.6,0.1-1.1,0.2-1.4,0.3C393.4,412.1,393.4,420.2,393.4,428.3z"/>
		<path class="st1" d="M455.2,385.2c0.5-0.2,1.5-0.4,2.9-0.7c1.4-0.3,3-0.5,4.7-0.6c2.1-0.2,4-0.3,5.7-0.3c1.7,0,2.9,0,3.6,0.1
			c-6.2,11.3-12.4,22.7-18.6,34c0,5.8,0,11.6,0,17.4c-1.7,0.4-3.2,0.7-4.5,1c-1.4,0.3-2.6,0.4-3.7,0.5c-1.1,0.1-2.3,0.2-3.7,0.2
			c-1.3,0-2.8-0.1-4.4-0.2c0-5.8,0-11.6,0-17.4c-6.2-10.2-12.3-20.3-18.5-30.5c0.7-0.2,1.9-0.4,3.7-0.7c1.8-0.3,3.7-0.6,5.8-0.8
			c1.7-0.2,3.3-0.3,4.9-0.3c1.6,0,2.7,0,3.2,0.1c3.1,6,6.3,12.1,9.4,18.1C448.9,398.4,452.1,391.8,455.2,385.2z"/>
		<path class="st1" d="M487.5,417.4c0.6,0.1,1.4,0.2,2.6,0.3c1.2,0.1,2.4,0.1,3.7,0c0.8-0.1,1.6-0.2,2.5-0.4
			c0.9-0.2,1.7-0.5,2.5-1.1c0.7-0.5,1.4-1.3,1.9-2.3c0.5-1,0.8-2.4,0.8-4.1c0-11.1,0-22.1,0-33.2c-3.5,0.3-7,0.6-10.5,0.9
			c-0.6-2.6-0.9-5.2-0.9-7.5c0-2.2,0.3-4.7,0.9-7.5c9.2-0.8,18.4-1.5,27.6-2.2c0,16.7,0,33.4,0,50.1c0,3.7-0.6,6.8-1.7,9.5
			c-1.2,2.7-2.7,4.9-4.7,6.7c-2,1.8-4.3,3.1-7,4.1c-2.7,0.9-5.5,1.6-8.6,1.8c-1.9,0.2-3.7,0.2-5.6,0c-1.9-0.1-3.5-0.4-5-0.7
			c-0.1-0.5-0.1-1-0.1-1.5c0-0.5,0-1.1,0-1.6C485.6,425,486.2,421.2,487.5,417.4z"/>
		<path class="st1" d="M521.9,404.7c0-3.9,0.5-7.5,1.6-10.9c1.1-3.3,2.6-6.2,4.7-8.7c2.1-2.5,4.7-4.4,7.8-5.9
			c3.1-1.5,6.6-2.3,10.7-2.5c4.1-0.2,7.7,0.2,10.8,1.3c3.1,1.1,5.7,2.8,7.8,5c2.1,2.2,3.7,4.9,4.7,8.1c1.1,3.2,1.6,6.8,1.6,10.7
			c0,3.9-0.5,7.4-1.6,10.6c-1.1,3.2-2.6,6-4.7,8.4c-2.1,2.4-4.7,4.3-7.8,5.6c-3.1,1.4-6.7,2.2-10.8,2.4c-4,0.2-7.6-0.2-10.7-1.2
			c-3.1-1-5.7-2.6-7.8-4.7c-2.1-2.1-3.7-4.8-4.7-7.9C522.4,412,521.9,408.5,521.9,404.7z M555.1,402.6c0-4.1-0.7-7.2-2.1-9.3
			c-1.4-2.1-3.5-3.1-6.3-2.9c-2.8,0.2-4.9,1.4-6.3,3.7c-1.4,2.3-2,5.5-2,9.6c0,4,0.7,7.1,2,9.2c1.3,2.1,3.4,3.1,6.3,2.9
			c2.8-0.2,4.9-1.4,6.3-3.6C554.4,409.8,555.1,406.6,555.1,402.6z"/>
		<path class="st1" d="M589.1,406.1c0.7,2.6,1.9,4.4,3.7,5.5c1.8,1,4.1,1.5,7,1.5c1.9,0,3.9-0.3,6.3-0.8c2.3-0.5,4.6-1.2,6.8-2.1
			c0.9,1.7,1.7,3.7,2.4,6c0.7,2.3,1,4.7,1.1,7.2c-5.7,2.1-11.6,3.3-17.5,3.4c-4.6,0.1-8.6-0.4-11.9-1.6c-3.3-1.2-6-2.9-8.1-5.1
			c-2.1-2.2-3.6-4.9-4.6-8c-1-3.1-1.5-6.5-1.5-10.3c0-3.7,0.5-7.1,1.5-10.4c1-3.3,2.6-6.1,4.6-8.6c2.1-2.5,4.6-4.4,7.7-5.9
			c3.1-1.5,6.7-2.3,10.8-2.3c3.4-0.1,6.4,0.5,9.1,1.6c2.7,1.1,4.9,2.7,6.8,4.7c1.9,2,3.3,4.4,4.3,7.3c1,2.9,1.5,6,1.5,9.3
			c0,1.7-0.1,3.3-0.2,4.7c-0.2,1.4-0.3,2.5-0.4,3.4C608.6,405.7,598.8,405.8,589.1,406.1z M596.8,386.9c-2.1,0-3.8,0.7-5.3,2.1
			c-1.5,1.3-2.3,3.3-2.6,6c5.1-0.1,10.3-0.3,15.4-0.3c-0.1-2.2-0.8-4.1-2.1-5.6C601,387.6,599.2,386.9,596.8,386.9z"/>
	</g>
	<g>
		<path class="st2" d="M271.6,427.5c0,4.2-0.8,7.8-2.3,10.6c-1.5,2.8-3.7,5.1-6.4,6.8c-2.7,1.7-5.9,2.9-9.6,3.7
			c-3.7,0.7-7.8,1.2-12.1,1.2c-3.5,0.1-6.6,0-9.3-0.3c-2.8-0.2-5.8-0.5-9-0.9c0-23,0-45.9,0-68.9c2.4-0.4,5.1-0.7,8-1
			c2.9-0.3,6.3-0.5,10.1-0.5c3.7-0.1,7.1,0.2,10.3,0.7c3.2,0.5,6,1.5,8.3,2.8c2.4,1.4,4.3,3.2,5.6,5.6c1.4,2.4,2.1,5.4,2.1,9
			c0,3-0.7,5.8-2,8.3c-1.4,2.5-3.1,4.5-5.1,5.9c1.5,0.5,2.9,1.2,4.3,2.1c1.4,0.9,2.6,2,3.7,3.3c1.1,1.3,1.9,3,2.6,4.9
			C271.3,422.8,271.6,425,271.6,427.5z M239.5,405.9c0.9,0,1.8,0,2.7,0c2.8-0.1,4.9-0.7,6.5-1.8c1.5-1.2,2.3-3.1,2.3-5.9
			c0-1.3-0.3-2.5-0.8-3.4c-0.5-0.9-1.2-1.6-2.1-2.1c-0.8-0.5-1.8-0.8-2.8-1c-1-0.2-2-0.2-3-0.2c-0.4,0-0.9,0-1.4,0
			c-0.5,0-1,0.1-1.4,0.1C239.5,396.4,239.5,401.1,239.5,405.9z M239.5,419.6c0,5.4,0,10.8,0,16.2c0.4,0.1,1,0.1,1.7,0.1
			c0.7,0,1.6,0,2.7,0c1.2,0,2.5-0.2,3.7-0.5c1.3-0.3,2.4-0.7,3.4-1.4c1-0.6,1.8-1.5,2.5-2.6c0.6-1.1,0.9-2.4,0.9-4
			c0-3.1-1-5.2-3-6.3c-2-1.1-4.6-1.7-7.9-1.6C242.1,419.5,240.8,419.6,239.5,419.6z"/>
		<path class="st2" d="M318.8,442.7c-1.1,0.5-2.4,0.9-3.9,1.4c-1.5,0.5-3.1,1-4.8,1.4c-1.7,0.5-3.5,0.9-5.3,1.2
			c-1.8,0.3-3.6,0.5-5.3,0.6c-3.3,0.2-6.4,0.1-9.4-0.2c-3-0.3-5.7-1.3-8-2.7c-2.3-1.5-4.1-3.7-5.4-6.6c-1.4-2.9-2-6.9-2-11.9
			c0-9.4,0-18.8,0-28.1c1.4-0.4,2.8-0.7,4.2-0.9c1.4-0.2,2.7-0.3,4-0.4c1.2-0.1,2.5-0.1,4,0c1.4,0.1,2.8,0.2,4.1,0.4
			c0,8.9,0,17.9,0,26.8c0,3.9,0.6,6.5,1.9,7.8c1.3,1.3,3.2,1.9,5.9,1.8c1.1-0.1,1.9-0.1,2.5-0.3c0.6-0.1,1-0.2,1.3-0.3
			c0-12.2,0-24.3,0-36.5c1.4-0.4,2.8-0.7,4.2-0.9c1.4-0.2,2.7-0.4,4-0.5c1.2-0.1,2.5-0.1,4-0.1c1.4,0,2.8,0.2,4.1,0.4
			C318.8,411,318.8,426.8,318.8,442.7z"/>
		<path class="st2" d="M341.9,392.2c5.2-0.4,9.7-0.2,13.3,0.7c3.7,0.9,6.7,2.4,9.1,4.4c2.4,2,4.1,4.5,5.2,7.6
			c1.1,3,1.6,6.5,1.6,10.4c0,4-0.6,7.8-1.7,11.1c-1.1,3.4-2.9,6.3-5.3,8.9c-2.4,2.5-5.5,4.6-9.3,6.2c-3.8,1.6-8.4,2.6-13.8,3
			c-3.1,0.3-6,0.4-8.4,0.3c-2.5,0-5.1-0.1-7.8-0.3c0-16.5,0-33,0-49.5c2.7-0.5,5.6-1,8.6-1.6C336.4,392.8,339.2,392.5,341.9,392.2z
			 M341.1,430.7c0.3,0,0.6,0,1,0c0.4,0,1,0,1.9-0.1c3.6-0.3,6.3-1.5,8-3.7c1.8-2.2,2.7-5.6,2.7-10.2c0-4.1-0.9-7-2.6-8.8
			c-1.7-1.7-4.2-2.5-7.4-2.2c-0.8,0.1-1.5,0.2-2.1,0.3c-0.6,0.1-1.1,0.2-1.4,0.3C341.1,414.4,341.1,422.5,341.1,430.7z"/>
		<path class="st2" d="M391.8,387.8c5.2-0.5,9.7-0.3,13.3,0.6c3.7,0.9,6.7,2.3,9.1,4.3c2.4,2,4.1,4.5,5.2,7.5
			c1.1,3,1.6,6.5,1.6,10.3c0,4-0.6,7.8-1.7,11.2c-1.1,3.4-2.9,6.4-5.3,8.9c-2.4,2.5-5.5,4.6-9.3,6.3c-3.8,1.6-8.4,2.7-13.8,3.2
			c-3.1,0.3-6,0.4-8.4,0.5c-2.5,0-5.1-0.1-7.8-0.2c0-16.5,0-33,0-49.5c2.7-0.6,5.6-1.1,8.6-1.7C386.3,388.4,389.1,388,391.8,387.8z
			 M391,426.2c0.3,0,0.6,0,1,0c0.4,0,1,0,1.9-0.1c3.6-0.3,6.3-1.6,8-3.8c1.8-2.2,2.7-5.6,2.7-10.2c0-4.1-0.9-7-2.6-8.8
			c-1.7-1.7-4.2-2.4-7.4-2.1c-0.8,0.1-1.5,0.2-2.1,0.3c-0.6,0.1-1.1,0.2-1.4,0.3C391,410,391,418.1,391,426.2z"/>
		<path class="st2" d="M452.9,383.1c0.5-0.2,1.5-0.4,2.9-0.7c1.4-0.3,3-0.5,4.7-0.6c2.1-0.2,4-0.3,5.7-0.3c1.7,0,2.9,0,3.6,0.1
			c-6.2,11.3-12.4,22.7-18.6,34c0,5.8,0,11.6,0,17.4c-1.7,0.4-3.2,0.8-4.5,1c-1.4,0.3-2.6,0.4-3.7,0.5c-1.1,0.1-2.3,0.2-3.7,0.2
			c-1.3,0-2.8-0.1-4.4-0.2c0-5.8,0-11.6,0-17.4c-6.2-10.2-12.3-20.3-18.5-30.5c0.7-0.2,1.9-0.4,3.7-0.7c1.8-0.3,3.7-0.6,5.8-0.8
			c1.7-0.2,3.3-0.3,4.9-0.3c1.6,0,2.7,0,3.2,0.1c3.1,6,6.3,12.1,9.4,18.1C446.6,396.3,449.7,389.7,452.9,383.1z"/>
		<path class="st2" d="M485.2,415.3c0.6,0.1,1.4,0.2,2.6,0.3c1.2,0.1,2.4,0.1,3.7,0c0.8-0.1,1.6-0.2,2.5-0.4
			c0.9-0.2,1.7-0.5,2.5-1.1c0.7-0.5,1.4-1.3,1.9-2.3c0.5-1,0.8-2.4,0.8-4.1c0-11.1,0-22.1,0-33.2c-3.5,0.3-7,0.6-10.5,0.9
			c-0.6-2.6-0.9-5.2-0.9-7.5c0-2.2,0.3-4.7,0.9-7.5c9.2-0.8,18.4-1.5,27.6-2.2c0,16.7,0,33.4,0,50.1c0,3.7-0.6,6.8-1.7,9.5
			c-1.2,2.7-2.7,4.9-4.7,6.7c-2,1.8-4.3,3.1-7,4.1c-2.7,1-5.5,1.6-8.6,1.8c-1.9,0.2-3.7,0.2-5.6,0c-1.9-0.1-3.5-0.4-5-0.7
			c-0.1-0.5-0.1-1-0.1-1.5c0-0.5,0-1.1,0-1.6C483.2,422.8,483.9,419.1,485.2,415.3z"/>
		<path class="st2" d="M519.6,402.5c0-3.9,0.5-7.5,1.6-10.9c1.1-3.3,2.6-6.2,4.7-8.7c2.1-2.5,4.7-4.4,7.8-5.9
			c3.1-1.5,6.6-2.3,10.7-2.6c4.1-0.2,7.7,0.2,10.8,1.3c3.1,1.1,5.7,2.7,7.8,5c2.1,2.2,3.7,4.9,4.7,8.1c1.1,3.2,1.6,6.8,1.6,10.7
			c0,3.9-0.5,7.4-1.6,10.6c-1.1,3.2-2.6,6-4.7,8.4c-2.1,2.4-4.7,4.3-7.8,5.6c-3.1,1.4-6.7,2.2-10.8,2.4c-4,0.2-7.6-0.1-10.7-1.2
			c-3.1-1-5.7-2.6-7.8-4.7c-2.1-2.1-3.7-4.8-4.7-7.9C520.1,409.8,519.6,406.4,519.6,402.5z M552.7,400.4c0-4.1-0.7-7.2-2.1-9.3
			c-1.4-2.1-3.5-3.1-6.3-2.9c-2.8,0.2-4.9,1.4-6.3,3.7c-1.4,2.3-2,5.5-2,9.6c0,4,0.7,7.1,2,9.2c1.3,2.1,3.4,3.1,6.3,2.9
			c2.8-0.2,4.9-1.4,6.3-3.6C552,407.6,552.7,404.4,552.7,400.4z"/>
		<path class="st2" d="M586.7,403.8c0.7,2.6,1.9,4.4,3.7,5.5c1.8,1,4.1,1.5,7,1.5c1.9,0,4-0.3,6.3-0.8c2.3-0.5,4.6-1.2,6.8-2.1
			c0.9,1.7,1.7,3.6,2.4,6c0.7,2.3,1,4.7,1.1,7.2c-5.7,2.2-11.6,3.3-17.5,3.4c-4.6,0.1-8.6-0.4-11.9-1.6c-3.3-1.2-6-2.9-8.1-5.1
			c-2.1-2.2-3.6-4.9-4.6-8c-1-3.1-1.5-6.5-1.5-10.2c0-3.7,0.5-7.1,1.5-10.4c1-3.3,2.6-6.1,4.6-8.6c2.1-2.5,4.6-4.4,7.7-5.9
			c3.1-1.5,6.7-2.3,10.8-2.4c3.4-0.1,6.4,0.4,9.1,1.6c2.7,1.1,4.9,2.7,6.8,4.7c1.9,2,3.3,4.4,4.3,7.3c1,2.9,1.5,6,1.5,9.3
			c0,1.7-0.1,3.3-0.2,4.7c-0.2,1.4-0.3,2.5-0.4,3.4C606.3,403.4,596.5,403.5,586.7,403.8z M594.4,384.6c-2.1,0-3.8,0.7-5.3,2.1
			c-1.5,1.3-2.3,3.3-2.6,6.1c5.1-0.2,10.3-0.3,15.4-0.4c-0.1-2.2-0.8-4.1-2.1-5.6C598.6,385.3,596.8,384.6,594.4,384.6z"/>
	</g>
	<g>
		<path d="M263.1,478.6c0-0.2,0.5-2.1,0.5-2.6c0.2-0.7,0.5-1.8,0.8-2.6c0.2-0.6,0.7-2.4,1-2.6c0.2-0.3,0.7-1.3,0.7-1.5
			c0.3-0.3,1-1.6,1.3-1.9c0-0.3,1.3-1.6,1.8-2.1c0.2-0.2,0.3-0.4,0.5-0.6c0.4-0.4,0.8-0.7,1.3-1.1c0.8-0.6,1.6-1.3,2.4-1.9
			c0.3-0.2,0.7-0.4,1-0.5c0.2,0,1.3-1.1,1.5-1.1c0.5-0.3,0.8-0.3,1.3-0.6c0.8-0.3,1.7-0.6,2.5-0.9c0.3,0,2.4-0.4,2.8-0.4
			c1.2-0.1,2.4-0.1,3.6-0.2c0,0,1,0.2,1.6,0.2c0.2,0,1.3,0.2,1.3,0.2c0.3,0.1,0.5,0.1,0.8,0.2c0.3,0.1,0.7,0.1,1,0.2
			c0.2,0,0.8,0.2,0.8,0.2c0.2,0.3,1.3,0.7,1.5,0.7c0.2,0.2,2.8,1.7,3.1,1.9c0.2,0.1,0.4,0.1,0.5,0.2c0.2,0,0.3,0,0.5,0
			c0.1-0.1,0.2-0.2,0.3-0.3c0.1-0.4,0.2-0.9,0.2-1.3c0-0.2,0.2-1,0.2-1c0.1-0.1,0.2-0.2,0.2-0.3c0.3,0,0.8-0.4,0.8-0.4
			c1-0.1,2.1-0.1,3.1-0.2c0.3,0,0.5,0.3,0.8,0.5c0.1,0.2,0.2,0.3,0.2,0.5c0,0.9,0,1.7,0,2.6c0,1.6-0.2,8.3-0.2,9.8
			c-0.1,0.2-0.2,0.3-0.2,0.5c-0.2,0.3-0.8,0.6-1,0.6c-0.8,0-1.6,0.1-2.4,0.1c-0.2-0.1-0.3-0.1-0.5-0.2c-0.2-0.2-0.4-0.3-0.5-0.5
			c-0.1-0.2-0.2-0.3-0.2-0.5c-0.2-0.4-0.3-0.9-0.5-1.3c-0.3-0.6-0.7-1.1-1-1.7c-0.3-0.5-2.4-2.2-2.8-2.7c0,0-1-0.5-1.3-0.7
			c-0.2-0.2-1.5-0.7-1.5-0.7c-0.5-0.2-2.4-0.7-2.6-0.6c-0.2,0-1.8-0.1-2.1-0.1c-1.2,0.1-2.4,0.1-3.6,0.2c-0.2,0-1.3,0.3-1.5,0.3
			c-0.3,0.1-0.5,0.2-0.8,0.3c-0.3,0.2-0.7,0.4-1,0.5c-0.3,0.1-0.5,0.2-0.8,0.3c-0.2,0-0.8,0.6-1,0.6c-0.2,0-1.3,0.8-1.6,1.1
			c-0.2,0.3-1,0.8-1,0.8c-0.2,0.3-1.5,1.6-1.8,1.9c-0.3,0.3-1.3,1.3-1.3,1.6c-0.1,0.3-0.2,0.5-0.2,0.8c0,0.2-0.8,1.1-0.8,1.3
			c-0.1,0.2-0.2,0.4-0.2,0.6c-0.2,0.8-1,2.9-1,3.1c0,0.5-0.5,2.6-0.5,3.1c0,0.8,0,1.5,0,2.3c0,0.3,0.3,1.8,0.3,2.1
			c0,0.2,0.5,2,0.5,2.3c0.1,0.4,0.2,0.8,0.2,1.3c0.3,1,1,2,1.6,3c0,0.3,0.5,0.8,0.5,0.8c0.3,0.2,1.3,1.2,1.6,1.5
			c0.2,0.2,0.4,0.5,0.5,0.7c0.2,0.3,1.5,1.5,1.8,1.7c0,0,1.1,0.5,1.3,0.7c0.5,0.2,2.3,1.2,2.5,1.2c0.3,0,1.3,0.5,1.6,0.5
			c0.2,0,1.8,0.2,2.3,0.1c1.1-0.1,2.1-0.1,3.2-0.2c0.5,0,2.3-0.4,2.5-0.4c0.2,0,2.4-0.9,2.8-1.2c0.2-0.3,1.8-0.9,2.1-1.1
			c0.2,0,0.8-0.6,1-0.8c0.3-0.3,0.8-0.8,1-1.1c0.3-0.3,1-1.1,1-1.3c0.2-0.4,0.4-0.7,0.5-1.1c0.2-0.6,1.3-2.4,1.5-2.7
			c0.1-0.1,0.2-0.2,0.3-0.3c0.2-0.3,1-0.6,1-0.6c1.1-0.1,2.2-0.1,3.3-0.2c0.2,0.1,0.4,0.2,0.5,0.3c0.1,0.1,0.2,0.2,0.2,0.2
			c0,0.5,0,1,0,1.5c0,0-0.2,0.6-0.2,0.8c-0.5,1.6-1.3,2.9-2.1,4.3c0,0.3-0.5,0.8-0.5,0.8c-0.5,0.6-3.6,3.9-4.1,4.4
			c-0.5,0.3-2.3,1.5-2.8,1.7c-0.2,0.3-1.6,0.9-1.6,0.9c0,0-1.3,0.6-1.5,0.6c-0.5,0.3-1.8,0.6-1.8,0.6c-0.2,0-2.3,0.4-2.8,0.4
			c-1,0.1-2.1,0.1-3.1,0.2c-0.5,0-2.8-0.1-3.4-0.1c-0.3-0.1-0.7-0.2-1-0.3c-0.2,0-1.3-0.2-1.5-0.2c0,0-0.5-0.2-0.8-0.2
			c-0.2,0-1.3-0.5-1.3-0.5c-0.3-0.2-2.1-0.9-2.6-1.2c0,0-1-0.4-1.3-0.7c-0.3,0-0.8-0.5-0.8-0.5c-1.2-1.2-2.4-2.3-3.6-3.5
			c0,0-0.8-1-1-1.2c-0.2-0.2-1-1.3-1-1.5c-0.2-0.5-1-2.3-1.3-2.5c0-0.3-0.5-1.8-0.8-2.3c-0.2-0.8-0.2-1.8-0.5-2.5
			c-0.3-1-0.5-3.6-0.5-3.6c0-0.9,0-1.9,0-2.8C262.9,480.4,263.1,479.1,263.1,478.6z"/>
		<path d="M310.5,483.4c0,0,0.3-1.3,0.5-1.6c0-0.2,0.5-1.1,0.5-1.3c0-0.2,0.5-1.1,0.5-1.1c0.2-0.3,0.8-1.3,1-1.6c0,0,0.8-1.1,1-1.3
			c0.1-0.1,0.2-0.2,0.2-0.3c0.3-0.3,1.3-1.1,1.6-1.4c0.2-0.3,1-0.9,1-0.9c0.2-0.3,2.1-1.2,2.6-1.5c0.2,0,1-0.6,1.3-0.6
			c0.3,0,1.3-0.6,1.6-0.7c1.8-0.1,3.6-0.3,5.5-0.4c0.2,0,2.3,0.1,2.8,0.3c0.2,0,1.3,0.4,1.6,0.4c0.2,0,1.5,0.9,2.1,1.1
			c0.2,0.3,1,0.7,1,0.7c0.5,0.5,2.3,2.2,2.6,2.4c0,0,1,1.2,1.3,1.7c0.1,0.2,0.2,0.3,0.2,0.5c0.5,1,0.8,1.8,1,2.8
			c0,0.3,0.3,1.1,0.3,1.1c0,0.2,0.2,1.7,0.2,2c0,0.5,0,1,0,1.5c0,0.5-0.2,2.4-0.2,2.6c0,0.2-0.5,1.6-0.5,2.1c0,0.3-0.5,1.4-0.5,1.6
			c-0.2,0.3-0.4,0.6-0.5,0.8c-0.3,0.4-0.5,0.9-0.8,1.3c0,0.2-0.5,0.8-0.5,0.8c-0.3,0.3-0.8,1.1-1,1.4c-0.3,0.3-0.5,0.6-0.8,0.9
			c-0.3,0.3-1.8,1.5-2.1,1.7c0,0-1.3,0.6-1.6,0.9c-0.2,0-1,0.6-1.3,0.6c-0.2,0-1.5,0.7-1.5,0.7c-0.2,0-1.3,0.3-1.6,0.4
			c-1.1,0.1-2.2,0.2-3.3,0.3c-0.8,0.1-3.2,0-3.4,0c-0.2,0-1.8-0.4-2.1-0.6c0,0-1.8-0.9-2.6-1.4c-0.2,0-0.8-0.4-0.8-0.4
			c-0.5-0.5-2.3-2.2-2.6-2.4c-0.2-0.2-1-1.5-1.3-1.7c-0.2-0.2-0.8-1.2-0.8-1.5c-0.2-0.5-0.8-2-0.8-2.3c0-0.2-0.2-2.3-0.2-3.1
			c0-0.8,0-1.6,0-2.4C310.3,485.3,310.5,483.7,310.5,483.4z M316.2,490c0,0.3,0.5,1.1,0.5,1.3c0,0.2,0.5,1,0.5,1
			c0,0.2,0.8,1,1.1,1.2c0.2,0.3,1.3,1.2,1.3,1.2c0.6,0.3,1.2,0.6,1.8,0.9c0.2,0.1,0.3,0.1,0.5,0.2c0.3,0,1.3,0.4,1.6,0.4
			c1.5-0.1,3-0.2,4.4-0.3c0,0,1.8-0.7,2.3-1c0.2-0.1,0.4-0.2,0.5-0.3c0.2-0.3,1.3-1.1,1.6-1.4c0.3-0.4,0.7-0.7,1-1.1
			c0,0,0.5-1.1,0.8-1.3c0.1-0.2,0.2-0.4,0.2-0.6c0.1-0.3,0.2-0.5,0.2-0.8c0.2-0.4,0.4-0.7,0.5-1.1c0-0.2,0.2-1,0.2-1
			c0-1.5,0-2.9,0-4.4c0-0.2-0.5-1.2-0.5-1.5c-0.2-0.5-1-2.3-1.3-2.5c0,0-0.8-1-1-1.2c-0.1-0.1-0.2-0.2-0.2-0.3
			c-0.3,0-1.1-0.6-1.3-0.6c-0.2-0.3-1.3-0.7-1.5-0.7c-0.3,0-1.3-0.4-1.6-0.4c-0.2,0-1-0.2-1.3-0.1c-0.5,0-1,0.1-1.5,0.1
			c-0.2,0-1.3,0.3-1.6,0.4c-0.2,0-1,0.3-1,0.3c-0.2,0-1.3,0.6-1.6,0.9c-0.2,0-0.7,0.6-0.7,0.6c-0.3,0.3-1.3,1.4-1.6,1.6
			c0,0-0.8,1.1-1,1.4c0,0.2-0.5,0.8-0.5,0.8c-0.2,0.4-0.3,0.9-0.5,1.3c0,0.2-0.5,0.8-0.5,1.1c0,1.7,0,3.5,0,5.2
			C316,489.3,316.2,489.8,316.2,490z"/>
		<path d="M346.4,494.9c0.1-0.1,0.2-0.2,0.2-0.3c0,0,1-0.3,1.3-0.3c0.3,0,1.8-0.4,2.1-0.4c0.3-0.3,0.5-0.6,0.8-0.9
			c0-5.9,0-11.9,0-17.8c-0.1-0.2-0.2-0.3-0.3-0.5c-0.2-0.1-0.3-0.1-0.5-0.2c-0.3,0-1.8-0.1-2.1-0.1c-0.2,0-1.3-0.1-1.3-0.1
			c-0.1-0.1-0.2-0.2-0.2-0.3c0-1.2,0-2.4,0-3.6c0.2-0.3,0.3-0.6,0.5-0.8c1.1-0.1,2.3-0.2,3.4-0.3c0,0,0.5-0.3,0.5-0.6
			c0-0.2,0.5-1.1,0.5-1.1c0-2.2,0-4.4,0-6.7c0,0,0.3-1.6,0.5-2.2c0.2-0.5,0.5-1.6,0.5-1.6c0.3-0.3,1.8-2.2,2.4-2.5
			c0,0,1.3-0.7,1.6-0.9c0.2,0,1.3-0.7,1.6-0.7c0.2,0,1.5-0.4,1.8-0.4c0.8-0.1,1.5-0.1,2.3-0.2c0.2,0.2,0.4,0.3,0.5,0.5
			c0,1.2,0,2.4,0,3.6c-0.1,0.2-0.2,0.4-0.2,0.6c-0.1,0.1-0.2,0.2-0.3,0.3c0,0-0.7,0.3-1,0.3c-0.4,0.1-0.8,0.2-1.3,0.4
			c-0.3,0-0.8,0.4-0.8,0.4c0,0-0.5,0.5-0.8,0.6c-0.1,0.1-0.2,0.2-0.2,0.3c0,0-0.5,0.8-0.5,1.1c0,0-0.2,0.5-0.2,0.7
			c0,0.3-0.3,1.1-0.3,1.1c0,1.8,0,3.6,0,5.5c0.1,0.2,0.2,0.3,0.3,0.5c0.2,0.2,0.3,0.3,0.5,0.5c0,0,0.5,0.2,0.8,0.2
			c0.5,0,2.6,0,3.2,0c0.1,0.1,0.2,0.2,0.2,0.3c0.1,0.2,0.2,0.3,0.2,0.5c0,0.9,0,1.7,0,2.6c-0.1,0.2-0.2,0.3-0.2,0.5
			c0,0.3-0.5,0.6-0.5,0.6c-1.2,0.1-2.5,0.2-3.7,0.3c0,0-0.2,0.5-0.5,0.8c-0.1,0.2-0.2,0.3-0.3,0.5c0,0.5-0.2,3.7-0.2,4.1
			c0,4.4,0,8.8,0,13.2c0.1,0.2,0.2,0.3,0.2,0.5c0.2,0.2,0.4,0.3,0.5,0.5c0,0,0.8,0.2,1,0.2c0.8-0.1,1.6-0.1,2.4-0.2
			c0,0,0.5,0.2,0.8,0.2c0.1,0.1,0.2,0.2,0.2,0.3c0.1,0.2,0.2,0.3,0.2,0.5c0,0.5,0.3,2,0.3,2.3c0,0-0.3,0.6-0.3,0.8
			c-0.2,0.2-0.3,0.4-0.5,0.6c-0.2,0.1-0.4,0.2-0.5,0.3c-4.5,0.4-9,0.8-13.5,1.2c-0.3,0-0.8-0.2-1-0.2c-0.2-0.2-0.4-0.3-0.5-0.5
			c0-0.8,0-1.7,0-2.5C345.9,496,346.1,495.2,346.4,494.9z"/>
		<path d="M368.1,493c0.1-0.1,0.2-0.2,0.2-0.3c0,0,1-0.3,1.3-0.4c0.3,0,1.8-0.4,2.1-0.4c0.3-0.3,0.5-0.6,0.8-0.9
			c0-5.9,0-11.9,0-17.8c-0.1-0.2-0.2-0.3-0.3-0.5c-0.2-0.1-0.3-0.1-0.5-0.2c-0.3,0-1.8-0.1-2.1-0.1c-0.2,0-1.3-0.1-1.3-0.1
			c-0.1-0.1-0.2-0.2-0.2-0.3c0-1.2,0-2.4,0-3.6c0.2-0.3,0.3-0.6,0.5-0.8c1.1-0.1,2.3-0.2,3.4-0.3c0,0,0.5-0.3,0.5-0.6
			c0-0.2,0.5-1.1,0.5-1.1c0-2.2,0-4.4,0-6.7c0,0,0.3-1.6,0.5-2.2c0.2-0.5,0.5-1.6,0.5-1.6c0.3-0.3,1.8-2.2,2.4-2.5
			c0,0,1.3-0.7,1.6-0.9c0.2,0,1.3-0.7,1.6-0.7c0.2,0,1.5-0.4,1.8-0.4c0.8-0.1,1.5-0.1,2.3-0.2c0.2,0.2,0.4,0.3,0.5,0.5
			c0,1.2,0,2.4,0,3.6c-0.1,0.2-0.2,0.4-0.2,0.6c-0.1,0.1-0.2,0.2-0.3,0.3c0,0-0.7,0.3-1,0.3c-0.4,0.1-0.8,0.2-1.3,0.4
			c-0.3,0-0.8,0.4-0.8,0.4c0,0-0.5,0.5-0.8,0.6c-0.1,0.1-0.2,0.2-0.2,0.3c0,0-0.5,0.8-0.5,1.1c0,0-0.2,0.5-0.2,0.7
			c0,0.3-0.3,1.1-0.3,1.1c0,1.8,0,3.6,0,5.5c0.1,0.2,0.2,0.3,0.3,0.5c0.2,0.2,0.3,0.3,0.5,0.5c0,0,0.5,0.2,0.8,0.2
			c0.5-0.1,2.6,0,3.2-0.1c0.1,0.1,0.2,0.2,0.2,0.3c0.1,0.2,0.2,0.3,0.2,0.5c0,0.9,0,1.7,0,2.6c-0.1,0.2-0.2,0.3-0.2,0.5
			c0,0.3-0.5,0.6-0.5,0.6c-1.2,0.1-2.5,0.2-3.7,0.3c0,0-0.2,0.5-0.5,0.8c-0.1,0.2-0.2,0.3-0.3,0.5c0,0.5-0.2,3.7-0.2,4.1
			c0,4.4,0,8.8,0,13.2c0.1,0.2,0.2,0.3,0.2,0.5c0.2,0.2,0.4,0.3,0.5,0.5c0,0,0.8,0.2,1,0.1c0.8-0.1,1.6-0.1,2.4-0.2
			c0,0,0.5,0.2,0.8,0.2c0.1,0.1,0.2,0.2,0.2,0.3c0.1,0.2,0.2,0.3,0.2,0.5c0,0.5,0.3,2,0.3,2.3c0,0-0.3,0.6-0.3,0.8
			c-0.2,0.2-0.3,0.4-0.5,0.6c-0.2,0.1-0.4,0.2-0.5,0.3c-4.5,0.4-9,0.8-13.5,1.2c-0.3,0-0.8-0.2-1-0.1c-0.2-0.2-0.4-0.3-0.5-0.5
			c0-0.8,0-1.7,0-2.5C367.6,494.1,367.8,493.3,368.1,493z"/>
		<path d="M390.5,474.9c0.2-1.1,0.8-1.9,1.3-2.7c0-0.3,0.5-0.8,0.5-0.8c0.2-0.3,1-1.4,1-1.4c0.5-0.6,2.1-2.3,2.3-2.6
			c0.3-0.3,1.3-0.9,1.6-1.2c0.6-0.3,1.2-0.6,1.8-1c0.3-0.1,0.5-0.2,0.8-0.3c0.5,0,1.8-0.7,2.1-0.7c0.2,0,1.6-0.4,1.8-0.4
			c0.3,0,0.7-0.1,1-0.1c0.2,0,1.8,0.1,2.3,0c0.3,0,1.3,0.2,1.6,0.2c0.2,0,1.6,0.3,1.8,0.3c0.3,0,0.7,0.1,1,0.1
			c0.2,0.1,0.4,0.2,0.5,0.3c0.2,0.2,1.3,0.6,1.3,0.6c0.5,0.3,1.8,1.2,2.1,1.4c0.3,0.2,1.3,1.4,1.8,1.9c0,0,0.5,0.5,0.5,0.7
			c0.2,0.2,1,1.7,1,2c0,0,0.5,1.3,0.5,1.5c0.5,1.2,0.5,2.8,0.5,4.1c0,0.5,0,1,0,1.5c-0.1,0.2-0.2,0.4-0.2,0.6
			c-0.1,0.1-0.2,0.2-0.3,0.3c-0.2,0-0.7,0.3-0.7,0.3c-0.3,0-0.5,0.1-0.8,0.1c-6.5,0.6-13.2,1-19.9,1.7c-0.3,0-0.5,0.1-0.8,0.1
			c-0.3,0-0.8,0.3-1,0.3c-0.1,0.1-0.2,0.2-0.3,0.3c0,0.2,0,0.5,0,0.7c0,0.8,0,1.6,0.5,2.3c0.2,0.2,0.8,1.2,0.8,1.2
			c0.2,0.3,2.1,1.9,2.5,2.4c0,0,0.3,0.2,0.5,0.2c0.2,0,1,0.4,1.3,0.4c0.5,0.2,1.6,0.3,1.6,0.3c1.3-0.1,2.6-0.2,3.9-0.4
			c0.2,0,1.8-0.4,2.1-0.4c0,0,0.5-0.3,0.8-0.3c0.3,0,1-0.6,1-0.6c0.3-0.3,1.3-1.2,1.6-1.2c0.2-0.3,2.1-2,2.3-2.3
			c0.3-0.3,0.8-0.6,0.8-0.6c0,0,1.6-0.4,2.1-0.4c0.1,0,0.2,0,0.2,0c0.2,0,0.8,0.2,0.8,0.2c0.2,0.2,0.3,0.3,0.5,0.5
			c0,0.1,0,0.2,0,0.2c0,0.3-0.2,1.1-0.2,1.1c0,0-0.5,0.8-0.5,1.1c0,0.2-0.5,0.8-0.5,0.8c-0.9,1-1.9,2.1-2.8,3.1
			c-0.3,0.3-1.8,1.5-2.4,1.8c0,0-0.8,0.6-1,0.6c-0.2,0-1,0.6-1.3,0.6c-0.2,0-0.8,0.3-0.8,0.3c-0.2,0-1,0.4-1.3,0.4
			c-0.5,0.1-1.8,0.4-1.8,0.4c-0.9,0.1-1.9,0.2-2.8,0.3c-0.5,0.1-2.4-0.3-2.8-0.3c-0.3,0-1.6-0.3-2.1-0.5c-0.2,0-1.3-0.4-1.5-0.6
			c-0.5-0.2-1.8-0.9-1.8-0.9c-0.2-0.3-1.8-1.6-2.4-2.1c0,0-0.5-0.4-0.5-0.7c-0.3-0.2-0.8-1.2-0.8-1.2c-0.2-0.5-1-2-1-2.3
			c-0.2-0.5-0.8-2.8-0.8-3c0-1.6,0-3.3,0-4.9C389.7,478.1,390.3,475.7,390.5,474.9z M396.5,476.7c0.2,0.1,0.4,0.1,0.5,0.2
			c5.4-0.5,10.7-1,16.1-1.5c0.1-0.1,0.2-0.2,0.2-0.3c0.1-0.2,0.2-0.4,0.2-0.6c0-0.1,0-0.2,0-0.2c-0.1-0.3-0.2-0.5-0.2-0.8
			c0-0.2-0.5-1-0.5-1c-0.3-0.2-0.8-1.2-1.1-1.4c-0.2-0.2-0.3-0.3-0.5-0.5c-0.2-0.2-1-0.7-1.3-0.9c-0.3,0-0.8-0.5-0.8-0.5
			c0,0-0.5-0.2-0.8-0.2c-0.5-0.2-2.1-0.3-2.4-0.3c-0.5,0-1,0.1-1.5,0.1c-0.3,0-1.6,0.4-1.8,0.4c-0.2,0-0.8,0.3-1,0.3
			c-0.3,0-1,0.6-1.3,0.7c-0.2,0-1,0.6-1,0.6c-0.2,0.3-1.5,1.7-1.8,2c-0.2,0.3-0.8,1.4-1,1.7c-0.1,0.3-0.2,0.5-0.2,0.8
			c0,0.3,0,0.7,0,1C396.3,476.5,396.4,476.6,396.5,476.7z"/>
		<path d="M425.8,471.5c0.2-1.1,0.8-1.9,1.3-2.7c0-0.3,0.5-0.8,0.5-0.8c0.2-0.3,1-1.4,1-1.4c0.5-0.6,2.1-2.3,2.3-2.6
			c0.3-0.3,1.3-0.9,1.6-1.2c0.6-0.3,1.2-0.6,1.8-1c0.3-0.1,0.5-0.2,0.8-0.3c0.5,0,1.8-0.7,2.1-0.7c0.2,0,1.6-0.4,1.8-0.4
			c0.3,0,0.7-0.1,1-0.1c0.2,0,1.8,0.1,2.3,0c0.3,0,1.3,0.2,1.6,0.2c0.2,0,1.6,0.3,1.8,0.3c0.3,0,0.7,0.1,1,0.1
			c0.2,0.1,0.4,0.2,0.5,0.3c0.2,0.2,1.3,0.6,1.3,0.6c0.5,0.3,1.8,1.2,2.1,1.4c0.3,0.2,1.3,1.4,1.8,1.9c0,0,0.5,0.5,0.5,0.7
			c0.2,0.2,1,1.7,1,2c0,0,0.5,1.3,0.5,1.5c0.5,1.2,0.5,2.8,0.5,4.1c0,0.5,0,1,0,1.5c-0.1,0.2-0.2,0.4-0.2,0.6
			c-0.1,0.1-0.2,0.2-0.3,0.3c-0.2,0-0.7,0.3-0.7,0.3c-0.3,0-0.5,0-0.8,0.1c-6.5,0.6-13.2,1-19.9,1.7c-0.3,0-0.5,0.1-0.8,0.1
			c-0.3,0-0.8,0.3-1,0.3c-0.1,0.1-0.2,0.2-0.3,0.3c0,0.2,0,0.5,0,0.7c0,0.8,0,1.6,0.5,2.3c0.2,0.2,0.8,1.2,0.8,1.2
			c0.2,0.3,2.1,1.9,2.5,2.4c0,0,0.3,0.2,0.5,0.2c0.2,0,1,0.4,1.3,0.4c0.5,0.2,1.6,0.3,1.6,0.3c1.3-0.1,2.6-0.2,3.9-0.4
			c0.2,0,1.8-0.4,2.1-0.4c0,0,0.5-0.3,0.8-0.3c0.3,0,1-0.6,1-0.6c0.3-0.3,1.3-1.2,1.6-1.2c0.2-0.3,2.1-2,2.3-2.3
			c0.3-0.3,0.8-0.6,0.8-0.6c0,0,1.6-0.4,2.1-0.4c0.1,0,0.2,0,0.2,0c0.2,0,0.8,0.2,0.8,0.2c0.2,0.2,0.3,0.3,0.5,0.5
			c0,0.1,0,0.2,0,0.2c0,0.3-0.2,1.1-0.2,1.1c0,0-0.5,0.8-0.5,1.1c0,0.2-0.5,0.8-0.5,0.8c-0.9,1-1.9,2.1-2.8,3.1
			c-0.3,0.3-1.8,1.5-2.4,1.8c0,0-0.8,0.6-1,0.6c-0.2,0-1,0.6-1.3,0.6c-0.2,0-0.8,0.3-0.8,0.3c-0.2,0-1,0.4-1.3,0.4
			c-0.5,0.1-1.8,0.4-1.8,0.4c-0.9,0.1-1.9,0.2-2.8,0.3c-0.5,0.1-2.4-0.3-2.8-0.3c-0.3,0-1.6-0.3-2.1-0.5c-0.2,0-1.3-0.4-1.5-0.6
			c-0.5-0.2-1.8-0.9-1.8-0.9c-0.2-0.3-1.8-1.6-2.4-2.1c0,0-0.5-0.4-0.5-0.7c-0.3-0.2-0.8-1.2-0.8-1.2c-0.2-0.5-1-2-1-2.3
			c-0.2-0.5-0.8-2.8-0.8-3c0-1.6,0-3.3,0-4.9C425,474.7,425.6,472.3,425.8,471.5z M431.7,473.3c0.2,0.1,0.4,0.1,0.5,0.2
			c5.4-0.5,10.7-1,16.1-1.5c0.1-0.1,0.2-0.2,0.2-0.3c0.1-0.2,0.2-0.4,0.2-0.6c0-0.1,0-0.2,0-0.2c-0.1-0.3-0.2-0.5-0.2-0.8
			c0-0.2-0.5-1-0.5-1c-0.3-0.2-0.8-1.2-1.1-1.4c-0.2-0.2-0.3-0.3-0.5-0.5c-0.2-0.2-1-0.7-1.3-0.9c-0.3,0-0.8-0.5-0.8-0.5
			c0,0-0.5-0.2-0.8-0.2c-0.5-0.2-2.1-0.3-2.4-0.3c-0.5,0-1,0.1-1.5,0.1c-0.3,0-1.6,0.4-1.8,0.4c-0.2,0-0.8,0.3-1,0.3
			c-0.3,0-1,0.6-1.3,0.7c-0.2,0-1,0.6-1,0.6c-0.2,0.3-1.5,1.7-1.8,2c-0.2,0.3-0.8,1.4-1,1.7c-0.1,0.3-0.2,0.5-0.2,0.8
			c0,0.3,0,0.7,0,1C431.6,473.1,431.7,473.2,431.7,473.3z"/>
		<path d="M479.9,460.9c0-0.2,0.5-2.1,0.5-2.7c0.2-0.7,0.5-1.9,0.8-2.6c0.2-0.6,0.7-2.4,1-2.7c0.2-0.3,0.7-1.3,0.7-1.6
			c0.3-0.3,1-1.7,1.3-1.9c0-0.3,1.3-1.7,1.8-2.2c0.2-0.2,0.3-0.4,0.5-0.6c0.4-0.4,0.8-0.8,1.3-1.1c0.8-0.6,1.6-1.4,2.4-2
			c0.3-0.2,0.7-0.4,1-0.6c0.2,0,1.3-1.1,1.5-1.2c0.5-0.3,0.8-0.4,1.3-0.7c0.8-0.3,1.7-0.7,2.5-1c0.3,0,2.4-0.4,2.8-0.5
			c1.2-0.1,2.4-0.2,3.6-0.3c0,0,1,0.2,1.6,0.1c0.2,0,1.3,0.2,1.3,0.2c0.3,0.1,0.5,0.1,0.8,0.2c0.3,0.1,0.7,0.1,1,0.2
			c0.2,0,0.8,0.2,0.8,0.2c0.2,0.3,1.3,0.7,1.5,0.7c0.2,0.2,2.8,1.6,3.1,1.8c0.2,0.1,0.4,0.1,0.5,0.2c0.2,0,0.3,0,0.5,0
			c0.1-0.1,0.2-0.2,0.3-0.3c0.1-0.4,0.2-0.9,0.2-1.3c0-0.2,0.2-1,0.2-1c0.1-0.1,0.2-0.2,0.2-0.3c0.3,0,0.8-0.4,0.8-0.4
			c1-0.1,2.1-0.2,3.1-0.2c0.3,0,0.5,0.3,0.8,0.5c0.1,0.2,0.2,0.3,0.2,0.5c0,0.9,0,1.7,0,2.6c0,1.6-0.2,8.3-0.2,9.8
			c-0.1,0.2-0.2,0.3-0.2,0.5c-0.2,0.3-0.8,0.6-1,0.6c-0.8,0.1-1.6,0.1-2.4,0.2c-0.2-0.1-0.3-0.1-0.5-0.2c-0.2-0.2-0.4-0.3-0.5-0.5
			c-0.1-0.2-0.2-0.3-0.2-0.5c-0.2-0.4-0.3-0.9-0.5-1.3c-0.3-0.6-0.7-1.1-1-1.7c-0.3-0.5-2.4-2.2-2.8-2.6c0,0-1-0.5-1.3-0.7
			c-0.2-0.2-1.5-0.7-1.5-0.7c-0.5-0.2-2.4-0.6-2.6-0.6c-0.2,0-1.8-0.1-2.1-0.1c-1.2,0.1-2.4,0.2-3.6,0.3c-0.2,0-1.3,0.3-1.5,0.4
			c-0.3,0.1-0.5,0.2-0.8,0.4c-0.3,0.2-0.7,0.4-1,0.6c-0.3,0.1-0.5,0.2-0.8,0.3c-0.2,0-0.8,0.6-1,0.6c-0.2,0-1.3,0.9-1.6,1.2
			c-0.2,0.3-1,0.9-1,0.9c-0.2,0.3-1.5,1.6-1.8,2c-0.3,0.3-1.3,1.4-1.3,1.6c-0.1,0.3-0.2,0.5-0.2,0.8c0,0.2-0.8,1.1-0.8,1.3
			c-0.1,0.2-0.2,0.4-0.2,0.6c-0.2,0.8-1,2.9-1,3.2c0,0.5-0.5,2.7-0.5,3.1c0,0.8,0,1.5,0,2.3c0,0.3,0.3,1.8,0.3,2.1
			c0,0.2,0.5,2,0.5,2.3c0.1,0.4,0.2,0.8,0.2,1.3c0.3,1,1,2,1.6,3c0,0.3,0.5,0.7,0.5,0.7c0.3,0.2,1.3,1.2,1.6,1.4
			c0.2,0.2,0.4,0.5,0.5,0.7c0.2,0.3,1.5,1.4,1.8,1.7c0,0,1.1,0.5,1.3,0.7c0.5,0.2,2.3,1.1,2.5,1.1c0.3,0,1.3,0.4,1.6,0.4
			c0.2,0,1.8,0.1,2.3,0.1c1.1-0.1,2.1-0.2,3.2-0.3c0.5,0,2.3-0.4,2.5-0.4c0.2,0,2.4-1,2.8-1.3c0.2-0.3,1.8-0.9,2.1-1.2
			c0.2,0,0.8-0.6,1-0.9c0.3-0.3,0.8-0.8,1-1.1c0.3-0.3,1-1.1,1-1.4c0.2-0.4,0.4-0.7,0.5-1.1c0.2-0.6,1.3-2.5,1.5-2.7
			c0.1-0.1,0.2-0.2,0.3-0.3c0.2-0.3,1-0.6,1-0.6c1.1-0.1,2.2-0.2,3.3-0.2c0.2,0.1,0.4,0.2,0.5,0.3c0.1,0.1,0.2,0.1,0.2,0.2
			c0,0.5,0,1,0,1.5c0,0-0.2,0.6-0.2,0.8c-0.5,1.6-1.3,2.9-2.1,4.3c0,0.3-0.5,0.8-0.5,0.8c-0.5,0.6-3.6,3.9-4.1,4.4
			c-0.5,0.3-2.3,1.5-2.8,1.8c-0.2,0.3-1.6,0.9-1.6,0.9c0,0-1.3,0.6-1.5,0.6c-0.5,0.3-1.8,0.7-1.8,0.7c-0.2,0-2.3,0.4-2.8,0.5
			c-1,0.1-2.1,0.2-3.1,0.2c-0.5,0-2.8,0-3.4,0c-0.3-0.1-0.7-0.1-1-0.2c-0.2,0-1.3-0.1-1.5-0.1c0,0-0.5-0.2-0.8-0.2
			c-0.2,0-1.3-0.4-1.3-0.4c-0.3-0.2-2.1-0.9-2.6-1.1c0,0-1-0.4-1.3-0.7c-0.3,0-0.8-0.4-0.8-0.4c-1.2-1.1-2.4-2.2-3.6-3.3
			c0,0-0.8-1-1-1.2c-0.2-0.2-1-1.2-1-1.5c-0.2-0.5-1-2.2-1.3-2.4c0-0.3-0.5-1.8-0.8-2.3c-0.2-0.8-0.2-1.8-0.5-2.5
			c-0.3-1-0.5-3.6-0.5-3.6c0-0.9,0-1.9,0-2.8C479.7,462.8,479.9,461.4,479.9,460.9z"/>
		<path d="M527.3,464.5c0,0,0.3-1.3,0.5-1.6c0-0.2,0.5-1.1,0.5-1.3c0-0.2,0.5-1.1,0.5-1.1c0.2-0.3,0.8-1.3,1-1.6c0,0,0.8-1.1,1-1.3
			c0.1-0.1,0.2-0.2,0.2-0.3c0.3-0.3,1.3-1.1,1.6-1.4c0.2-0.3,1-0.9,1-0.9c0.2-0.3,2.1-1.2,2.6-1.4c0.2,0,1-0.6,1.3-0.6
			c0.3,0,1.3-0.6,1.6-0.6c1.8-0.1,3.6-0.2,5.5-0.3c0.2,0,2.3,0.1,2.8,0.4c0.2,0,1.3,0.4,1.6,0.4c0.2,0,1.5,0.9,2.1,1.2
			c0.2,0.3,1,0.7,1,0.7c0.5,0.5,2.3,2.2,2.6,2.5c0,0,1,1.2,1.3,1.8c0.1,0.2,0.2,0.3,0.2,0.5c0.5,1.1,0.8,1.8,1,2.8
			c0,0.3,0.3,1.1,0.3,1.1c0,0.2,0.2,1.7,0.2,2c0,0.5,0,1,0,1.5c0,0.5-0.2,2.4-0.2,2.6c0,0.2-0.5,1.6-0.5,2.1c0,0.3-0.5,1.4-0.5,1.6
			c-0.2,0.3-0.4,0.5-0.5,0.8c-0.3,0.4-0.5,0.9-0.8,1.3c0,0.2-0.5,0.8-0.5,0.8c-0.3,0.3-0.8,1.1-1,1.3c-0.3,0.3-0.5,0.6-0.8,0.8
			c-0.3,0.3-1.8,1.4-2.1,1.7c0,0-1.3,0.6-1.6,0.9c-0.2,0-1,0.5-1.3,0.6c-0.2,0-1.5,0.6-1.5,0.6c-0.2,0-1.3,0.3-1.6,0.3
			c-1.1,0.1-2.2,0.1-3.3,0.2c-0.8,0-3.2,0-3.4,0c-0.2,0-1.8-0.4-2.1-0.7c0,0-1.8-0.9-2.6-1.4c-0.2,0-0.8-0.4-0.8-0.4
			c-0.5-0.5-2.3-2.2-2.6-2.4c-0.2-0.2-1-1.5-1.3-1.7c-0.2-0.2-0.8-1.2-0.8-1.5c-0.2-0.5-0.8-2-0.8-2.2c0-0.2-0.2-2.3-0.2-3.1
			c0-0.8,0-1.6,0-2.4C527.1,466.3,527.3,464.7,527.3,464.5z M533,471.1c0,0.3,0.5,1.1,0.5,1.3c0,0.2,0.5,1,0.5,1
			c0,0.2,0.8,1,1.1,1.2c0.2,0.3,1.3,1.3,1.3,1.3c0.6,0.3,1.2,0.6,1.8,0.9c0.2,0.1,0.3,0.1,0.5,0.2c0.3,0,1.3,0.5,1.6,0.4
			c1.5-0.1,3-0.2,4.4-0.3c0,0,1.8-0.7,2.3-0.9c0.2-0.1,0.4-0.2,0.5-0.3c0.2-0.3,1.3-1.1,1.6-1.4c0.3-0.4,0.7-0.7,1-1.1
			c0,0,0.5-1.1,0.8-1.3c0.1-0.2,0.2-0.4,0.2-0.6c0.1-0.3,0.2-0.5,0.2-0.8c0.2-0.4,0.4-0.7,0.5-1.1c0-0.2,0.2-1,0.2-1
			c0-1.5,0-3,0-4.4c0-0.2-0.5-1.2-0.5-1.5c-0.2-0.5-1-2.3-1.3-2.5c0,0-0.8-1-1-1.2c-0.1-0.1-0.2-0.2-0.2-0.3c-0.3,0-1.1-0.7-1.3-0.7
			c-0.2-0.3-1.3-0.7-1.5-0.7c-0.3,0-1.3-0.5-1.6-0.5c-0.2,0-1-0.2-1.3-0.2c-0.5,0-1,0.1-1.5,0.1c-0.2,0-1.3,0.3-1.6,0.3
			c-0.2,0-1,0.3-1,0.3c-0.2,0-1.3,0.6-1.6,0.9c-0.2,0-0.7,0.6-0.7,0.6c-0.3,0.3-1.3,1.4-1.6,1.6c0,0-0.8,1.1-1,1.4
			c0,0.2-0.5,0.8-0.5,0.8c-0.2,0.4-0.3,0.9-0.5,1.3c0,0.2-0.5,0.8-0.5,1.1c0,1.7,0,3.5,0,5.2C532.8,470.4,533,470.8,533,471.1z"/>
		<path d="M564,474.9c0,0,0.5-0.6,0.5-0.8c0.3-0.3,0.8-0.9,1.1-1.1c0.3-0.2,0.5-0.4,0.8-0.6c0.2,0,0.8-0.3,0.8-0.3
			c0.6,0,1.3-0.1,1.9-0.1c0.2,0,0.8,0.2,1,0.2c0.3,0.2,0.5,0.3,0.8,0.5c0.3,0.2,1.3,1.3,1.3,1.3c0,0.2,0.5,1.3,0.5,1.6
			c0,0.7,0,1.4,0,2.1c0,0-0.2,0.6-0.2,0.8c-0.1,0.2-0.2,0.4-0.3,0.6c0,0.2-0.5,0.8-0.5,0.8c0,0-0.5,0.6-0.8,0.6
			c-0.2,0.3-1.3,0.8-1.6,0.9c0,0-1.1,0.3-1.3,0.3c-0.1,0-0.2,0-0.2,0c-0.3,0-1.1-0.2-1.1-0.2c-0.2-0.1-0.4-0.2-0.5-0.3
			c-0.5-0.2-1-0.4-1.3-1c0,0-0.5-0.5-0.5-0.8c-0.1-0.2-0.2-0.4-0.3-0.5c0-0.2-0.2-1-0.2-1.3c0-0.4,0-0.9,0-1.3
			C563.8,475.9,564,475.1,564,474.9z"/>
	</g>
</g>
<circle class="st3" cx="420.9" cy="236.7" r="104.1"/>
<g>
	<g>
		<path d="M526,203.5c-11.8-3-23.8-3-35.6,0c-3.3,0.8-5.6,3.8-5.6,7.2c-0.1,0-0.2,0-0.3,0l-0.3,0c-0.5,0-0.9-0.1-1.4-0.1
			c-1.5-0.1-2.7,0.2-3.8,0.8c-0.6,0.3-1,0.8-1.3,1.4c-0.2-0.3-0.4-0.6-0.7-0.8c-0.8-0.8-2-1.2-3.3-1.3c-0.2-0.1-0.5-0.2-0.7-0.2
			c-0.8,0-1.5,0.2-2.1,0.4c-0.2,0.1-0.3,0.1-0.5,0.2c-0.7,0.2-1.5,0.4-2.2,0.7c-1.7,0.6-2.9,1.3-3.8,2.3c-1.1,1.2-1.8,2.9-2.2,5.3
			c0,0.2-0.5,2.8-0.5,2.8c-3.2,3-6.7,5.5-10.3,7.6c-1,0.5-2.1,1-3.6,1.5c-1.6,0.6-2.8,0.8-4,0.8c-1,0-1.9-0.1-3-0.2
			c-0.6-2.9-3.1-5-6.5-5.5c-0.1-0.4-0.3-0.7-0.5-1l-0.1-0.2c-0.3-0.6-0.7-1.1-1-1.7l-0.3-0.5c-0.3-0.4-0.5-0.9-0.8-1.3
			c-0.7-1.2-1.4-2.4-2.3-3.5c-1.2-1.4-2.9-2.6-5-3.7c-1-0.5-2-0.9-3-1.1c-0.4-0.1-1-0.2-1.6-0.2c0,0,0,0,0,0
			c-0.5-0.4-0.9-0.9-1.4-1.2c16.3-2.6,27-13.4,30-22.6c1.7-5,1-9.3-1.8-11.6c1.4-5.1,6.1-26.4-4.3-46.1l0-0.2
			c-0.1-0.2-0.2-0.4-0.3-0.6c0.5-0.4,0.9-0.7,1.1-0.9c1.1-1,1.9-2,2.5-3c0.6-1,0.9-2,1.1-3.4c0.1-0.6,0.1-1.2,0.2-1.8
			c0-0.4,0.1-1.2-0.1-1.8c0.6-0.7,1.1-1.4,1.5-2.1c1.7-2.7,2.3-5.8,1.8-9c-0.1-1.7-0.4-3.3-1-5c-0.8-2.4-2.1-4.4-3.6-6
			c-1.5-1.5-3.1-2.6-4.9-3.3c-2.2-0.8-4.6-0.6-6.2-0.3c-0.5,0.1-1.7,0.4-2.7,0.9c-0.4-1.1-1.1-2.1-1.5-2.7c-1.3-1.7-3.1-3.3-5.3-4.6
			c-4.8-2.7-10.3-2.4-13.5,0.7c-0.6,0.6-1.1,1.3-1.4,2.1c-1.7-3.3-5.3-6.2-9.2-7.4c-5.5-1.7-11.7,0.2-15.2,4.8
			c-0.8,1.1-1.4,2.1-1.7,3.2c-1.2-1-2.8-1.7-4.4-1.8c-3.4-0.2-6.9,2-7.9,5.2c-0.1,0.4-0.2,0.8-0.3,1.2c-1.7-1.2-4-1.7-6.2-1.3
			c-4.3,0.8-7.6,4.6-8.9,8c-0.5,1.2-0.7,2.3-0.6,3.3c0,0.5,0.1,1.4,0.6,2.2c-2.3,0.5-4.6,2.3-5.6,4.5c-0.7,1.6-0.7,3.2,0,4.4
			c0.3,0.5,0.8,1.1,1.4,1.5c0.2,0.2,0.5,0.4,0.9,0.6c0.2,0.4,0.3,1,0.2,1.7c-0.1,0.2-0.2,0.5-0.3,0.7l-0.2,0.4
			c-0.5,1.3-0.9,2.5-1.1,3.7c-0.5,2.9-0.6,5.6-0.5,8c0,2.5,0.2,5.1,0.6,7.9l0.1,1.1c0.2,1.8,0.5,3.6,0.9,5.4c-4.3,0.8-7.8,3.3-10,7
			c-2.9,5-2.9,11.2,0.1,16.3c5.7,9.6,13.5,11.7,19.1,10.4c1.4,4.4,7.1,15.1,19.5,22.7c-3.6-0.1-7.3,0.4-10.8,0.8
			c-4.8,0.7-8.9,1.5-12.8,2.5c-3.8,1-7.8,2.3-10.2,5.2c-0.1,0.2-0.2,0.4-0.3,0.6c-2,0.5-3.7,1.4-5,2.5c-0.9,0.8-2,1.8-2.4,3.2
			c-0.4,1.3-0.2,2.6,0,3.9c0,0.2,0.1,0.3,0.2,0.4c-0.6,1.1-0.9,2.2-0.9,3.3c0,1,0.1,2.4,0.7,3.8c-0.9-0.2-1.8-0.5-2.7-0.8
			c-1.1-0.3-2.2-0.7-3.3-1c-2.8-0.9-5.6-1.7-8.5-2.5c-1.3-0.3-3.1-0.7-4.9-0.4c-1.6,0.3-3,1.2-4.2,2.7c-2,2.6-3,5.8-3.9,8.8
			l-0.1,0.2c-2.1,7.2-2.7,14.9-1.6,23c0.4,3.3,1,7.1,2.3,10.4c1.5,3.7,4,6,7.1,6.3c2.9,0.3,5.8-0.5,8.6-1.2c1-0.3,2-0.5,2.9-0.7
			c4.2-0.9,9.1-1.6,13.9-0.3c0,0,0,0,0.1,0c0.1,0.3,0.2,0.6,0.3,0.9c0.9,2.4,2.4,4.5,4.4,6.1c1.2,1,2.4,1.5,3.7,1.6
			c1.1,0.1,2.3-0.1,3.4-0.3l0.1,0c1.6,1.4,3.7,2.1,5.8,1.7c0.7-0.1,1.4-0.4,2.1-0.8c0.1-0.1,0.3-0.2,0.4-0.3c0.6,0.5,1.3,0.9,2,1.2
			c1.9,0.7,4.1,0.6,6-0.3c1.6-0.8,2.9-2.2,3.6-3.9c0.7,0.2,1.4,0.4,2.1,0.6c1.1,0.3,2.3,0.6,3.5,0.8c0.7,0.2,1.4,0.3,2.1,0.5
			c-5.3,16-20,37.4-33.6,56.4c-0.4-0.6-0.8-1.3-1.2-1.9c-1.7-2.5-3.3-4.6-4.9-6.3c-2.1-2.3-4.1-4-6.2-5.3c-1.3-0.8-2.6-1.4-3.7-1.8
			c-1.1-0.4-2.5-0.9-3.8-1.3c-2.8-0.8-5.6-1.1-8.2-0.9c-3.1,0.3-5.9,1.3-8,3c-1.2,0.9-2.2,2-3,3.2c-0.8,1.2-1.4,2.6-1.8,4
			c-0.4,1.4-0.5,2.8-0.4,4.3c0,1.3,0.2,2.7,0.6,4.1c0.6,2.5,1.5,5,2.9,7.6c2.6,4.8,6.2,9,10.4,12.3c4.7,3.6,9.9,5.6,15.1,6
			c3,0.2,6.2,0.3,10,0.3l0.4,0.1c0.3,0,0.6,0.1,0.9,0.1c0.9,0.1,1.8,0.2,2.8,0.2c0,0,0,0,0,0c0.2,0.6,0.8,1,1.5,1c0,0,0.1,0,0.1,0
			c2.5-0.2,4.5-0.3,6.5-0.6l2-0.3c0.4-0.1,0.9-0.1,1.4-0.3c0.8-0.2,1.5-0.6,2-1.1c0.5-0.5,0.9-1,1.3-1.8c1-2.2,1.3-4.6,1-7.1
			c-0.2-1.2-0.5-2.4-1-3.5c-0.2-0.5-0.5-1.1-0.9-1.6c0,0,0-0.1-0.1-0.1c0.2-0.4,0.4-0.7,0.5-1.1c0.2-0.6,0.3-1.2,0.3-1.8
			c0.6-0.1,1.2-0.2,1.9-0.3c0.4-0.1,0.7-0.3,0.9-0.6c11.4-16.8,20.6-37.4,27.3-61.4l0.5,0.2c0.6,0.2,1.2,0.4,1.8,0.6
			c2.9,0.9,6.3,1.5,9-0.5c0.3-0.2,0.5-0.4,0.8-0.7c-1,29.9-12.5,48.8-12.7,49c-0.2,0.4-0.3,0.8-0.1,1.3c-0.2,0.2-0.4,0.3-0.5,0.5
			c-0.4,0.4-0.6,1-0.8,1.5c0,0.1,0,0.1,0,0.2c-1.6,0.4-3.1,1-4.3,1.9c-1.5,1.1-2.8,2.6-3.7,4.5c-0.8,1.5-1.3,3.3-1.7,5.3
			c-0.3,1.6-0.5,3.4-0.6,5.4c0,0.5,0.2,0.9,0.5,1.2c1.2,1,2.5,1.7,3.5,2.1c1.3,0.6,2.7,0.9,3.7,1.2c1.1,0.3,2.3,0.5,3.7,0.7
			c1.4,0.2,2.6,0.3,3.8,0.4c0.7,0,1.2-0.3,1.5-0.9c2.8,1.7,6,3,9.8,4.1c3.9,1,8.1,1.7,12.4,1.9c2.2,0.1,4.3,0.1,6.3,0
			c2.4-0.2,4.4-0.5,6.3-1c0.9-0.3,2-0.6,3.2-1.3c1.1-0.6,2-1.5,2.7-2.5c1.6-2.3,1.9-4.9,1.8-6.7c-0.1-2.1-0.5-4.3-1.4-6.5
			c-0.9-2.1-2-4-3.4-5.6c-1.5-1.8-3.4-3.2-5.5-3.9c-1.9-0.7-4-1.1-6.5-1.2c-4.1,0-8.3,0.7-12.4,2.2c0-0.1,0.1-0.2,0.1-0.3
			c7.8-31.9,10.1-63.4,10.4-68c4.6-5.4,7-13.6,6.7-23.4c0.8,0.3,1.7,0.4,2.4,0.5c3,0.5,6.2,0.5,9.4-0.3c11.6-3,18.8-8.5,18.8-8.5
			s0.7,3,5.4,6.1c1.5,0.8,3.6,1.5,5.5,0.9c0.8,0.9,1.7,1.6,2.9,2.1c-0.1,0.2-0.1,0.4-0.1,0.6c0,0.8,0.2,1.6,0.5,2.3
			c0.3,0.7,0.7,1.5,1.5,1.9c1.1,0.6,2.4,0.5,3.3,0.4c0.5-0.1,1-0.2,1.5-0.3l0.4-0.1v0.2c0,3.6,2,6.9,5.2,8.6c12,6.2,24.4,6.2,36.4,0
			c3.2-1.7,5.2-5,5.2-8.6v-43.3C531.6,207.3,529.3,204.3,526,203.5z M365.4,229c1.4-1.5,2-3.1,1.9-4.8c0.6-0.2,1.2-0.5,1.9-0.9
			c1.2-0.6,2.3-1,3.4-1.3c2.6-0.6,5-0.2,7.6,0.1l0.4,0.1c1,0.1,2,0.3,3,0.3c-1.1,2.3-2.9,6.8-4.2,13c-1.3-0.1-2.5-0.2-3.8-0.3
			l-2-0.1c-2-0.2-4.2-0.3-6.2-0.4l-1.1,0c-1,0-2-0.1-3.1-0.1c1.1-1.1,1.9-2.6,2-4.3C365.5,230,365.5,229.5,365.4,229z"/>
		<path class="st4" d="M354.5,209.9c2.8-1,5.8-1.9,8.7-2.5c6.5-1.4,13.1-1.7,19.7-1.8c6.4-0.1,12.8,0,19,1.1
			c6.3,1.2,12.4,3.5,17.3,7.6c2.7-0.2,5.3,1.1,7.3,3c2,1.8,3.4,4.2,4.8,6.5c0.7,1.2,1.4,2.4,1.5,3.7c0.2,2.5-1.7,4.7-3.5,6.5
			c1.2,1.1,1.3,2.8,1.5,4.3c0.4,5.4,0.8,10.8,1.2,16.2c0,0.7,0.1,1.4-0.2,2c-0.6,1.1-2.1,1.3-3.4,1.3c-16.4,0.2-32.8-3.4-47.6-10.3
			c-0.2-0.1-0.5-0.2-0.7-0.4c-0.2-0.2-0.3-0.5-0.4-0.8c-1.2-3.8,0.1-7.9,1.4-11.7c1.5-4.4,3-8.8,4.4-13.2c-7-2.1-14.8-0.9-20.9,3.1
			c-2-3.1-5.2-5.1-8.6-6.5c-1.7-0.7-3.5-1.2-5.3-1.8c-1.8-0.6-2.3-1.6-1.1-3.2C350.7,211.5,352.7,210.6,354.5,209.9z"/>
		<path class="st5" d="M445,177.8c2.6,2.4,3.4,6.3,2.6,9.8c-0.8,3.5-2.9,6.5-5.2,9.2c-3.5,4.1-7.7,7.7-12.6,10.1
			c-1.9,0.9-4,1.6-6,2.4c-2.7,1-5.5,1.9-8.4,2.2c-1.5,0.1-3,0-4.6-0.1c-4.8-0.3-9.9-0.9-14.6-2.1c-7.8-2.1-15.2-5.8-21.4-11
			c-2.3-1.9-4.4-3.9-6.1-6.4c-2.5-3.7-3.8-8.2-6.3-12c-2.6,1.9-6.2,1-9-0.4c-4.3-2.1-8.1-5.5-10.2-9.8s-2.3-9.7,0.1-13.9
			c1.5-2.6,3.9-4.7,6.7-5.8c3.1-1.2,6.6-1.1,9.9-0.3c3.2,0.8,6.3,2.3,9.2,3.9c0-7.7,1.5-15.5,4.3-22.6c2.4-6.3,6.2-12.4,12.3-15.3
			c3.6-1.7,7.6-2.1,11.6-2.2c10.4-0.2,20.8,1.5,30.6,5.1c1.4,0.5,2.9,1.1,4.1,2.1c0.8,0.6,1.5,1.4,2.1,2.2c2.7,3.2,5.3,6.4,7.3,10
			c3,5.5,4.5,11.7,5.3,17.9C447.8,159.6,447.8,169.2,445,177.8z"/>
		<path class="st6" d="M410.3,190.5c-3-0.7-6.1-1.4-9.2-1.4s-6.3,0.6-8.9,2.3c-1,0.6-1.9,1.8-1.5,2.9c0.1,0.4,0.4,0.7,0.7,0.9
			c2.4,2.3,5.4,3.8,8.4,5.1c1.5,0.6,3,1.3,4.5,1.7c5.9,1.8,12.5,1,18.1-1.6c1.2-0.6,2.5-1.4,2.9-2.7c0.4-1.4-0.4-2.9-1.5-3.8
			c-1.5-1.3-3.4-2-5.4-2.4c-1.5-0.2-3-0.3-4.5-0.2C412.6,191.3,411.6,190.7,410.3,190.5z"/>
		<polygon class="st7" points="410.8,218.4 411.4,215.2 407.8,211.4 404.3,215.6 407.4,218.9 405.9,240.9 415,247 418.8,240.5 		"/>
		<path class="st8" d="M351.1,115.8c-0.6-1.7,0.1-3.7,1.3-5c1.2-1.3,3-2.1,4.7-2.5c-1.1-2-0.5-4.5,0.5-6.6c1.4-2.7,3.6-5.1,6.5-6
			c2.9-0.9,6.5,0.1,7.9,2.8c-0.5-2.9,1.3-6.1,4-7.2c2.7-1.2,6.2-0.2,8,2.2c2-4.9,6.4-9.2,11.8-9.5c5.9-0.4,11.2,4.2,13.9,9.5
			c1-4.6,6.6-7.2,11.2-6c4.6,1.2,8,5.2,9.9,9.5c5.4-4.1,11.3-1.3,14.5,3c1,1.3,1.6,2.9,2.1,4.5c0.9,3.1,1.2,6.4,0.3,9.5
			c-1.4,5.3-5.9,9.3-10.6,12c-8.7-5.2-17.9-9.8-27.7-12.5c-9.8-2.8-20.2-3.7-30.1-1.4c-4.1,0.9-8,2.4-12,3.7c-2,0.7-4,1.3-6.1,1.9
			c-1.8,0.5-3.8,1.2-5.6,1.1C353.7,118.4,351.7,117.7,351.1,115.8z"/>
		<path class="st9" d="M358,216.1c-3-1.4-6.4-2.3-9.7-1.7s-6.4,2.6-7.6,5.7c-0.2,0.5-0.3,1.1-0.3,1.6c0.1,0.6,0.4,1.1,0.9,1.3
			c-1.2,2.1-1.4,4.8-0.4,7c0.3,0.6,0.7,1.3,1.3,1.6c0.8,0.4,1.8,0.3,2.7-0.1c0.8-0.4,1.5-1,2.3-1.5c1.5-1,3.4-1.4,5.2-1.3
			c0.9,0.1,1.8,0.3,2.6,0.8c1.9,1.1,2.8,3.4,3.6,5.5c1.6,0.2,3.3-0.5,4.4-1.7c1.1-1.2,1.5-3,1.1-4.6c1-1,1.7-2.4,1.8-3.9
			c0.1-1.5-0.5-3.1-1.3-4.3c-0.4-0.6-1.2-1.1-1.9-1.6c-0.7-0.5-1.4-1-2.1-1.5C359.8,217,358.9,216.5,358,216.1z"/>
		<path class="st10" d="M328.2,228.5c-3.2-1-6.9-2-9.7-0.1c-1.7,1.2-2.6,3.1-3.3,5c-4.1,11.1-4.7,23.4-1.7,34.8
			c0.7,2.6,1.6,5.3,3.8,6.8c1.9,1.4,4.5,1.5,6.8,1.1c2.3-0.4,4.5-1.3,6.8-1.9c7.1-1.9,14.7-0.8,22,0.5c16.1,2.9,32.1,6.7,47.9,11.2
			c1.6,0.5,3.3,1,5,0.7c2.6-0.4,4.7-2.5,5.9-4.8c5.1-9.1,0.6-21.4,5.7-30.5c0.3-0.5,0.6-1.1,0.4-1.6c-0.2-0.6-0.8-0.8-1.3-1.1
			c-2.6-1.6-2.5-5.6-4.4-8.1c-2.2-3-6.5-3.3-10.2-3.3c-5.2,0-10.3-0.1-15.5-0.1c-2.6,0-5.2,0-7.8-0.1c-1.8,0-3.5-0.5-5.4-0.6
			c-9.8-0.5-19.6-1.8-29.2-3.8C338.9,231.5,333.5,230.1,328.2,228.5z"/>
		<path class="st5" d="M365.4,258.9c-1.1,0-2.2-0.1-3.1-0.8c-0.7-0.5-1.1-1.4-1.5-2.2c-0.4-0.8-0.8-1.7-1.1-2.5
			c-0.5-1.1-1-2.2-1.3-3.3c0-0.1-0.1-0.3-0.2-0.3c-0.1-0.1-0.2,0-0.3,0c-0.5,0.1-0.9,0.4-1.4,0.5c-0.3,0.1-0.7,0.1-1.1,0.1
			c-1,0.2-2,0.3-3.1,0.5c-0.8,0.1-1.7,0.2-2.5,0.4c-0.4,0.1-1.3,0.2-1.5,0.6c-0.2,0.3,0,0.7,0.2,1c0.3,0.5,0.5,1,0.8,1.5
			c0.3,0.5,0.6,1.1,0.5,1.7c-0.1,0.5-0.4,1-0.8,1.5c-0.6,0.9-1.1,1.9-1.5,3c0,0.5-0.6,1.3-0.7,1.8c-0.2,0.6-0.3,1.2-0.5,1.8
			c-0.3,1.3-0.4,2.7-0.4,4c0,2.7,0.5,5.4,1.5,7.9c0.8,1.9,1.9,3.8,3.5,5.1c1.6,1.3,3.9,1.9,5.9,1.3c0.4-0.1,0.8-0.3,1.1-0.2
			c0.3,0.1,0.5,0.3,0.8,0.4c1.1,0.8,2.3,1.5,3.7,1.6c1.4,0.1,2.8-0.6,3.4-1.8c1.4,1.8,3.9,2.6,6.2,2s4-2.5,4.5-4.7
			c-1.6-0.7-3.2-1.4-4.5-2.5c-1.3-1.1-2.3-2.7-2.3-4.4c1.5,1.8,4.1,1.9,6.5,1.9c0.8,0,1.7-0.1,2.4-0.6c0.5-0.4,0.8-1.1,0.9-1.7
			c0.3-1.7-0.4-3.6-1.7-4.7c-1.1-1-2.6-1.4-3.7-2.3c-1.3-1-1.9-2.6-2.8-3.9c-0.9-1.3-2.1-2.2-3.7-2.5
			C366.8,258.9,366.1,258.9,365.4,258.9z"/>
		<path class="st5" d="M355.8,223.7c-1.6-1.4-3.9-2.3-6-1.9c-2.2,0.5-3.9,2.3-4.7,4.4c-0.9,2.1-1,4.4-1.1,6.6
			c-0.1,1.5-0.1,3,0.1,4.5c0.2,1.1,0.5,2.3,0.8,3.4c1.4,4.5,2.7,9.1,5,13.2c0.3,0.6,0.6,1.1,1.1,1.6c0.9,0.8,2.3,1,3.5,1.2
			c1.2,0.1,2.6,0.2,3.6-0.6c1.2-0.9,1.2-2.7,0.9-4.2c-0.3-1.9-0.9-3.7-1.1-5.6c-0.5-6.1,2.8-12.4,0.6-18.5
			C358,226.2,357,224.8,355.8,223.7z"/>
		<path class="st9" d="M431.9,233.9c0.6-0.5,1.4-0.8,2.1-1c1.8-0.4,3.7-0.6,5.6-0.3c-0.3-2.4-2.6-4.3-5-4.9s-5,0.1-7.2,1.2
			c-0.1,0.1,1.7,4.3,1.9,4.7c0.2,0.4,0.5,1.7,1.1,1.7C431.1,235.4,431.6,234.2,431.9,233.9z"/>
		<path class="st5" d="M454.7,229.2c-1.3,0.4-2.4,1.1-3.6,1.6c-3.7,1.7-7.9,2.5-11.9,2.1c-1.7-0.2-3.5-0.5-5.1,0
			c-1.3,0.4-2.5,1.3-3.3,2.5c-0.1,0.2-0.2,0.4-0.3,0.6c-0.1,0.3,0,0.5,0.1,0.8c0.8,3,0.9,6.1,1.3,9.1c0,0.2,0.1,0.4,0.2,0.6
			c0.1,0.2,0.3,0.3,0.5,0.5c0.9,0.5,1.9,0.7,2.9,0.9c1.7,0.3,3.4,0.5,5.1,0.3c1.4-0.1,2.7-0.6,4-1c1.5-0.5,2.9-0.9,4.4-1.4
			c1.1-0.4,2.3-0.7,3.3-1.3c1.5-0.8,5-1.8,6.2-3.1c0.1-0.1-2-0.5-2-0.7c0-0.2,0-0.3-0.1-0.5C455.2,236.6,455.2,233,454.7,229.2z"/>
		<path class="st5" d="M482.6,218.7c-1.3,0.3-2.5,0.9-3.6,1.6c-0.7-1.8-1.3-3.6-2-5.5c-0.2-0.5-0.4-1.1-0.7-1.6
			c-0.8-1.1-2.2-1.5-3.5-1.5s-2.6,0.5-3.8,1c-1.7,0.7-3.4,1.4-4.5,2.9c-1.3,1.7-1.6,5.4-1.6,7.5c0,0-3.4,3-8.3,6.2
			c-0.4,2.6-0.3,5.2,0.4,7.7c0.4,1.2,0.8,2.4,1.4,3.6c0.2,0.5,0.5,1.5,1.1,1.4c0.5,0,1.2-0.8,1.6-1c1.6-1.1,3.2-2,5-2.8
			c0.5,1.3,1.1,2.7,2.1,3.8c0.4,0.4,0.8,0.8,1.3,1.1c1.3,1,2.4,2.3,4.1,2.5c1.2,0.1,2.4-0.2,3.2-1.1c1.2,1.8,3.1,3,5.1,3.5
			s4.2,0.4,6.3-0.1c0-9-0.1-18.1,0-27.1c0-0.6,0.2-1.3-0.4-1.8C485.1,218.4,483.5,218.5,482.6,218.7z"/>
		<path class="st11" d="M357.7,333.3l-5.8,8c0,0,1.9,5,6.4,6.3c4.5,1.3,11.7,0,11.7,0s10.6-16.9,17.1-32.4
			c6.5-15.5,10.5-30.2,10.5-30.2l-10.5-2.8c0,0-5.8,12.8-15.1,30S357.7,333.3,357.7,333.3z"/>
		<path class="st11" d="M416.9,252.9l0.7-1.4c0,0,8.7,1.3,11.4,2.4c2.6,1,2.9,1.9,2.9,1.9s-1.5,7.6-3.3,10.7
			c-1.8,3.1-3.4,4.8-3.4,4.8s-1.5,19-3.4,30.9c-1.9,11.9-7,37.3-7,37.3s-3.5,1.8-8.8,0.5c-5.3-1.3-6.9-4-6.9-4s5-6.3,9.7-27.1
			c4.7-20.8,2.9-25.8,2.9-25.8s2.8-6,2.8-11.8c0-5.8,0.8-11,0.8-13.4C415.3,255.4,416.9,252.9,416.9,252.9z"/>
		<path class="st12" d="M366.8,348.3c-4.1,0.1-8.3-0.8-12-2.6c-0.7-0.3-1.4-0.7-2-1.3c-0.6-0.6-1.1-1.4-1.5-2.1
			c-2.9-5.2-5.8-10.5-10.7-14c-3.3-2.4-7.3-3.6-11.2-4.4c-3.3-0.6-6.8-0.9-9.9,0.3c-2.9,1.1-5.2,3.4-6.5,6.2c-1.3,2.8-1.6,6-0.9,9.1
			c0.7,3.2,2.3,6.1,4.1,8.8c2.6,4.1,5.5,7.9,9.2,11c3.7,3.1,8.2,5.4,13,5.9c2,0.2,4.1,0.1,6.2,0.2c2.2,0.1,4.3,0.6,6.4,0.8
			c3.8,0.5,7.8,0.4,11.6-0.1c1.5-0.2,3-0.5,4.1-1.6c1.1-1.1,1.4-2.6,1.5-4.1c0.1-2.2-0.4-4.5-1.3-6.5c-0.3-0.7-0.9-1.4-0.9-2.3
			C365.9,350.5,366.6,349.4,366.8,348.3z"/>
		<path class="st12" d="M414.2,342.4c-0.3-0.7-0.5-1.5-0.8-2.2c-2.3,0.1-4.7,0.3-7-0.1c-2.3-0.4-4.6-1.3-6.2-3c-0.7,0.3-1.5,0.5-2,1
			c-0.6,0.5-0.9,1.3-0.7,2.1c-3.5,0.1-6.7,2.6-8.3,5.8c-1.6,3.1-1.9,6.8-1.5,10.4c3.3,2.1,7.1,3.3,10.9,3.9c0.7,0.1,1.5,0.2,2.2,0
			c0.7-0.2,1.4-0.7,1.6-1.4c10.6,5.7,23.3,7.8,34.8,4.6c1.5-0.4,3.1-1,4.1-2.2c0.6-0.7,1-1.6,1.3-2.4c0.7-1.8,1.1-3.8,0.8-5.8
			c-0.2-1.4-0.7-2.8-1.3-4.1c-1.3-2.8-2.9-5.5-5.4-7.3c-2.4-1.8-5.4-2.5-8.4-2.6c-2.7,0-5.2,0.6-7.9,1.1
			C419.9,340.3,414.1,342.3,414.2,342.4z"/>
		<path class="st13" d="M530.4,237.8c0,0,0.7,17.3-1.5,20.6c-2.3,3.3-11.5,7.4-20.7,7.4s-18.2-4.4-19.4-5.5s-2.6-5.5-2.6-5.5v-2.5
			c0,0-4.3,0.9-5.3,0.7s-2-2.2-2-2.2V248c0,0,2.4,1.1,4.6,0.7c2.2-0.4,2.7-1.1,2.7-1.1l0-28.9c0,0-2.4-0.2-4.6,0.3
			c-2.1,0.5-2.7,0.8-2.7,0.8l-1.1-3.9c0,0,0.1-3,1.7-3.6s6.4-0.6,6.4-0.6s0.1-4.4,2.8-6.1c2.7-1.7,13.6-2.8,20.9-2.8
			c7.3,0,18.4,1.4,19.9,4.4C530.9,210.3,530.4,237.8,530.4,237.8z"/>
		<path class="st12" d="M495.7,205.9c0,0,4.2-1.1,12.7-0.7s14.4,1.4,14.6,1.5s3.3,1.7,2.6,3.6c-0.7,1.9-3.8,4.3-11.3,4.8
			c-7.5,0.5-13.7,0-16.2-1.1c-2.5-1-7.1-2.3-7.9-3.7c-0.8-1.4-0.7-2.3,0.8-3.1S495.7,205.9,495.7,205.9z"/>
		<g>
			<g>
				<path d="M354.4,149c-3.1-8.7-3.1-16.5-1.2-26.1c0.3-1.6,0.6-3.2-0.1-4.5c-0.3-0.5-0.7-0.9-0.9-1.3c-0.9-1.7,0.2-4.3,2.2-5.6
					c2-1.3,4.6-1.3,6.3-0.1c-0.2-1.8-2.7-2.3-3.7-3.7c-0.8-1.1-0.6-2.9,0.2-4.3c1.7-3,5.6-4.5,8.7-4.1c3.1,0.4,5.7,2.5,7.7,4.7
					c-0.2-1.3-0.5-2.6-0.7-4c-0.2-0.9-0.3-1.9,0-2.9c0.8-2.4,4.1-3.4,6.4-2.5c2.3,1,3.5,3.2,4.2,5.5c1.3-1.5,0.9-3.6,1.3-5.4
					c0.6-2.8,3.1-5,6-5.8c2.9-0.8,6-0.2,8.8,1c4.2,2,7.5,5.8,8.6,9.9c1.1-1.6,1.1-3.6,1.9-5.3c1.7-3.6,7.2-4.9,11.4-3
					c4.3,1.9,6.8,6.4,5.6,10c1.2-1.3,2.5-2.5,3.7-3.7c0.3-0.3,0.6-0.6,1-0.8c0.9-0.4,2.2-0.2,3.2,0.2c3.2,1.3,5.2,4,6.3,6.6
					c3,7.2,0.9,15.2-5.3,21.2c3.1-1.3,6.1-2.9,8.7-4.7c1.5,3.9-1.9,8-5.5,11.1c-1.2-2.1-2.7-4.1-4.6-5.8c-12.8,5.4-29.5,3.3-39-5.5
					c-2.4-2.3-21.3,1-20.8,17.4c-0.1,1.8-1.2,3.5-1.9,5.2c-1.1,2.7-0.9,5.6-0.2,8.3c0.8,2.7,2.3,5.8,3.6,8.3c-1.3,0.4-3,1-4.3,1.4
					C367.7,152.3,361.5,149.3,354.4,149z"/>
				<path d="M384.2,175.8c-0.7,1.2-1.9,2.1-3.3,2.4c1.7,6.3,5.5,12.1,10.5,16.5c2.3-2.3,5.5-3.6,8.8-3.6c3.3,0,6.6,1.2,9.1,3.5
					c2.6-1.6,5.9-1.9,8.7-0.9c2.8,1,5.1,3.4,6,6.3c5.7-3.6,10.1-10,11.9-16.9c-7.2,2.5-14.6,2.8-22,2.2c-3.2-0.2-6.3-0.9-9.5-1.5
					c-3.3-0.6-6.6-1.5-9.8-2.8C393.7,180.6,384,176.2,384.2,175.8z"/>
				<path d="M410.7,211.6c-1.8,0-3.6-0.1-5.4-0.3c-30.7-3.2-41.7-25.4-43.1-30.7c-5.3,1.5-13.2-0.2-18.9-9.9
					c-2.9-4.8-2.9-10.8-0.1-15.6c2.8-4.7,7.7-7.2,13.5-7c11.8,0.7,15.6,9.9,16.3,11.7l-0.7,0.3l-0.1,0.7l-0.6-0.5
					c-0.6-1.7-4.1-10.2-15-10.8c-5.2-0.2-9.6,2.1-12.1,6.3c-2.5,4.3-2.5,9.7,0.1,14.1c5.6,9.5,13.2,10.8,18,9c0,0,0,0,0,0
					c0.4-0.1,0.8,0.1,0.9,0.4c0,0.1,0.1,0.3,0,0.4c0.4,1.3,8.7,26.6,42,30.1c23.7,2.5,37.6-11.9,40.8-21.5c1.5-4.5,0.8-8.2-1.8-9.7
					c-0.3-0.2-0.4-0.5-0.3-0.9c0.1-0.3,9.8-31.7-10.4-54.9l1.1-1c19.3,22.2,12,51.5,10.8,55.8c2.9,2.1,3.6,6.2,2,11.1
					C444.6,198.1,432,211.6,410.7,211.6z M363,180.4C363,180.4,363,180.4,363,180.4C363,180.4,363,180.4,363,180.4L363,180.4z"/>
				<g>
					<path d="M349.4,165.1c-0.3-1.5-0.2-3,0.5-4.4c0.8-1.4,2-2.3,3.7-2.6c1.7-0.4,3.6,0.3,5.1,1.1c1.5,0.8,2.8,1.9,3.7,3.4
						c0.5,0.8,0.8,1.7,1,2.6c0.2,0.9,0.1,1.6,0.2,2.5c0,0.1,0.3,0.1,0.3,0c0.5-0.6,0.4-1.5,0.3-2.2c-0.1-1-0.4-1.9-0.7-2.8
						c-0.6-1.8-1.6-3.4-3.4-4.5c-1.9-1.1-4-1.5-6.1-1c-1.7,0.4-3.3,1.3-4.3,2.7c-1,1.5-0.9,3.6-0.5,5.3
						C349.2,165.2,349.4,165.2,349.4,165.1C349.4,165.1,349.4,165.1,349.4,165.1z"/>
				</g>
				<g>
					<path d="M363.9,166.1c-0.2-1.5-1.2-3.2-3-3.2c-1.6,0-3,1.2-3.5,2.6c-0.4,1.1-0.5,2.4-0.3,3.6c0.2,1.1,0.6,2.3,1.5,3.1
						c0.5,0.4,1.1,0.7,1.8,0.8c0.8,0,1.7-0.2,2.2-0.7c0.2-0.2-0.1-0.5-0.4-0.4c-0.5,0.1-1.1,0.3-1.5,0.3c-0.3,0-0.7-0.1-1-0.4
						c-0.7-0.6-1.1-1.5-1.3-2.3c-0.2-1-0.3-2-0.1-3c0.2-1,0.8-2.2,1.8-2.7c1.7-0.9,3.2,1.2,3.6,2.6
						C363.8,166.1,363.9,166.1,363.9,166.1L363.9,166.1z"/>
				</g>
				<g>
					<path d="M368.5,173.9c-0.2,0.3-0.4,0.6-0.6,0.9c-0.2,0.3-0.4,0.5-0.7,0.8c-0.5,0.5-1.1,1-1.8,1.5c0,0-0.1,0,0,0
						c0,0-0.1,0-0.1,0.1c-0.1,0.1-0.2,0.1-0.3,0.2c-0.2,0.1-0.3,0.2-0.5,0.3c-0.3,0.2-0.7,0.4-1,0.6c-0.4,0.2-0.8,0.4-1.1,0.7
						c0.1-0.1-0.4,0.4-0.1,0.2c-0.1,0.1-0.1,0.1-0.2,0.1c-0.2,0.1-0.3,0.3-0.4,0.4c-0.2,0.5,0.4,0.8,0.9,0.7c0.3,0,0.6-0.1,0.9-0.3
						c0.1,0,0.2-0.1,0.2-0.1c-0.4,0.1-0.4,0.1,0,0c0.1,0,0.2-0.1,0.4-0.1c0.4-0.2,0.7-0.4,1-0.6c0.4-0.2,0.8-0.5,1.1-0.8
						c0.3-0.3,0.6-0.5,0.9-0.8c0.6-0.5,1-1.2,1.3-1.9c0.2-0.6,0.4-1.3,0.1-1.9C368.7,173.9,368.6,173.9,368.5,173.9
						C368.5,173.9,368.5,173.9,368.5,173.9z"/>
				</g>
				<g>
					<path d="M374.7,177c1.2,0.9,2.6,1.8,4.1,1.9c1.7,0.1,3.3-0.5,4.6-1.5c1.1-0.9,2.1-2.2,2.4-3.6c0.3-1.4-0.2-3-1-4.1
						c0,0-0.2,0-0.2,0c0.2,0.6,0.4,1.2,0.3,1.9c0,0.6-0.3,1.3-0.5,1.8c-0.4,1.1-1,2.2-1.9,3c-1,0.8-2.3,1.4-3.6,1.4
						c-1.4,0-2.8-0.2-4.1-0.9C374.8,176.8,374.6,176.9,374.7,177C374.7,177,374.7,177,374.7,177z"/>
				</g>
				<path d="M411.4,204c-0.7,0-1.4,0-2.2-0.1c-22-2.2-29-25.5-29.1-25.7c-0.1-0.3,0.1-0.7,0.4-0.8c0.3-0.2,0.6-0.1,0.9,0.1l-0.5,0.5
					l0.7-0.1c0,0.2,7,22.4,27.8,24.5c15.4,1.2,22.8-10.8,25.9-18.7c-24.6,5.9-42.4-1.8-50.9-7.1c-0.3-0.2-0.4-0.3-0.5-0.3l0.3-0.6
					l0-0.1l-0.7,0l0.4-0.6c0.4-0.2,0.6-0.1,1.4,0.4c8.5,5.2,26.3,13,51,6.6c0.1,0,0.1,0,0.2-0.1c0.3,0,0.6,0.1,0.7,0.3
					c0.1,0.2,0.1,0.4,0.1,0.7c0,0.1,0,0.1-0.1,0.1c0,0.1-0.1,0.2-0.1,0.4C434,191.3,426.8,204,411.4,204z M380.8,178.1l-0.5,0.5
					L380.8,178.1z"/>
				<g>
					<path d="M412.7,198.2c-2.1-3.7-5.8-6.5-9.9-7.4c-2-0.4-4.1-0.4-6.1,0.2c-1.9,0.6-4.1,1.6-5.4,3.1c-0.6,0.7,0.7,1.2,1.2,0.6
						c1.1-1.3,3-2.2,4.6-2.7c1.8-0.6,3.9-0.6,5.8-0.2C406.7,192.7,410.2,195,412.7,198.2C412.6,198.3,412.7,198.3,412.7,198.2
						L412.7,198.2z"/>
				</g>
				<g>
					<path d="M409.3,194.5c0.7-0.1,1.3-0.4,1.9-0.6c0.8-0.3,1.7-0.6,2.5-0.6c1.4,0,3,0.6,4.3,1.1c1.3,0.5,2.6,1.2,3.5,2.3
						c0.5,0.6,0.8,1.2,1.2,1.8c0.3,0.5,0.6,1.1,1.1,1.2c0.3,0.1,0.8-0.1,0.8-0.5c0.1-0.6-0.5-1.2-0.8-1.7c-0.4-0.6-0.8-1.3-1.3-1.8
						c-1-1.1-2.5-1.9-3.9-2.4c-1.5-0.5-3.1-0.9-4.7-0.8c-1.7,0.1-3.2,1-4.6,1.8C409.2,194.3,409.2,194.5,409.3,194.5L409.3,194.5z"
						/>
				</g>
				<g>
					<path d="M413,133.9c-1.9-1.7-3.9-3.2-6.1-4.4c-1.1-0.6-2.2-1.1-3.2-1.5c-1.1-0.4-2.2-0.6-3.2-0.6c-1,0-1.9,0.3-2.6,0.8
						c-0.7,0.5-1.4,1.1-2.1,1.8c-0.8,0.7-1.5,1.6-2.3,2.5c-0.4,0.5-0.8,1-1.2,1.5c-0.4,0.5-0.8,1-1.3,1.5c-0.1,0-0.3-0.1-0.4-0.1
						c-0.4-2.8,0.2-5.6,1.8-8.1c0.8-1.2,2.1-2.4,3.6-3c1.6-0.6,3.3-0.7,4.8-0.4c3.1,0.5,5.4,2.1,7.4,3.9c2,1.8,3.7,3.7,5.1,5.9
						C413.2,133.7,413.1,133.8,413,133.9z"/>
				</g>
				<g>
					<path d="M432,137.9c0.1-1.6,0.3-3.1,0.6-4.7c0.4-1.5,0.8-3.1,2-4.6c0.4-0.3,0.7-0.7,1.3-0.9c0.3-0.1,0.6-0.2,0.9-0.2
						c0.3,0,0.7,0,1,0.1c1.2,0.3,2,1,2.5,1.7c0.5,0.7,0.9,1.4,1.2,2.2c0.3,0.8,0.4,1.5,0.5,2.4c-0.1,0-0.2,0.1-0.2,0.1
						c-1.3-1-2.3-2.2-3.4-3.1c-0.5-0.4-1-0.8-1.3-1c-0.1-0.1-0.1-0.1-0.2-0.1c-0.1,0-0.1,0-0.2,0c-0.2,0-0.4,0.1-0.6,0.3
						c-0.5,0.4-0.9,0.9-1.2,1.6c-0.4,0.6-0.7,1.3-1,2c-0.6,1.4-1.1,2.8-1.5,4.3C432.1,137.9,432,137.9,432,137.9z"/>
				</g>
				<g>
					<path d="M393.2,117c2.2,4.3,6.8,7.5,11.6,9.4c4.9,2,10.5,2.8,16,2.7c10.3-0.3,22-4.3,26.7-11.9c2.8-4.5,2.4-10-0.5-14.6
						c-0.1-0.1-0.4-0.1-0.4,0.1c0.7,2.3,1.5,4.7,1.3,7.1c-0.1,2-0.5,4-1.5,5.8c-1.8,3.5-5.2,6.4-9.3,8.5c-8.8,4.4-20.5,5.2-29.9,2.2
						c-5.8-1.8-10.3-5.2-13.9-9.3C393.3,116.9,393.2,116.9,393.2,117L393.2,117z"/>
				</g>
				<g>
					<path d="M353.9,118.9c0,1-0.5,2-0.8,3c-0.5,1.2-0.8,2.4-1,3.6c-0.5,2.6-0.6,5.3-0.5,7.8c0,2.6,0.3,5.2,0.6,7.8
						c0.3,2.6,0.6,5.3,1.4,7.8c0.2,0.7,2,0.3,1.8-0.3c-0.9-2.5-1.2-5.2-1.6-7.8c-0.4-2.6-0.7-5.3-0.7-8c-0.1-2.7,0-5.5,0.3-8.3
						c0.1-1.1,0.3-2.1,0.6-3.2c0.2-0.8,0.5-1.8,0.2-2.5C354.1,118.8,353.9,118.8,353.9,118.9L353.9,118.9z"/>
				</g>
				<g>
					<path d="M353.8,118.4c0-0.4-0.6-0.8-0.9-1c-0.4-0.4-0.8-0.7-1.1-1.2c-0.6-1-0.7-2.2-0.2-3.4c0.4-1.1,1.2-2,2.2-2.7
						c1.1-0.7,2.2-1,3.3-1.1c0.4,0,0.8-0.6,0.3-0.6c-2.5-0.2-5.5,1.8-6.5,4.2c-0.6,1.3-0.6,2.7,0,3.8c0.3,0.5,0.7,0.9,1.2,1.3
						C352.5,118,353.1,118.5,353.8,118.4C353.8,118.5,353.8,118.5,353.8,118.4L353.8,118.4z"/>
				</g>
				<g>
					<path d="M357.2,108c0.1-0.5-0.2-0.8-0.3-1.2c-0.1-0.5-0.1-1-0.1-1.5c0-1.1,0.5-2.3,1.1-3.4c1.1-2,2.7-4,4.8-5.1
						c1.6-0.9,3.4-1.1,5-0.6c1.8,0.6,2.9,1.9,4.1,3.2c0.2,0.2,1.1,0,1-0.4c-1-3-4.6-4.6-7.9-4c-3.8,0.7-7,4.1-8.4,7.6
						c-0.4,1-0.6,2.1-0.6,3.1c0,0.8,0.3,2.1,1.1,2.4C357.1,108.1,357.2,108.1,357.2,108C357.2,108,357.2,108,357.2,108z"/>
				</g>
				<g>
					<path d="M372.5,99.7c0.3-1.7,0-3.5,0.8-5.2c0.7-1.5,2.2-2.8,3.8-3.3c1.4-0.4,2.9-0.2,4.1,0.5c1.4,0.8,2.1,2,2.9,3.3
						c0.2,0.3,1,0.1,1-0.3c-0.2-2.7-3.2-4.6-5.8-4.8c-3-0.2-6.3,1.8-7.3,4.7c-0.6,1.7-0.4,3.6,0.4,5
						C372.3,99.7,372.4,99.7,372.5,99.7L372.5,99.7z"/>
				</g>
				<g>
					<path d="M384.7,95c-0.1,0.1,0,0.1-0.1,0.3c0.1,0,0.2,0,0.3-0.1c-0.3-0.2-0.1-1.4-0.1-1.7c0.1-0.6,0.2-1.1,0.4-1.7
						c0.4-1.1,1-2.1,1.7-3c1.5-1.8,3.5-3.1,5.7-3.9c4.4-1.6,9.5-0.1,12.9,3.2c2.1,2,2.9,4.4,4,6.9c0.1,0.3,0.9,0.3,0.9,0
						c0.2-4.9-4.8-9.7-9.8-11.2c-5.4-1.6-11.2,0.3-14.5,4.6c-0.9,1.1-1.6,2.4-1.8,3.7c-0.1,0.7-0.1,1.3,0,2c0.1,0.4,0.2,1.2,0.6,1.4
						c0.1,0,0.2,0,0.3-0.1c0-0.1,0-0.2,0-0.3C384.9,94.9,384.7,94.9,384.7,95L384.7,95z"/>
				</g>
				<g>
					<path d="M409.7,95c0.2,0.2,0.3,0.1,0.4-0.1c0.2-0.2,0.1-0.6,0.2-0.8c0.1-0.4,0.1-0.9,0.2-1.3c0.7-2.4,2-4.4,4.6-5.3
						c4.4-1.5,9.6,1,12.5,4.5c0.7,0.9,1.3,1.9,1.7,2.9c0.3,1,0.2,2,0.4,3c0.1,0.4,1,0.4,1.1,0.1c0.9-1.5-0.3-3.8-1.3-5.3
						c-1.3-1.7-3.1-3.2-5.1-4.4c-4.3-2.5-9.6-2.4-12.7,0.6c-0.9,0.9-1.4,1.9-1.7,3.1c-0.2,0.6-0.3,1.2-0.2,1.8c0,0.3-0.1,1,0.2,1.1
						C409.8,94.9,409.6,94.9,409.7,95C409.7,95,409.7,95,409.7,95z"/>
				</g>
				<g>
					<path d="M430.7,97.9c0.3-1.7,2.4-2.3,4.3-2.5c1.5-0.2,3.2-0.2,4.8,0.4c3.8,1.6,5.7,5.2,6.7,8.1c0.9,2.6,1.1,5.3,1.5,8
						c0.1,0.4,0.9,0.3,1,0c0.5-2.7,0.2-5.4-0.8-8.1c-0.7-2-1.8-4-3.5-5.8c-1.2-1.3-2.7-2.4-4.6-3.1c-1.9-0.7-4-0.6-5.8-0.3
						c-1.8,0.3-4.4,1.3-4,3.2C430.4,98.1,430.7,98.1,430.7,97.9L430.7,97.9z"/>
				</g>
				<g>
					<path d="M439.6,130.5c0,0.1-0.1,0.1-0.2,0.2c0,0-0.1,0.1,0,0.1c0.5,0.7,2.8-1.4,3.2-1.7c0.9-0.8,1.8-1.8,2.4-2.8
						c0.6-1,0.8-2,1-3.1c0.1-0.6,0.1-1.2,0.2-1.8c0-0.6,0.1-1.4-0.3-2c-0.4-0.6-2-0.4-2.1,0.3c-0.1,0.6,0.2,1.2,0.4,1.8
						c0.2,0.5,0.2,1,0.3,1.5c0,0.9-0.2,1.9-0.6,2.8c-0.4,0.9-1,1.7-1.7,2.5c-0.4,0.4-0.9,0.8-1.3,1.2c-0.2,0.2-0.5,0.5-0.8,0.7
						c0,0-0.3,0.3-0.3,0.3c0.1,0.2,0.2,0,0.2-0.1C439.8,130.4,439.6,130.4,439.6,130.5L439.6,130.5z"/>
				</g>
				<path d="M367.1,268.9c0.4,0.8,0.8,1.6,1.3,2.4c0.5,0.8,0.9,1.5,1.6,2.2c1.1,1.1,2.6,1.7,4.1,1.9c1.3,0.2,2.8,0.1,4-0.6
					c1.3-0.7,2-2.1,2.1-3.6c0-0.9-0.4-1.8-1-2.5c-0.6-0.7-1.5-1.5-2.4-1.8c-0.3-0.1-0.9,0.1-0.6,0.5c0.3,0.6,1.1,1,1.5,1.5
					c0.5,0.5,0.8,1,1,1.7c0.2,1.2-0.2,2.6-1.3,3.3c-1.9,1.2-4.8,0.4-6.5-0.8c-0.7-0.5-1.4-1.2-2-1.9c-0.6-0.7-1.1-1.6-1.7-2.3
					C367.2,268.8,367.1,268.8,367.1,268.9L367.1,268.9z"/>
				<path d="M369.2,271.5c0.1,1.1,0.1,2.2,0.4,3.2c0.4,1.2,1.4,2.1,2.3,2.9c2.3,1.8,5.1,2.6,7.8,3.3c3.7,0.9,7.3,1.6,10.9,2.8
					c3.3,1.1,6.7,2.2,10,3.2c2.8,0.9,5.9,1.5,8.4-0.4c2-1.5,3.6-4.1,4.5-6.5c1.1-2.7,1.2-5.8,1.4-8.7c0.1-3,0.1-6,0.3-9.1
					c0.1-1.9,0.3-3.9,0.8-5.8c0.2-0.9,0.5-1.7,0.8-2.6c0.3-0.9,0.8-1.6,1.3-2.4c0.6-1,0.9-2.2,0-3.1c-0.9-0.9-2.5-1.3-3.7-1.5
					c-0.7-0.1-1.2,0.8-0.3,0.9c1.1,0.2,2.6,0.4,3.3,1.3c0.9,1.1-0.5,2.6-1.1,3.5c-1.3,2.4-1.7,5.5-2,8.2c-0.5,5.5,0.1,11.1-1.5,16.4
					c-0.7,2.5-1.8,4.8-3.5,6.7c-0.8,0.9-1.7,1.8-2.9,2.2c-1.4,0.4-3,0-4.3-0.4c-6.3-1.6-12.4-4-18.7-5c-3.1-0.5-6.5-1.2-9.4-2.7
					c-1.3-0.7-2.7-1.8-3.5-3.1c-0.6-1.1-0.8-2.3-1.2-3.5C369.4,271.5,369.2,271.5,369.2,271.5L369.2,271.5z"/>
				<path d="M346.8,261.5c-1.7,4.5-1.9,9.7-0.1,14.3c0.9,2.3,2.3,4.2,4.2,5.8c1,0.8,2.1,1.4,3.3,1.4c1.2,0.1,2.5-0.2,3.7-0.4
					c0.7-0.1,0.5-0.9-0.2-0.9c-1.1,0-2.2,0.4-3.4,0.4c-1.3,0-2.3-0.8-3.3-1.7c-1.7-1.6-2.9-3.6-3.7-5.8c-1.4-4.2-1.2-8.8-0.4-13.1
					C347,261.4,346.8,261.4,346.8,261.5L346.8,261.5z"/>
				<path d="M355.2,276.2c-0.1,1,0.1,2.1,0.5,3c0.4,1,0.9,2,1.5,2.8c1.4,1.8,3.8,2.7,6,2.3c0.7-0.1,1.3-0.3,1.8-0.7
					c0.5-0.3,1.2-0.7,1.2-1.4c0-0.3-0.5-0.4-0.7-0.3c-0.6,0.2-1,0.8-1.6,1.1c-0.5,0.3-1.1,0.4-1.7,0.4c-1.2,0-2.4-0.4-3.4-1.2
					c-0.9-0.7-1.6-1.7-2.1-2.7c-0.6-1-1.4-2.3-1.4-3.4C355.5,276.1,355.3,276.1,355.2,276.2L355.2,276.2z"/>
				<path d="M362.7,275.7c1,3.4,1.8,7.5,5.5,8.9c3.8,1.5,8.2-0.8,9-4.8c0.1-0.7-1.1-0.8-1.2-0.3c-0.8,3.5-4.6,5.8-7.9,4
					c-1.4-0.8-2.3-2.2-3.1-3.5c-0.8-1.4-1.4-2.8-2.1-4.3C362.9,275.5,362.7,275.5,362.7,275.7L362.7,275.7z"/>
				<path d="M364.9,258.8c0.3,0.4,0.9,0.4,1.3,0.5c0.7,0.1,1.3,0.1,2,0.2c1.5,0.3,2.6,2.2,3.2,3.5c0.7,1.3,1.5,2.4,2.7,3.3
					c1.2,0.8,2.6,1.4,3.8,2.3c0.2,0.1,0.6,0,0.5-0.2c-0.3-1.4-2.3-2-3.4-2.7c-1.4-1-2-2.2-2.8-3.6c-0.7-1.3-1.8-2.9-3.3-3.3
					c-1.2-0.4-2.7-0.4-3.9-0.1C364.9,258.7,364.8,258.7,364.9,258.8L364.9,258.8z"/>
				<path d="M395.3,212.6c0-0.5,0-1.2-0.1-1.7c-0.1-0.5-0.5-1.1-0.8-1.5c-0.8-1-2-1.8-3.1-2.4c-2.5-1.3-5.3-1.9-8.1-2.1
					c-4.2-0.3-8.6,0.2-12.7,0.7c-4.3,0.6-8.6,1.4-12.7,2.5c-3.4,0.9-7.5,2.1-9.8,5c-0.8,0.9,1.2,1.5,1.8,0.8c1.9-2.3,5.2-3.4,8-4.2
					c3.6-1.1,7.3-1.8,11-2.5c4.3-0.7,8.6-1.1,13-1.1c2.4,0,4.9,0.4,7.1,1.2c1.3,0.5,2.6,1.1,3.7,1.9c1,0.8,2.3,2,2.6,3.3
					C395.2,212.7,395.3,212.7,395.3,212.6L395.3,212.6z"/>
				<path d="M350.4,254.3c-0.6-1.3-1.4-2.6-2-4c-0.3-0.7-0.5-1.4-0.8-2.2c-0.2-0.6-0.7-1.5-0.7-2.1c-1-3-1.6-6-2-9.1
					c-0.5-4.2-0.9-9.7,2-13.1c0.9-0.7,1.9-1.4,3-1.6c1.4-0.3,2.9,0.1,4.1,0.9c2.2,1.4,3.9,4,4.4,6.6c0.7,3.4-0.3,6.8-0.7,10.2
					c-0.3,3.2-0.5,6.6,0.1,9.8c0.5,2.8,1.7,5.4,2.9,8c0.2,0.5,0.5,1,1,1.3c0.3,0.1,0.6,0.2,0.9,0.2c1.2,0.1,2.4,0.2,3.7,0.2
					c0.6,0,1.1,0.1,1.7,0c0.1,0,0.2,0,0.3-0.2c0.1-0.2-0.1-0.3-0.3-0.4c-1.5-0.4-3.1-0.1-4.5-0.6c-0.3-0.1-0.6-0.2-0.9-0.4
					c-0.2-0.2-0.3-0.4-0.4-0.6c-0.9-1.6-1.8-3.3-2.4-5c-0.6-1.7-0.8-3.4-1-5.2c-0.1-1.9-0.1-3.8,0.1-5.7c0.3-3.8,1.5-7.8,0.9-11.6
					c-0.5-3.1-2.7-6.4-5.7-7.8c-1.4-0.7-3-0.9-4.5-0.5c-1.6,0.4-2.7,1.4-3.9,2.5c-0.1,0.1-0.1,0.3,0.1,0.4
					c-2.6,3.1-2.6,7.6-2.3,11.6c0.3,3.4,0.9,6.7,1.9,9.9c0.4,1.4,0.8,2.9,1.3,4.2c0.6,1.5,1.3,3,1.9,4.6c0.2,0.4,0.3,0.8,0.3,1.3
					c0,0.5-0.3,0.9-0.6,1.3c-0.7,1.1-1.3,2.2-1.7,3.3c-0.7,1.8-0.9,3.8-1.1,5.7c-0.2,1.5-0.2,3.2,0.7,4.3c-0.3-3.2,0.8-7.4,1-8.3
					c0.4-1.6,1.1-3,2.1-4.4c0.5-0.8,1.3-1.5,1.2-2.5c0-0.4-0.2-0.7-0.3-1C350.4,254.4,350.4,254.3,350.4,254.3z"/>
				<path d="M345.7,219.1c-1.7,0.5-3.3,2.1-4.4,3.5c-0.9,1.2-1.5,2.6-1.5,4.1c0,1.3,0.2,2.7,0.8,3.8c0.5,1,1.8,2.1,3,1.7
					c0.6-0.2,0.7-0.8,0-1c-0.5-0.1-0.9,0-1.3-0.4c-0.4-0.3-0.6-0.7-0.8-1.1c-0.5-1-0.6-2.2-0.6-3.3c0-1.3,0.5-2.5,1.2-3.6
					c0.5-0.7,1-1.4,1.6-2c0.6-0.6,1.3-1.1,1.9-1.7C345.9,219.2,345.8,219.1,345.7,219.1L345.7,219.1z"/>
				<path d="M341.2,222.8c0.1-1,0.1-2,0.3-2.9c0.2-0.9,0.8-1.6,1.5-2.3c1.9-1.8,4.6-2.9,7.2-3c2.7-0.1,5.5,1,8,2.1
					c2.1,0.9,3.9,2.3,5.4,4.1c0.9,1.1,1.6,2.3,1.7,3.7c0.1,1.4-0.5,2.8-1.2,4c-0.2,0.3,0.5,0.4,0.7,0.2c2-2.2,2.5-4.6,1-7.2
					c-1.4-2.3-3.6-4.2-6-5.4c-2.7-1.3-5.9-2.5-8.9-2.6c-2.9-0.1-6.1,0.9-8.3,2.8c-0.9,0.8-1.8,1.7-2.2,2.9c-0.4,1.2-0.1,2.4,0.1,3.6
					C340.5,223.2,341.2,223.1,341.2,222.8L341.2,222.8z"/>
				<path d="M359.9,222.1c1.2,2.4,3.5,4.6,3.6,7.5c0,1.2-0.3,2.4-1,3.4c-0.8,1.1-1.8,1.5-3.1,1.6c-0.6,0-0.9,0.8-0.2,0.9
					c3,0.4,5.3-2.3,5.5-5.1c0.1-1.6-0.4-3.1-1.3-4.4c-0.9-1.5-2.3-2.6-3.4-3.9C360.1,221.9,359.8,222,359.9,222.1L359.9,222.1z"/>
				<path d="M365.8,224.1c1.1-0.2,2.1-0.7,3.1-1.3c1.1-0.6,2.3-1.1,3.6-1.4c2.7-0.6,5.2-0.3,7.8,0.1c2.3,0.3,4.9,0.7,7.3,0.3
					c1.8-0.3,3.4-1.4,4.5-2.8c0.2-0.3-0.3-0.4-0.4-0.3c-0.9,0.6-1.8,1.2-2.8,1.4c-0.9,0.2-1.9,0.2-2.8,0.2c-2.6,0-5.1-0.4-7.6-0.5
					c-2.4,0-4.8,0-7.1,0.8c-2.1,0.7-3.8,1.9-5.6,3.1C365.4,223.9,365.7,224.1,365.8,224.1L365.8,224.1z"/>
				<path d="M359.7,235.9c2.4,0.4,4.8,0.4,7.2,0.6c2.5,0.2,5,0.4,7.5,0.6c5,0.4,10,0.8,15,0.9c6.3,0.1,13.2-1,19.2,1.3
					c2.5,0.9,4.6,2.7,5.1,5.4c0.4,2.5-0.4,4.9-1,7.2c-0.6,2.4-1.2,4.7-1.9,7c-0.7,2.3-1.7,4.5-2.2,6.9c-0.5,2.2-0.8,4.5-1,6.7
					c-0.1,1.5-0.4,2.9-0.5,4.4c-0.1,0.9-0.1,2.4,0.9,2.7c2,0.7,2.7-3.3,3-4.4c0.5-2.1,0.8-4.2,1.1-6.3c0.1-0.3-0.6-0.3-0.7,0
					c-0.3,1.8-0.8,3.6-1.2,5.3c-0.3,1.1-0.6,2.3-1,3.3c-0.2,0.4-0.3,0.7-0.6,1.1c-0.2,0.3-0.2,0.4-0.4,0.1c-0.6-1.1-0.1-2.8,0-4
					c0.3-1.9,0.4-3.7,0.6-5.6c0.7-4.7,2.5-9.2,4-13.7c1.3-3.8,3.5-8,2-12.1c-0.8-2.4-2.9-4-5.2-4.9c-5.5-2.3-11.6-1.5-17.4-1.5
					c-5.5,0-11-0.4-16.5-0.8c-2.7-0.2-5.5-0.4-8.2-0.5c-2.6-0.1-5.3-0.3-7.9,0.1C359.4,235.6,359.4,235.9,359.7,235.9L359.7,235.9z"
					/>
				<path d="M413.8,243c-2-2.8-5.3,0.2-6.7,2.1c-2.7,3.5-4.1,7.7-5.2,11.9c-1.1,4.4-1.7,8.9-1.9,13.4c-0.2,3.8-0.1,7.8,0.9,11.5
					c0.6,2.4,2.7,6.6,5.9,5c0.4-0.2,0.1-0.6-0.2-0.6c-1.3,0-2.1-0.2-2.9-1.3c-0.7-1-1.1-2.2-1.4-3.4c-0.8-3.1-0.9-6.4-0.9-9.6
					c0-7.6,1.1-15.8,4.3-22.7c1-2.1,5-9.6,8.1-6.2C413.7,243.1,413.8,243.1,413.8,243L413.8,243z"/>
				<path d="M392.1,245c1.3,0.2,2.6,0.3,3.9,0.6c1.3,0.3,2.6,0.7,3.9,0.9c0.2,0,0.5-0.2,0.2-0.4c-1.3-0.5-2.6-0.8-3.9-1.1
					c-1.3-0.2-2.7-0.5-4-0.2C392,244.8,392,245,392.1,245L392.1,245z"/>
				<path d="M399.8,247.4c-1.3,2.8-2.2,5.9-2.9,8.9c-0.7,3-1.3,6.1-1.6,9.2c-0.3,3.2-0.4,6.3-0.2,9.5c0.1,1.5,0.2,3.1,0.4,4.6
					c0.2,1.6,0.4,3.3,1,4.8c0.1,0.4,0.9,0.3,0.8-0.2c-1.5-6.1-1.7-12.5-1.1-18.8c0.3-3.2,0.7-6.3,1.4-9.4c0.7-3,1.6-5.8,2.5-8.7
					C400.1,247.3,399.8,247.3,399.8,247.4L399.8,247.4z"/>
				<path d="M391.6,246.2c0.1,0.7-0.2,1.4-0.5,2c-0.3,0.9-0.7,1.7-1.1,2.5c-0.9,2-1.4,4.2-1.8,6.3c-0.5,2.9-0.9,5.9-1.1,8.9
					c-0.3,3,0.2,5.8,0.7,8.8c0.2,1.4,0.4,2.8,0.7,4.3c0.3,1.3,0.5,2.9,1.2,4.1c0.2,0.4,1.1,0.3,1-0.2c-0.3-1.5-0.9-3-1.2-4.6
					c-0.4-1.8-0.6-3.7-0.9-5.5c-0.3-1.9-0.6-3.7-0.5-5.6c0-1.9,0.3-3.7,0.5-5.6c0.3-3.3,0.6-6.8,1.8-10c0.4-1.1,0.9-2.1,1.2-3.2
					c0.2-0.7,0.6-1.6,0.3-2.3C391.8,246.1,391.6,246,391.6,246.2L391.6,246.2z"/>
				<path d="M384.1,260.8c-0.9,3.8-0.9,7.8-0.7,11.7c0.1,1.6,0.2,3.3,0.3,5c0.1,1.5,0.3,3.3,1.3,4.4c0.2,0.3,0.8,0.2,0.8-0.2
					c-0.1-0.7-0.4-1.4-0.6-2.2c-0.2-0.8-0.3-1.6-0.3-2.4c-0.1-1.6-0.2-3.2-0.4-4.9c-0.4-3.7-0.5-7.6-0.1-11.3
					C384.4,260.7,384.1,260.7,384.1,260.8L384.1,260.8z"/>
				<path d="M380.6,260.7c0.1,3.6-1,7.1-1.4,10.6c-0.2,1.6-0.4,3.3-0.4,4.9c0,0.8,0,1.6,0,2.5c0.1,0.7,0.1,1.4,0.5,1.9
					c0.2,0.3,0.9,0.3,0.9-0.1c0.2-0.7-0.1-1.4-0.2-2.1c-0.1-0.8-0.1-1.7-0.1-2.5c0-1.6,0.2-3.2,0.2-4.8c0.1-3.5,0.9-7,0.6-10.5
					C380.9,260.5,380.6,260.5,380.6,260.7L380.6,260.7z"/>
				<path d="M367,240.3c3,0.6,5.8,1.6,8.9,2c1.5,0.2,3.1,0.3,4.6,0.5c1.2,0.2,2.8,0.8,4,0.4c0.3-0.1,0.3-0.4,0-0.4
					c-0.7-0.1-1.4-0.1-2.1-0.3c-0.7-0.1-1.4-0.3-2.1-0.4c-1.5-0.2-3-0.3-4.4-0.5c-2.9-0.4-5.7-1.3-8.7-1.6
					C366.9,240.1,366.8,240.3,367,240.3L367,240.3z"/>
				<path d="M384.4,243.9c-0.5,0.6-0.8,1.6-1.1,2.4c-0.4,1-0.6,2-0.8,3.1c-0.2,1-0.4,2-0.5,3c-0.1,0.9-0.3,2,0,2.8
					c0.1,0.3,0.7,0.3,0.8,0c0.3-0.8,0.2-1.8,0.3-2.7c0.1-1,0.2-2.1,0.4-3.1c0.2-1,0.3-2,0.6-3c0.1-0.4,0.2-0.9,0.3-1.3
					c0.1-0.4,0.3-0.8,0.3-1.2C384.7,243.8,384.5,243.8,384.4,243.9L384.4,243.9z"/>
				<path d="M366.7,241.4c0.1,1.8-0.5,3.4-0.6,5.2c-0.1,1-0.1,2,0,3.1c0,0.5,0,1,0,1.5c0,0.5-0.1,1.1,0.2,1.6c0.1,0.2,0.4,0.2,0.5,0
					c0.3-0.5,0.2-1.1,0.1-1.6c0-0.5,0-1-0.1-1.5c0-1.1-0.1-2.2,0-3.3c0.1-1.6,0.9-3.6,0-5C366.8,241.3,366.7,241.3,366.7,241.4
					L366.7,241.4z"/>
				<path d="M366.5,252c0.1,0.9,0.9,1.5,1.6,1.9c1,0.5,2.2,0.9,3.3,1.1c1.6,0.4,3.2,0.5,4.8,0.8c1.5,0.3,3.5,1.2,4.9,0.2
					c0.3-0.2,0-0.6-0.3-0.6c-0.8,0.1-1.5,0.2-2.3,0c-0.7-0.2-1.5-0.4-2.2-0.5c-1.4-0.2-2.9-0.3-4.3-0.6c-0.9-0.2-1.9-0.4-2.7-0.7
					c-0.9-0.3-2.1-0.8-2.6-1.6C366.7,251.9,366.5,251.9,366.5,252L366.5,252z"/>
				<path d="M344.1,232.5c-1.2-0.3-2.3-0.8-3.5-1.1c-1.2-0.3-2.4-0.7-3.7-1c-3.9-1.2-7.8-2.4-11.7-3.5c-1.5-0.4-3.1-0.6-4.6-0.4
					c-1.6,0.3-2.8,1.2-3.8,2.5c-2,2.5-2.9,5.8-3.8,8.8c-2.2,7.4-2.6,15.1-1.6,22.7c0.4,3.4,1,7,2.3,10.3c1.1,2.9,3.3,5.5,6.5,5.9
					c3.8,0.4,7.7-1.1,11.3-1.9c4.7-1,9.6-1.6,14.2-0.3c0.8,0.2,1.3-0.8,0.4-1.1c-3.7-1-7.6-0.9-11.3-0.4c-3.6,0.5-7,1.6-10.5,2.3
					c-1.5,0.3-3.2,0.6-4.8,0.2c-1.5-0.4-2.7-1.6-3.5-2.9c-1.7-2.7-2.3-6.3-2.9-9.4c-1.4-7.3-1.5-15.1,0.3-22.4c0.7-3,1.6-6.2,3-9
					c0.7-1.4,1.6-3,3-3.8c1.4-0.9,3.2-0.6,4.8-0.2c4.1,1,8,2.5,12.1,3.6c2.4,0.7,5.2,1.7,7.8,1.3
					C344.3,232.7,344.3,232.5,344.1,232.5L344.1,232.5z"/>
				<path d="M318,256.2c-0.4,3.4-0.3,7,0.7,10.3c0.5,1.6,0.9,3.3,1.7,4.7c0.7,1.2,1.7,2.4,2.6,3.5c0.2,0.2,0.8,0.2,0.7-0.2
					c-0.4-1.3-1.5-2.2-2.2-3.4c-0.9-1.4-1.3-3.2-1.8-4.7c-1-3.4-1-6.8-1.5-10.3C318.2,256.1,318,256.1,318,256.2L318,256.2z"/>
				<path d="M318,256.3c1.3,1,3.2,0.7,4.7,0.9c1.2,0.1,2.4,0.3,3.6,0.4c1.2,0.1,2.4,0.3,3.6,0.3c0.3,0,0.4-0.3,0.1-0.4
					c-2.1-0.4-4.4-0.5-6.5-0.7c-0.8-0.1-1.7-0.1-2.5-0.2c-0.9,0-1.8,0-2.6-0.5C318.1,256,317.9,256.1,318,256.3L318,256.3z"/>
				<path d="M330.5,258.4c0-0.1,0-0.2-0.1-0.2c0-0.1-0.2-0.1-0.3-0.1c-0.3,0.2-0.2,1.2-0.2,1.5c0,0.8,0,1.7,0.1,2.5
					c0.1,1.6,0.4,3.1,0.7,4.6c0.2,1.1,0.4,2.3,0.7,3.4c0.2,0.9,0.6,2.3,1.5,2.8c0.2,0.1,0.7,0,0.6-0.3c-0.2-0.4-0.5-0.8-0.7-1.2
					c-0.2-0.5-0.4-0.9-0.5-1.4c-0.3-1-0.4-2.1-0.7-3.2c-0.3-1.4-0.6-2.7-0.8-4.1c-0.1-0.7-0.2-1.4-0.3-2.1c0-0.4-0.1-0.8-0.1-1.2
					c0-0.2-0.2-1-0.1-1.1c-0.1,0-0.2,0-0.3-0.1c0,0.1,0.1,0.2,0.1,0.2C330.3,258.6,330.6,258.5,330.5,258.4L330.5,258.4z"/>
				<path d="M337.2,272.1c0.1,0.2,0.1,0.4,0.2,0.7c0.1,0.2,0.4,0.1,0.4-0.1c-0.3-0.9-0.8-1.8-1-2.7c-0.3-1.1-0.5-2.2-0.7-3.3
					c-0.2-1.1-0.3-2.1-0.4-3.2c-0.1-1-0.1-2-0.3-2.9c-0.1-0.3-0.6-0.2-0.6,0.1c-0.1,1,0.1,2.1,0.3,3.1c0.1,1.1,0.3,2.2,0.5,3.3
					c0.2,1.1,0.5,2.2,0.8,3.2c0.3,0.9,0.6,2,1.3,2.7c0.1-0.1,0.2-0.1,0.3-0.2c-0.2-0.2-0.2-0.4-0.3-0.6
					C337.4,272,337.2,272,337.2,272.1L337.2,272.1z"/>
				<path d="M335.4,260.9C335.4,260.9,335.4,260.9,335.4,260.9C335.3,260.9,335.3,260.9,335.4,260.9
					C335.4,261,335.5,261,335.4,260.9c0.3,0.2,0.4,0.3,0.6,0.3c0.4,0.2,0.9,0.3,1.3,0.3c1,0.1,2,0.1,3,0.2c1,0.1,2,0.3,3,0.4
					c0.9,0.1,2.2,0.2,3-0.4c0.3-0.2,0-0.5-0.3-0.5c-0.5,0-0.9,0.1-1.3,0.2c-0.5,0-1,0-1.4,0c-0.9-0.1-1.8-0.2-2.7-0.3
					c-1.7-0.2-3.6,0.2-5.2-0.7c-0.1,0-0.2,0-0.2,0c-0.3,0.2-0.1,0.2,0,0.4C335.3,261.1,335.5,261.1,335.4,260.9L335.4,260.9z"/>
				<path d="M319.1,250.1c0-2.8,1-5.5,1.8-8.2c0.4-1.3,0.7-2.6,1.1-3.9c0.2-0.7,0.4-1.4,0.7-2c0.3-0.6,0.6-1.2,0.9-1.9
					c0.1-0.3-0.4-0.3-0.5-0.2c-0.9,1-1.3,2.5-1.7,3.8c-0.4,1.4-0.7,2.8-1.1,4.2c-0.7,2.6-1.7,5.4-1.3,8.2
					C318.9,250.2,319.1,250.2,319.1,250.1L319.1,250.1z"/>
				<path d="M323.9,250c0.2-0.3,0.3-0.8,0.3-1.2c0.1-0.9,0.2-1.9,0.4-2.8c0.3-1.7,0.7-3.3,1-5c0.3-1.2,0.5-2.5,0.9-3.7
					c0.2-0.6,0.4-1.2,0.7-1.8c0.3-0.6,0.7-1,1.1-1.5c0.2-0.3-0.3-0.5-0.5-0.4c-1,0.5-1.5,1.8-1.8,2.8c-0.4,1.3-0.7,2.6-0.9,4
					c-0.3,1.5-0.6,3.1-0.9,4.6c-0.2,1-0.3,2.1-0.4,3.1c0,0.5,0.1,1.3-0.2,1.8C323.6,250.1,323.8,250.1,323.9,250L323.9,250z"/>
				<path d="M329.6,250.7c0.1-2.7,0.7-5.4,1.4-8c0.3-1.3,0.7-2.6,1.1-3.8c0.4-1.1,1-2.4,1-3.6c0-0.3-0.5-0.4-0.7-0.1
					c-0.8,1-1,2.4-1.3,3.5c-0.4,1.4-0.7,2.8-1,4.2c-0.5,2.6-0.9,5.3-0.7,8C329.3,250.8,329.5,250.8,329.6,250.7L329.6,250.7z"/>
				<path d="M335.3,252.8c0.2-1.5,0.3-2.9,0.5-4.4c0.2-1.6,0.6-3.2,0.9-4.8c0.3-1.4,0.7-2.9,1.1-4.3c0.4-1.3,1.1-2.8,1-4.2
					c0-0.5-0.7-0.4-0.9-0.1c-0.4,0.7-0.5,1.5-0.7,2.3c-0.2,0.8-0.4,1.6-0.6,2.3c-0.3,1.4-0.7,2.9-0.9,4.4c-0.5,2.9-1.1,6-0.8,8.9
					C335.1,252.9,335.3,252.9,335.3,252.8L335.3,252.8z"/>
				<g>
					<path d="M463.1,226c0.1-2.2,0.3-4.3,0.8-6.5c0.4-1.7,0.8-3.5,2.1-4.8c0.9-1,2.2-1.5,3.5-1.8c0.7-0.2,1.3-0.3,2-0.5
						c0.7-0.2,1.5-0.3,2-0.8c0.3-0.3-0.2-0.6-0.5-0.6c-0.8-0.1-1.6,0.3-2.4,0.5c-0.7,0.2-1.5,0.4-2.2,0.7c-1.3,0.4-2.6,1.1-3.5,2.1
						c-1.2,1.3-1.7,3.2-2,4.9c-0.4,2.3-0.2,4.6-0.1,6.8C462.8,226.1,463.1,226.1,463.1,226L463.1,226z"/>
					<path d="M470,219c-1.7,2.1-1.4,5.5,0.1,7.6c1.7,2.4,4.8,3,7.4,2c5.2-1.9,2-9,0.8-12.5c-0.5-1.3-0.8-2.8-1.8-3.8
						c-1-1-2.7-1.3-4.1-1c-0.5,0.1-0.5,0.7,0,0.7c1.1,0.2,2.3,0.1,3.1,1c0.8,0.8,1,2,1.4,3c0.7,2,1.5,3.9,1.9,5.9
						c0.4,1.7,0.6,4-0.8,5.3c-1.8,1.5-4.8,1.2-6.3-0.4c-0.9-0.9-1.4-2.2-1.6-3.5c-0.2-1.4,0-2.7,0.3-4.1
						C470.4,219,470.1,218.9,470,219L470,219z"/>
					<path d="M508.2,266.6c-6,0-11.9-1.5-17.9-4.6c-3-1.6-4.9-4.6-4.9-8v-43.3c0-3.1,2.1-5.8,5.1-6.6c11.7-3,23.6-3,35.3,0
						c3,0.8,5.1,3.5,5.1,6.6V254c0,3.4-1.9,6.4-4.9,8l0,0C520.1,265.1,514.1,266.6,508.2,266.6z M508.2,203.4
						c-5.8,0-11.5,0.7-17.3,2.2c-2.4,0.6-4,2.7-4,5.2V254c0,2.8,1.6,5.4,4.1,6.7c11.4,5.9,23,5.9,34.4,0c2.5-1.3,4.1-3.9,4.1-6.7
						v-43.3c0-2.4-1.6-4.6-4-5.2C519.7,204.1,513.9,203.4,508.2,203.4z"/>
					<path d="M495.7,205.9c-0.4-0.2-1,0-1.4,0.1c-0.8,0.1-1.5,0.3-2.2,0.5c-1.5,0.5-3,1.1-2.7,2.9c0.4,2.9,4.4,3.9,6.7,4.6
						c2,0.6,3.9,1.2,6,1.4c2.5,0.3,5.1,0.3,7.7,0.3c4.5,0,9.5,0.5,13.5-1.9c1.5-0.9,3.7-2.6,3.1-4.7c-0.5-1.7-2.9-2.8-4.6-2.9
						c-0.4,0-0.4,0.4-0.1,0.5c1.4,0.3,3.3,1.2,3.3,2.9c0,1.5-1.9,2.8-3,3.4c-3.5,1.9-7.8,1.5-11.6,1.5c-4.1,0-8.3,0.2-12.2-1.1
						c-2.2-0.7-4.9-1.1-6.7-2.6c-1.3-1-1.5-2.8,0.1-3.7c0.6-0.3,1.4-0.5,2.1-0.7c0.5-0.1,1.4-0.6,2-0.4
						C495.7,206.1,495.8,206,495.7,205.9L495.7,205.9z"/>
					<path d="M491.7,211.2c-1-2.3,3.6-3.7,5.2-4c1.6-0.3,3.3-0.4,5-0.4c1.7-0.1,3.5-0.1,5.2,0.1c1.7,0.1,3.4,0.5,5.2,0.6
						c1.8,0.2,3.6,0.2,5.4,0.4c2.2,0.4,4.9,0.7,5.9,3c0.1,0.3,0.9,0.3,0.8-0.1c-0.2-1.9-2.5-2.7-4.1-3.1c-2.7-0.7-5.3-0.7-8.1-0.9
						c-3.4-0.2-6.6-0.8-10-0.6c-2.6,0.1-5.3,0.1-7.8,1.3c-1.3,0.6-3.9,1.9-3,3.7C491.5,211.3,491.7,211.3,491.7,211.2L491.7,211.2z"
						/>
					<path d="M507.3,208.9c-2.5-0.2-5.3-0.7-7.6,0.6c-1.7,1-0.1,2,1.1,2.4c2.1,0.9,4.5,1.2,6.8,1.4c2.3,0.2,4.6,0.3,6.9,0.2
						c2.5-0.1,5-0.5,7-2c0.1,0,0.1-0.1,0.1-0.2c-0.9-2-3.9-1.9-5.7-2c-3.2-0.1-6.4,0.1-9.5,0.8c-0.3,0.1-0.1,0.4,0.1,0.3
						c3.3-0.4,6.6-0.9,9.9-0.7c1.3,0.1,3.1,0.1,4.1,0.9c0.3,0.2,0.6,0.5,0.3,0.8c-0.2,0.2-0.7,0.4-1,0.6c-0.7,0.3-1.3,0.5-2,0.7
						c-2.6,0.6-5.3,0.4-7.9,0.3c-2.9-0.1-5.8-0.3-8.5-1.3c-0.6-0.2-2.3-0.7-2.1-1.5c0.2-0.7,1.8-1.1,2.4-1.2c1.9-0.4,3.8-0.1,5.7,0
						C507.5,209.1,507.5,208.9,507.3,208.9L507.3,208.9z"/>
					<path class="st4" d="M502.9,199c-2.5-2-2.1-6.1-0.5-8.5c0.9-1.3,2-2.5,2.7-4c0.6-1.3,0.8-2.9,0.6-4.3c-0.3-3-1.8-5.6-3.1-8.3
						c-1.5-3-2.7-5.8-2.5-9.3c0.2-1.9,0.8-3.8,1.6-5.5c0.4-0.9,0.9-1.7,1.4-2.5c0.5-0.8,1.1-1.7,1.3-2.6c0.1-0.3-0.4-0.4-0.5-0.2
						c-1.2,1.2-2.2,2.9-3,4.4c-0.8,1.5-1.5,3-1.9,4.7c-0.8,3.3-0.3,6.7,1,9.8c1.2,2.9,3,5.6,3.6,8.8c0.3,1.6,0.3,3.4-0.2,5
						c-0.5,1.6-1.6,2.9-2.4,4.3c-1.3,2.5-1,6.7,1.5,8.5C502.8,199.2,503.1,199.1,502.9,199L502.9,199z"/>
					<path class="st4" d="M509.8,194c-0.1-1.5,1.6-2.9,2.2-4.1c1-1.7,1.4-3.8,1.7-5.7c0.5-4.4-0.5-8.9-2-13
						c-0.7-2.1-1.6-4.2-1.9-6.4c-0.2-1.8,0.2-3.5,1-5.1c1.5-3.1,3.9-5.7,4.2-9.3c0.4-4.3-2.2-7.9-5.5-10.3c-0.3-0.2-1.2,0-0.8,0.4
						c2.5,2.6,4.9,5.8,4.6,9.6c-0.3,3.5-2.7,6.1-4.1,9.3c-1.6,3.7-0.6,7.2,0.8,10.8c1.7,4.2,3.1,8.5,2.8,13.1
						c-0.1,2.3-0.5,4.8-1.7,6.8c-0.6,1.1-2.1,2.6-1.8,4C509.5,194.2,509.8,194.1,509.8,194L509.8,194z"/>
					<path class="st4" d="M521.9,160c-1.6,2.3-2.3,5-2.2,7.8c0.1,2.9,1.2,5.4,2.2,8.1c0.6,1.4,0.8,2.8,0.4,4.3
						c-0.4,1.6-1.3,3.1-2.2,4.5c-1.6,2.5-3.4,4.7-3.9,7.7c-0.3,1.5-0.4,3.1-0.1,4.6c0.3,1.4,1.1,2.8,2,4c0.1,0.2,0.7,0.1,0.6-0.2
						c-0.4-1.2-1-2.4-1.3-3.6c-0.3-1.4-0.2-2.7,0-4.1c0.2-1.6,0.6-3,1.5-4.4c0.8-1.3,1.7-2.5,2.5-3.8c1.4-2.2,2.8-4.8,2.1-7.5
						c-0.3-1.3-1.1-2.5-1.6-3.8c-0.6-1.3-1.1-2.6-1.3-3.9c-0.7-3.3-0.3-6.9,1.6-9.7C522.2,160,522,159.9,521.9,160L521.9,160z"/>
					<path d="M479.3,220.6c0.2-0.1,0.3-0.1,0.4-0.2c0,0,0.1-0.1,0.1,0c0.1,0,0.2-0.1,0.2-0.1c0,0,0.1,0,0.1-0.1c-0.1,0-0.1,0,0,0
						c0.1,0,0.1-0.1,0.2-0.1c0.1-0.1,0.2-0.1,0.3-0.2c0.6-0.3,1-0.4,1.7-0.5c0.2,0,0.3-0.1,0.5-0.1c0,0,0.3,0,0.2,0
						c-0.1,0,0.2,0,0.2,0c0.3,0,0.6,0,1,0c0.2,0-0.1,0,0.1,0c0.1,0,0.1,0,0.2,0c0.1,0,0.3,0.1,0.4,0.1c-0.1,0-0.1,0,0,0
						c0.1,0,0.1,0,0.2,0.1c0.2,0.1,0.4,0.2,0.7,0.2c0.3,0,0.8-0.2,0.8-0.6c0-0.5-0.6-0.7-0.9-0.8c-0.4-0.1-0.8-0.2-1.3-0.2
						c-0.8-0.1-1.6,0-2.4,0.2c-0.8,0.2-1.6,0.4-2.2,0.8c-0.3,0.2-0.5,0.4-0.7,0.6c-0.2,0.2-0.3,0.6-0.1,0.8
						C478.9,220.6,479.1,220.6,479.3,220.6L479.3,220.6z"/>
					<path d="M477.2,228.2c-0.5,0.6-0.7,1.3-0.4,2c0.3,0.8,0.9,1.4,1.6,1.9c1.5,1.2,3.5,2,5.4,2.1c0.9,0.1,2.2,0,2.8-0.7
						c0.2-0.3,0.1-0.6-0.1-0.8c-0.3-0.2-0.7-0.2-1-0.1c-0.1,0-0.2,0.1-0.4,0.2c-0.1,0-0.1,0-0.2,0.1c0.2-0.1,0,0-0.1,0
						c-0.1,0-0.2,0-0.2,0c-0.2,0,0.1,0-0.1,0c-0.2,0-0.3,0-0.5,0c-0.1,0-0.2,0-0.3,0c-0.1,0,0.1,0,0,0c0,0-0.1,0-0.1,0
						c-0.2,0-0.4-0.1-0.6-0.1c-0.4-0.1-0.8-0.2-1.1-0.3c-1.4-0.5-2.9-1.2-3.8-2.4c-0.3-0.5-0.5-1.2-0.4-1.8
						C477.8,228,477.3,228,477.2,228.2L477.2,228.2z"/>
					<path d="M475.4,228.3c-1.3,0.1-1.9,2-2,3.1c-0.2,1.6,0,3.3,0.5,4.8c0.9,3.3,3.2,5.9,6.5,7c1.9,0.7,4,0.8,6,0.2
						c0.3-0.1,0.5-0.5,0.3-0.8c-0.2-0.3-0.7-0.3-1-0.2c-3.7,1.3-8.1-1.3-9.7-4.7c-0.7-1.5-1.1-3.3-1.2-5c0-0.8,0-1.6,0.3-2.4
						c0.1-0.3,0.2-0.7,0.4-1c0.1-0.3,0.5-0.5,0.5-0.9C475.7,228.4,475.5,228.3,475.4,228.3L475.4,228.3z"/>
					<path d="M475,238.6c0,0.1-0.2,0.3-0.3,0.4c-0.2,0.2-0.2,0.5-0.3,0.8c-0.2,0.6-0.4,1.2-0.5,1.8c-0.2,1.3-0.2,2.6,0.4,3.8
						c1.4,2.6,4.4,3.7,7.2,4c0.8,0.1,1.7,0.1,2.5-0.1c0.8-0.1,1.5-0.5,2.2-0.7c0.6-0.2,0.7-0.9,0.2-1.2c-0.5-0.3-1.3-0.3-1.7,0.2
						c-0.1,0.2-0.2,0.2,0,0.1c-0.1,0.1-0.2,0.1-0.4,0.2c-0.3,0.1-0.5,0.2-0.8,0.2c-0.6,0.1-1.2,0.1-1.8,0.1
						c-1.3-0.1-2.5-0.4-3.7-0.9c-1.1-0.5-2.2-1.2-2.7-2.3c-0.5-1.1-0.5-2.3-0.3-3.5c0.1-0.6,0.2-1.2,0.3-1.8c0-0.3,0-0.4-0.1-0.6
						c0-0.1,0-0.2-0.1-0.3C475.2,238.5,475,238.5,475,238.6L475,238.6z"/>
					<path d="M478.9,248.5c-0.2,0-0.4,0.1-0.5,0.3c-0.1,0.2-0.2,0.5-0.2,0.8c0,0.7,0.1,1.4,0.4,2.1c0.3,0.6,0.6,1.2,1.2,1.5
						c0.9,0.5,2,0.4,2.9,0.3c0.5-0.1,1.1-0.2,1.6-0.3c0.5-0.1,1.1-0.1,1.6-0.3c0.7-0.3,0.5-1.1-0.2-1.2c-0.8-0.1-1.8,0.2-2.6,0.4
						c-0.4,0.1-0.8,0.2-1.3,0.2c-0.2,0-0.7,0.1-0.9,0c-0.2,0-0.2-0.1-0.4-0.1c0.1,0,0.1,0.1,0,0c0,0-0.1-0.1-0.1-0.1
						c0,0-0.1-0.1-0.1-0.1c0,0-0.1-0.1-0.1-0.1c-0.1-0.1-0.2-0.2-0.2-0.4c-0.3-0.5-0.6-1.1-0.7-1.6c-0.1-0.3-0.2-0.6-0.3-0.8
						c0-0.1,0-0.2-0.1-0.3C478.9,248.7,478.8,248.7,478.9,248.5C479,248.6,478.9,248.5,478.9,248.5L478.9,248.5z"/>
					<path d="M477.7,217c0.2-0.4,0.4-0.8,0.5-1.2c0.1-0.4,0.3-0.8,0.4-1.2c0.3-0.8,0.7-1.5,1.5-1.8c0.8-0.3,1.9-0.2,2.7-0.1
						c1,0.1,2.1,0.3,3.2,0.2c0.3,0,0.7-0.3,0.7-0.7c0-0.4-0.4-0.7-0.7-0.7c-0.6-0.1-1.2-0.1-1.7-0.1c-0.6,0-1.1-0.1-1.7-0.1
						c-1.2-0.1-2.4,0.1-3.4,0.7c-0.9,0.5-1.3,1.3-1.6,2.3c-0.1,0.5-0.1,0.9-0.2,1.4c0,0.5,0,1-0.1,1.5
						C477.4,217.1,477.7,217.1,477.7,217L477.7,217z"/>
					<path d="M467,233.7c0.9,0.2,1.8,0.1,2.7,0c0.8-0.1,1.6-0.3,2.4-0.7c1.6-0.9,2.7-2.4,3.3-4.1c0.3-0.8-1.4-1.1-1.6-0.3
						c-0.5,1.4-1.3,2.7-2.6,3.6c-0.5,0.4-1.2,0.7-1.8,0.8c-0.8,0.2-1.6,0.3-2.4,0.4C466.9,233.4,466.9,233.6,467,233.7L467,233.7z"
						/>
					<path d="M462.8,234.3c0.5,1,0.4,2,0.6,3.1c0.1,0.9,0.5,1.7,0.9,2.6c0.7,1.4,1.6,2.8,2.9,3.9c2.1,1.8,5.7,3.9,8.3,2
						c0.4-0.3,0.3-0.7,0-1c-0.4-0.3-0.9-0.3-1.3,0c-0.8,0.6-2,0.2-2.9-0.1c-1.2-0.5-2.4-1.2-3.4-2.1c-1.2-0.9-2.1-2.2-2.9-3.4
						c-0.5-0.8-0.9-1.6-1.1-2.5c-0.2-0.9-0.4-1.7-0.8-2.5C463,234.2,462.8,234.2,462.8,234.3L462.8,234.3z"/>
				</g>
				<path d="M409,341.3c-3.2,0-7.1-1-10.6-4.7c-0.2-0.2-0.3-0.6-0.1-0.9c0.1-0.2,13-21.1,12.9-53.8l1.5,0
					c0.1,30.3-10.8,50.7-12.8,54.1c5.9,5.8,12.8,3.5,14.3,2.9c8.2-33.8,10.2-67.4,10.2-67.7c0-0.2,0.1-0.3,0.2-0.5
					c5.7-6.2,7.8-17.4,5.8-29.9c-2.2-13.4-8.7-25.2-16.2-29.4l0.7-1.3c8,4.5,14.7,16.4,17,30.4c2.1,13-0.1,24.2-6,30.9
					c-0.2,3.2-2.4,35.6-10.4,68.1c-0.1,0.2-0.2,0.4-0.4,0.5C415.1,340,412.5,341.3,409,341.3z"/>
				<path d="M381.5,237.1l-1.4-0.3c1.9-9.9,5.2-15.7,5.4-16l1.3,0.7C386.6,221.6,383.3,227.4,381.5,237.1z"/>
				<path d="M431.2,255.9c-5.3-3.8-13.5-3.9-13.6-3.9l0-1.1c0,0,0,0,0,0c0.4,0,8.6,0.1,14.2,4.1L431.2,255.9z"/>
				<path d="M454.9,228.8c-1.2-0.1-2.1,0.8-3.1,1.3c-1.2,0.6-2.4,1.1-3.7,1.6c-1.4,0.5-2.8,0.9-4.3,0.9c-1.3,0-2.6-0.2-3.9-0.3
					c-2.4-0.2-4.8-0.3-7.1,0.6c-0.9,0.4-1.8,0.9-2.4,1.6c-0.5,0.6-1.2,1.7-0.6,2.5c0.3,0.3,0.8,0.3,1,0c0.3-0.4,0.3-0.8,0.5-1.2
					c0.2-0.4,0.6-0.8,0.9-1.1c0.8-0.6,1.8-1,2.8-1.2c2.3-0.5,4.7,0,7,0.1c2.3,0.1,4.4-0.2,6.6-1.1c1.1-0.4,2.3-0.9,3.3-1.6
					c1-0.6,3-1.9,3-1.9c0.1-0.1,0.1-0.3-0.1-0.3L454.9,228.8z"/>
				<path d="M427.9,229.2c0.5,0,1.1-0.4,1.6-0.6c0.5-0.2,1-0.4,1.5-0.5c1.1-0.2,2.2-0.3,3.4,0c2.2,0.5,4.1,2.1,4.3,4.4
					c0.1,0.8,1.7,0.8,1.6,0c-0.5-4.8-5.9-6.6-10-5.4c-0.6,0.2-1.1,0.4-1.7,0.7c-0.3,0.2-1,0.7-1,1.1
					C427.7,229.1,427.8,229.2,427.9,229.2L427.9,229.2z"/>
				<path d="M418.8,213.9c0.2,0.3,0.5,0.3,0.8,0.4c0.4,0.2,0.8,0.3,1.2,0.5c0.8,0.3,1.6,0.7,2.4,1.1c1.6,0.9,3.3,2.1,4.5,3.6
					c1,1.3,1.8,2.9,2.7,4.3c0.4,0.7,0.8,1.3,1.2,2c0.3,0.5,0.4,1.2,0.9,1.6c0.4,0.3,1,0.2,1.2-0.2c0.3-0.6-0.3-1.3-0.6-1.8
					c-0.4-0.7-0.9-1.4-1.3-2.1c-1-1.6-1.8-3.3-3.1-4.7c-1.3-1.5-3.1-2.7-4.8-3.6c-0.9-0.5-1.8-0.8-2.8-1.1c-0.6-0.1-1.8-0.4-2.3,0
					C418.8,213.9,418.8,213.9,418.8,213.9L418.8,213.9z"/>
				<path d="M400.6,221c0,0-0.1,0-0.1,0c-0.2,0-0.4-0.2-0.4-0.4l-3-11.1l1.1-0.3l2.7,10l6.4-8.3c0.1-0.1,0.2-0.2,0.4-0.2
					c0.2,0,0.3,0.1,0.4,0.2l7.1,7.4l0.6-6.4l1.1,0.1l-0.7,7.6c0,0.2-0.2,0.4-0.4,0.5c-0.2,0.1-0.4,0-0.6-0.1l-7.4-7.8l-6.7,8.7
					C400.9,220.9,400.8,221,400.6,221z"/>
				<path d="M406.5,237.9l-1.1-0.1l1.4-18.7l-2.9-3.2l0.8-0.7l3.1,3.4c0.1,0.1,0.2,0.3,0.1,0.4L406.5,237.9z"/>
				<path d="M415.2,247.3l-0.9-0.6l4-5.8l-8.2-22c0-0.1,0-0.2,0-0.3l0.8-3.5l1.1,0.2l-0.8,3.3l8.2,22.1c0.1,0.2,0,0.4-0.1,0.5
					L415.2,247.3z"/>
				<path d="M407.6,219.5l-0.5-1c0.2-0.1,2.3-1.1,3.8-0.3l-0.6,1C409.6,218.7,408.1,219.2,407.6,219.5z"/>
				<path d="M363.8,348.9c-5.8,0-10.1-2.3-12.7-6.9c-0.1-0.3-0.1-0.6,0-0.8c14.5-20.3,30.4-43.3,35.2-59.7l1.4,0.4
					c-4.9,16.5-20.7,39.5-35.2,59.7c3.2,5.1,8.6,6.8,16.7,5.1c11.4-16.9,20.6-37.7,27.2-61.9l1.4,0.4c-6.7,24.5-16,45.5-27.6,62.6
					c-0.1,0.2-0.3,0.3-0.5,0.3C367.7,348.6,365.7,348.9,363.8,348.9z"/>
				<path d="M414.3,273.4c0.6,0,1.4,0,2-0.1c0.7-0.1,1.4-0.2,2.1-0.3c1.4-0.2,2.7-0.6,4.1-1c-1.2,0.7-2.6,1.2-3.9,1.7
					c-0.7,0.2-1.4,0.5-2.1,0.6c-0.7,0.2-1.4,0.4-2.1,0.5L414.3,273.4z"/>
				<path d="M356.2,352.1c-1.4-2.2-2.5-4.6-3.7-6.9c-1.1-2.3-2.4-4.5-3.9-6.6c-1.4-2.1-3-4.2-4.7-6c-1.7-1.9-3.6-3.6-5.8-4.9
					c-1.1-0.7-2.2-1.2-3.4-1.6c-1.2-0.5-2.4-0.9-3.6-1.2c-2.4-0.7-4.9-1-7.4-0.8c-2.4,0.2-4.8,1-6.7,2.5c-1.9,1.5-3.3,3.6-3.8,5.9
					c-0.3,1.2-0.4,2.4-0.3,3.6c0.1,1.2,0.2,2.5,0.5,3.7c0.6,2.4,1.5,4.8,2.7,7c2.4,4.5,5.7,8.4,9.7,11.5c4,3.1,8.8,5.2,13.8,5.5
					c5.1,0.4,10.3,0.5,15.4,0.3l0,0c0.5,0,0.9,0.4,0.9,0.8c0,0.1,0,0.1,0,0.2c0,0.2-0.1,0.5-0.1,0.7c0,0.1,0,0.2,0,0.3
					c0,0.1,0,0.2,0,0.2l-0.9-0.6c2.1-0.1,4.2-0.3,6.3-0.5l1.6-0.2c0.5-0.1,1.1-0.1,1.5-0.3c0.4-0.1,0.8-0.3,1.1-0.5
					c0.3-0.3,0.5-0.6,0.7-1c0.8-1.7,1.1-3.8,0.8-5.8c-0.1-1-0.4-2-0.8-2.9c-0.2-0.5-0.4-0.9-0.7-1.3c-0.3-0.4-0.5-0.6-0.8-0.6
					c-0.4-0.1-0.7-0.5-0.6-0.9c0.1-0.3,0.3-0.6,0.7-0.6l0,0c0.2,0,0.3-0.1,0.5-0.3c0.2-0.2,0.3-0.5,0.4-0.8c0.2-0.6,0.3-1.3,0.2-2
					l1.5,0c0,0.8,0,1.7-0.3,2.6c-0.2,0.4-0.3,0.8-0.7,1.2c-0.3,0.4-0.9,0.8-1.5,0.9l0-1.5c0.8,0.1,1.4,0.7,1.8,1.2
					c0.4,0.5,0.6,1,0.9,1.6c0.5,1,0.8,2.2,0.9,3.3c0.3,2.3,0,4.6-0.9,6.7c-0.3,0.5-0.6,1.1-1.1,1.6c-0.5,0.5-1.2,0.8-1.8,0.9
					c-0.6,0.2-1.1,0.2-1.7,0.3l-1.6,0.2c-2.1,0.3-4.3,0.5-6.4,0.6l0,0c-0.4,0-0.7-0.2-0.9-0.6c-0.1-0.3-0.1-0.5-0.1-0.6
					c0-0.2,0-0.3,0-0.5c0-0.3,0-0.6,0.1-0.9l0.9,1c-5.2,0.3-10.5,0.2-15.7-0.2c-5.4-0.4-10.5-2.7-14.7-5.9
					c-4.2-3.3-7.7-7.4-10.2-12.1c-1.2-2.4-2.3-4.8-2.9-7.5c-0.3-1.3-0.5-2.7-0.6-4c-0.1-1.4,0.1-2.8,0.4-4.1
					c0.4-1.3,0.9-2.6,1.7-3.8c0.8-1.2,1.7-2.2,2.8-3.1c2.2-1.7,5-2.6,7.7-2.8c2.7-0.2,5.4,0.2,8,0.9c1.3,0.3,2.5,0.8,3.8,1.3
					c1.2,0.5,2.5,1.1,3.6,1.8c2.3,1.4,4.3,3.2,6.1,5.2c1.8,1.9,3.4,4.1,4.8,6.2C352.8,342.2,355.4,346.9,356.2,352.1z"/>
				<path d="M365.2,352.7c-1.8,0.5-3.7,0.6-5.5,0.1c-1.8-0.4-3.5-1.4-4.5-2.9l0.4-0.3c1.1,1.3,2.7,2,4.4,2.2c1.6,0.3,3.3,0,4.9-0.6
					L365.2,352.7z"/>
				<path d="M353.5,364.6c-7.3,0-11.8-7.1-16.1-14c-6.1-9.7-11.9-18.9-25.1-11.8l-0.3-0.6c13.8-7.4,20,2.5,26.1,12.1
					c4.7,7.4,9.1,14.4,16.7,13.6c0.1,0,8.5,0.2,12.6-2.1l0.4,0.6c-4.4,2.4-12.6,2.2-13,2.2C354.3,364.6,353.9,364.6,353.5,364.6z"/>
				<path d="M407.2,348.8c1.6-3.8,5.1-6.8,9.1-8.2c3.9-1.5,8-2.3,12.2-2.2c2.1,0.1,4.2,0.4,6.2,1.1c2,0.8,3.9,2.1,5.2,3.7
					c1.4,1.6,2.5,3.5,3.3,5.4c0.8,2,1.3,4.1,1.4,6.2c0.1,2.1-0.4,4.4-1.7,6.3c-0.7,0.9-1.5,1.7-2.5,2.3c-1,0.6-2,0.9-3,1.2
					c-2.1,0.6-4.1,0.8-6.2,1c-2.1,0.1-4.1,0.1-6.2,0c-4.1-0.2-8.2-0.8-12.2-1.9c-4-1.1-7.9-2.6-11.4-5.1l1.4-0.4l-0.6,1.7l0,0
					c-0.1,0.4-0.5,0.6-0.9,0.6c-1.3-0.1-2.5-0.2-3.7-0.4c-1.2-0.2-2.4-0.4-3.7-0.7c-1.2-0.3-2.4-0.6-3.6-1.1c-1.2-0.5-2.3-1.1-3.4-2
					c-0.2-0.2-0.3-0.4-0.3-0.7c0.1-1.8,0.2-3.5,0.6-5.3c0.3-1.7,0.8-3.5,1.7-5.1c0.8-1.6,2-3.2,3.5-4.3c1.5-1.1,3.3-1.7,5.1-2
					l-0.6,0.8c0-0.4,0-0.8,0.1-1.3c0.1-0.4,0.3-0.9,0.6-1.2c0.3-0.4,0.7-0.6,1-0.8c0.4-0.2,0.7-0.3,1.1-0.4l0.4,1.4
					c-0.6,0.2-1.1,0.4-1.4,0.8c-0.3,0.3-0.4,0.8-0.3,1.4c0,0.4-0.2,0.8-0.6,0.8l0,0c-1.6,0.3-3.1,0.8-4.4,1.8
					c-1.3,0.9-2.3,2.2-3,3.7c-0.7,1.5-1.2,3.1-1.5,4.7c-0.3,1.6-0.4,3.3-0.5,5l-0.3-0.7c0.8,0.7,1.8,1.2,2.9,1.7
					c1.1,0.4,2.2,0.8,3.3,1c1.1,0.3,2.3,0.5,3.5,0.7c1.2,0.2,2.4,0.3,3.5,0.4l-0.9,0.6l0.6-1.7c0.2-0.5,0.7-0.7,1.1-0.6
					c0.1,0,0.2,0.1,0.2,0.1l0,0c3.2,2.3,6.9,3.7,10.8,4.8c3.9,1,7.9,1.6,11.8,1.8c2,0.1,4,0.1,6,0c2-0.1,4-0.4,5.8-0.9
					c0.9-0.3,1.8-0.6,2.6-1c0.8-0.4,1.5-1,2-1.8c1-1.5,1.5-3.4,1.4-5.3c-0.1-3.8-1.7-7.7-4.2-10.6c-1.3-1.5-2.8-2.6-4.6-3.3
					c-1.8-0.7-3.7-1-5.7-1.1c-3.9-0.1-7.9,0.6-11.7,2C413.1,343.4,409.9,345.8,407.2,348.8z"/>
				<path d="M398.4,340c0,0.4,0.2,0.8,0.4,1.3c0.2,0.2,0.3,0.4,0.5,0.6c0.2,0.2,0.4,0.4,0.6,0.6c0.8,0.8,1.8,1.4,2.9,1.8
					c1.1,0.5,2.2,0.8,3.4,0.9c1.2,0.1,2.4,0.1,3.5-0.1l0.2,0.8c-1.2,0.3-2.5,0.4-3.8,0.3c-1.3-0.1-2.5-0.4-3.7-0.8
					c-1.2-0.5-2.3-1.1-3.3-1.9c-0.3-0.2-0.5-0.4-0.7-0.7c-0.2-0.2-0.4-0.5-0.6-0.8c-0.4-0.6-0.7-1.3-0.7-2.1L398.4,340z"/>
				<path d="M414.3,342.9l-1.4-0.5c0.5-1.2-0.1-1.9-0.2-1.9l1-1.1C413.8,339.4,415.2,340.8,414.3,342.9z"/>
				<path d="M426.9,362.2c-12.3,0-24-4.4-25-4.8c-0.2,0-0.3,0-0.5,0c-8.2,0-13.6-3.9-13.8-4.1l0.4-0.6c0.1,0,5.7,4.2,13.9,4
					c0,0,0.1,0,0.1,0c0.3,0.1,25.6,10,41.2,1l0.4,0.6C438.6,361.2,432.7,362.2,426.9,362.2z"/>
			</g>
			<path d="M442.7,359.1c-1,1.5-2.2,3-3.8,4c-0.8,0.5-1.7,1-2.7,1.2c-1.1,0.3-2.1,0.4-3.2,0.4c-2.4,0.1-4.9,0-7.4-0.1
				c-2.3-0.2-4.6-0.4-6.9-0.7c-4.6-0.6-9.4-1.4-13.5-3.6c-0.5-0.2-0.9-0.5-1.4-0.8c-0.4-0.3-0.7-0.6-1.1-0.9
				c-0.2-0.1-0.4-0.3-0.6-0.3c-0.2,0-0.4,0.2-0.5,0.3c-0.3,0.3-0.5,0.7-0.9,0.8c-0.4,0.1-0.9,0.1-1.2,0c-0.5-0.1-1-0.2-1.5-0.3
				c-0.7-0.2-1.4-0.3-2.1-0.4c-1.6-0.2-3.3-0.5-4.8-1.1c-0.9-0.3-1.9-0.8-2.6-1.5c-1.1,0-2.2,0-3.3,0c-5.8,0-11.4,0.1-16.7,0.2
				c0.2,1.5,0.3,3,0,4.5c-0.4,1.6-1.3,2.9-2.7,3.7c-0.6,0.3-1.2,0.6-1.8,0.8c-0.6,0.2-1.3,0.5-1.9,0.7c-1.4,0.5-2.9,0.9-4.4,1.1
				c-0.5,0.1-1.1,0.1-1.6-0.1c-0.2-0.1-0.4-0.2-0.5-0.3c-0.3-0.3-0.1-0.8-0.1-1.2c0-0.2-0.1-0.5-0.3-0.6c-0.1-0.1-0.3-0.1-0.5-0.1
				c-0.4,0-0.8,0-1.2,0.1c-0.5,0-1.1,0-1.6,0c-0.7,0-1.3,0-2,0c-2.6,0.1-5.1,0.1-7.7,0c-2.5-0.1-4.9-0.4-7.3-1
				c-1.8-0.5-3.7-1-5.4-1.7c-1.5-0.6-2.9-1.5-3.9-2.7c-7.3,1.1-11.5,2.5-11.5,3.9c0,4,31.9,7.2,71.3,7.2s71.3-3.2,71.3-7.2
				C456.3,361.8,451.2,360.3,442.7,359.1z"/>
		</g>
	</g>
	<path d="M439,248.5c-4.5,0-6.9-1.2-7.1-1.4l0.6-1.2c0.1,0.1,11,5.6,31.4-8.4l0.5,1.3C452.9,246.8,444.5,248.5,439,248.5z"/>
	<g>
		<path class="st4" d="M409.9,143.7c-5.1-0.6-9.7,5.9-10.4,14.2c-0.7,8.2,3.2,16.2,8.1,16.8c4.9,0.6,10.3-5.1,10.6-14.2
			C418.5,151.4,415.3,144.4,409.9,143.7z"/>
		<path class="st14" d="M409.4,175.1c-0.3,0-0.6,0-0.9,0c-5.5-0.1-9.6-7.2-9.4-16.2c0.3-9,4.8-15.9,10.3-15.8c2.7,0.1,5.2,1.8,6.9,5
			c1.7,3,2.6,7,2.5,11.2c-0.1,4.2-1.2,8.2-3.1,11.1C413.9,173.2,411.7,174.8,409.4,175.1z M408.6,144.2c-4.5,0.5-8.2,6.9-8.5,14.8
			c-0.2,8.3,3.5,15.1,8.3,15.2c2.3,0.1,4.5-1.4,6.2-4.2c1.8-2.8,2.9-6.6,3-10.7l0,0c0.1-4.1-0.7-7.9-2.4-10.8
			c-1.6-2.8-3.7-4.4-6-4.4C409.1,144.1,408.9,144.1,408.6,144.2z"/>
		
			<ellipse transform="matrix(3.294281e-02 -0.9995 0.9995 3.294281e-02 234.9668 569.6335)" cx="411.8" cy="163.4" rx="9" ry="5.4"/>
		<polygon class="st4" points="406.1,159.9 410.9,163.5 405.9,166.2 		"/>
	</g>
	<g>
		<path class="st4" d="M436.6,143.7c-3.5-0.6-6.6,5.9-7,14.2c-0.5,8.2,2.2,16.2,5.5,16.8c3.3,0.6,7-5.1,7.2-14.2
			C442.4,151.4,440.2,144.4,436.6,143.7z"/>
		<path class="st14" d="M436.2,175.1c-0.2,0-0.4,0-0.6,0c-3.8-0.1-6.6-7.2-6.4-16.2c0.2-9,3.3-15.9,7-15.8c1.8,0.1,3.5,1.8,4.7,5
			c1.2,3,1.8,7,1.7,11.2c-0.1,4.2-0.8,8.2-2.1,11.1C439.3,173.2,437.8,174.8,436.2,175.1z M435.7,144.2c-3.1,0.5-5.6,6.9-5.7,14.8
			c-0.2,8.3,2.4,15.1,5.6,15.2c1.5,0.1,3-1.4,4.2-4.2c1.2-2.8,1.9-6.6,2-10.7l0,0c0.1-4.1-0.5-7.9-1.6-10.8
			c-1.1-2.8-2.5-4.4-4.1-4.4C436.1,144.1,435.9,144.1,435.7,144.2z"/>
		
			<ellipse transform="matrix(1.721173e-02 -0.9999 0.9999 1.721173e-02 266.9893 598.4194)" cx="437.9" cy="163.4" rx="9" ry="3.7"/>
		<polygon class="st4" points="434,159.9 437.3,163.5 433.8,166.2 		"/>
	</g>
	<ellipse class="st15" cx="426.9" cy="174.1" rx="6.6" ry="3.9"/>
	<path d="M426.9,178.9c-0.2,0-0.3,0-0.5,0c-2.5-0.1-4.7-1-5.9-2.4c-0.7-0.8-1-1.7-0.9-2.7c0.2-2.6,3.6-4.5,7.7-4.3
		c2.5,0.1,4.8,1,5.9,2.4c0.7,0.8,1,1.7,0.8,2.6l0,0C433.8,177,430.6,178.9,426.9,178.9z M426.8,171c-3,0-5.6,1.3-5.8,3
		c-0.1,0.7,0.3,1.2,0.6,1.6c0.9,1.1,2.8,1.8,4.8,1.9c3.5,0.1,6-1.5,6.2-3.1c0.1-0.5-0.1-1-0.5-1.5c-0.9-1.1-2.8-1.8-4.9-1.9
		C427.1,171,426.9,171,426.8,171z"/>
</g>
</svg>
